<?xml version="1.0" standalone="no"?>
<!DOCTYPE svg PUBLIC "-//W3C//DTD SVG 20010904//EN"
 "http://www.w3.org/TR/2001/REC-SVG-20010904/DTD/svg10.dtd">
<svg version="1.0" xmlns="http://www.w3.org/2000/svg"
 width="8297.000000pt" height="1500.000000pt" viewBox="0 0 8297.000000 1500.000000"
 preserveAspectRatio="xMidYMid meet">

<g transform="translate(0.000000,1500.000000) scale(0.100000,-0.100000)"
fill="#000000" stroke="none">
<path d="M0 7500 l0 -7500 41485 0 41485 0 0 7500 0 7500 -41485 0 -41485 0 0
-7500z m63910 6140 c903 -69 1652 -468 2299 -1225 996 -1163 1549 -3044 1518
-5160 -13 -852 -112 -1594 -318 -2369 -432 -1627 -1284 -2828 -2384 -3357
-740 -356 -1649 -396 -2412 -107 -290 109 -613 293 -872 496 -970 758 -1670
2115 -1951 3786 -306 1821 -106 3836 526 5299 227 523 536 1033 863 1422 102
121 333 352 456 454 354 295 756 516 1161 641 339 105 742 148 1114 120z
m-34368 -190 l3188 0 0 -2224 0 -2224 -66 -7 c-36 -4 -69 -4 -73 1 -4 5 -22
81 -40 169 -258 1277 -515 2088 -868 2738 -150 277 -243 419 -384 582 -345
401 -778 650 -1234 709 -192 25 -562 39 -855 33 -256 -6 -539 -22 -567 -32
-10 -3 -13 -567 -13 -2773 l0 -2769 163 -6 c455 -19 783 45 1013 198 105 70
189 161 287 310 325 496 504 1105 619 2103 12 111 27 202 32 202 5 0 26 -18
47 -39 75 -80 69 182 67 -2896 -3 -2694 -3 -2761 -22 -2798 -21 -42 -77 -107
-93 -107 -6 0 -17 73 -27 162 -117 1127 -280 1686 -631 2158 -232 312 -483
439 -945 480 -129 11 -393 13 -464 4 l-46 -7 0 -2837 0 -2837 178 -7 c823 -33
1140 -23 1468 44 361 74 625 221 906 504 254 256 465 577 723 1101 348 706
587 1400 876 2544 101 402 119 453 184 528 l32 37 8 -145 c4 -79 9 -1203 10
-2496 l1 -2353 -3803 0 -3803 0 0 85 0 85 163 0 c222 0 659 18 787 33 l105 12
3 4465 c2 2456 0 5051 -4 5767 l-6 1301 -122 6 c-66 3 -296 10 -510 16 -224 6
-394 14 -401 20 -6 5 -20 25 -30 43 -23 43 -14 79 22 97 45 21 224 29 592 24
189 -2 1779 -4 3533 -4z m11233 -5 c913 -22 1873 -535 2520 -1345 737 -924
1183 -2184 1310 -3705 48 -578 48 -1289 0 -1860 -102 -1202 -392 -2212 -880
-3066 -109 -190 -285 -451 -411 -609 -140 -175 -443 -478 -614 -614 -448 -355
-927 -585 -1435 -691 -258 -53 -262 -53 -2030 -58 -902 -2 -1970 -1 -2374 2
l-734 6 -34 78 c-18 44 -33 80 -33 81 0 2 159 6 353 10 329 6 572 18 684 34
l48 7 0 5762 c0 3169 -3 5764 -7 5768 -3 4 -181 11 -395 16 -213 6 -440 13
-503 17 l-114 7 -33 75 c-17 41 -32 78 -32 82 -2 13 4205 16 4714 3z m11298
-1522 c6 -1525 -1 -2955 -15 -2969 -12 -12 -86 43 -113 85 -19 28 -36 87 -65
230 -242 1173 -472 1903 -807 2563 -186 366 -381 631 -643 872 -278 256 -598
418 -940 475 -229 38 -361 46 -775 45 -220 0 -470 -4 -556 -8 l-156 -8 -6
-216 c-4 -120 -7 -1370 -7 -2778 l0 -2562 153 -7 c88 -4 222 -2 320 4 486 32
750 161 952 465 351 529 561 1223 633 2087 9 114 19 208 22 209 3 2 34 0 70
-4 l65 -7 -2 -2862 -2 -2862 -71 -3 -70 -3 0 30 c0 64 -31 415 -51 571 -66
527 -172 920 -343 1275 -159 330 -326 554 -497 667 -238 157 -546 224 -999
216 l-175 -3 -3 -2813 c-1 -1918 1 -2819 8 -2833 6 -10 25 -27 43 -36 30 -17
78 -18 627 -18 633 0 737 6 978 56 248 51 490 168 707 344 111 90 297 280 386
395 168 218 351 527 538 910 331 680 580 1415 892 2640 l73 285 51 63 50 64 7
-164 c4 -89 9 -1210 10 -2491 l3 -2327 -3804 0 -3804 0 7 53 c3 28 6 68 6 88
l0 36 123 -5 c206 -7 793 21 895 43 l22 5 0 5683 c0 3125 -3 5719 -6 5764 l-7
82 -61 5 c-34 3 -265 10 -515 15 -249 6 -455 12 -458 14 -2 3 -1 41 3 86 l7
81 3606 3 c1983 1 3624 3 3647 5 l41 2 6 -1537z m4380 1520 l197 -6 24 -76 23
-76 -26 -9 c-14 -4 -129 -7 -256 -5 -437 6 -526 -2 -650 -62 -113 -54 -109
-47 -113 -208 -4 -162 8 -259 68 -516 22 -93 96 -429 165 -745 69 -316 292
-1320 495 -2230 499 -2239 628 -2822 870 -3954 77 -357 141 -651 144 -653 5
-5 347 1372 526 2117 120 499 279 1169 706 2975 86 363 221 930 300 1260 218
903 260 1140 251 1395 -10 287 -90 466 -244 548 -108 57 -160 65 -465 71 -152
3 -279 9 -283 13 -4 3 -3 42 0 86 l7 79 857 7 c834 7 1123 2 1376 -24 50 -5
100 -10 113 -10 44 0 20 -90 -35 -125 -24 -16 -60 -20 -233 -27 -222 -9 -276
-19 -372 -70 -201 -107 -320 -377 -503 -1143 -371 -1555 -549 -2299 -1230
-5140 -405 -1690 -876 -3665 -1116 -4687 l-183 -778 -432 0 -432 0 -5 23 c-11
41 -591 2622 -1197 5317 -1118 4974 -1280 5693 -1320 5841 -73 272 -129 398
-219 492 -110 116 -174 133 -539 148 -135 5 -248 11 -251 14 -2 3 6 39 19 80
l24 75 110 1 c61 1 336 5 611 9 556 9 2908 3 3218 -7z m15654 1 l61 -6 -29
-67 c-17 -36 -36 -72 -43 -79 -10 -11 -106 -16 -427 -23 -366 -8 -573 -20
-586 -32 -2 -3 -9 -74 -14 -158 -13 -195 -23 -7695 -14 -9836 l7 -1521 23 -6
c77 -19 202 -28 530 -36 345 -9 406 -13 505 -40 l38 -10 -17 -57 c-16 -53 -20
-58 -51 -64 -65 -12 -1573 -19 -2914 -12 l-1337 6 3 86 3 86 155 -3 c200 -4
609 14 774 33 71 8 131 16 132 18 2 1 3 2529 4 5617 2 5430 0 5715 -26 5883
l-6 37 -161 0 c-197 0 -900 20 -906 26 -3 3 13 40 34 84 l39 80 735 3 c982 5
3410 -2 3488 -9z m5393 -4 c594 -53 1054 -199 1435 -455 390 -262 689 -675
859 -1185 172 -518 232 -1316 145 -1925 -107 -752 -445 -1373 -956 -1757 -408
-306 -946 -513 -1487 -570 -64 -7 -116 -16 -116 -20 0 -4 8 -8 18 -8 42 0 403
-97 578 -155 484 -161 841 -370 1120 -657 189 -194 329 -410 449 -693 198
-467 274 -895 345 -1945 46 -676 88 -1001 176 -1360 45 -182 92 -285 168 -367
75 -81 139 -113 250 -124 142 -14 226 18 324 125 97 107 167 263 232 520 63
250 93 511 106 938 l7 218 65 0 65 0 -6 -297 c-13 -650 -93 -1088 -271 -1483
-175 -390 -412 -647 -741 -805 -381 -183 -859 -224 -1281 -110 -596 161 -1003
726 -1189 1649 -113 561 -158 1098 -190 2256 -26 945 -39 1151 -86 1368 -82
377 -259 636 -512 746 -157 69 -473 97 -1027 91 l-275 -3 0 -2859 0 -2858 110
-12 c153 -16 612 -35 775 -31 l135 3 -3 -60 c-2 -33 -5 -72 -8 -88 l-6 -27
-2119 0 -2119 0 0 29 c0 15 3 55 6 87 l6 59 312 2 c281 1 554 14 675 32 l46 6
3 5766 2 5766 -112 6 c-62 4 -225 9 -363 12 -137 3 -323 8 -412 11 l-163 6 0
38 c0 20 3 58 6 84 l7 46 2081 3 c2397 4 2764 2 2936 -13z m-55580 -74 l0 -84
-132 -6 c-73 -3 -268 -8 -433 -11 -165 -3 -345 -8 -399 -12 l-99 -6 5 -5759
c3 -3167 8 -5761 11 -5764 11 -11 750 -21 982 -13 273 9 354 19 478 60 191 62
357 169 535 343 177 173 326 374 539 731 503 841 920 1942 1249 3295 96 391
163 599 241 743 27 48 27 48 34 23 13 -48 28 -278 31 -471 2 -104 2 -1258 0
-2562 l-2 -2373 -3665 0 -3665 0 0 84 0 84 519 4 c286 2 523 7 528 12 13 12
21 4129 15 8007 l-5 3566 -291 7 c-160 3 -398 9 -528 13 l-238 6 0 84 0 83
2145 0 2145 0 0 -84z m-12465 64 c390 -19 790 -81 1105 -172 1122 -321 2080
-915 2854 -1768 447 -493 737 -912 1001 -1445 165 -334 254 -562 351 -899 153
-532 221 -1045 221 -1656 0 -807 -121 -1466 -402 -2185 -68 -173 -278 -594
-390 -780 -433 -716 -1051 -1392 -1720 -1880 -752 -548 -1610 -899 -2515
-1029 -367 -53 -470 -60 -890 -60 -416 0 -599 13 -935 64 -1210 186 -2266 743
-3231 1705 -906 903 -1489 2042 -1673 3265 -99 659 -91 1252 24 1922 119 689
409 1496 715 1988 329 527 955 1224 1530 1701 333 276 601 447 985 627 926
434 1988 650 2970 602z"/>
<path d="M63550 13444 c-256 -32 -413 -114 -603 -314 -287 -302 -502 -835
-642 -1593 -64 -353 -140 -943 -174 -1367 -46 -561 -54 -768 -91 -2285 -18
-724 28 -2387 85 -3120 79 -1002 240 -1874 442 -2389 156 -400 392 -700 648
-826 155 -76 243 -94 460 -94 300 0 446 42 632 183 379 287 642 919 817 1966
88 527 162 1339 186 2040 5 154 17 498 26 765 21 592 23 1299 6 1840 -7 223
-17 563 -23 755 -49 1689 -267 3042 -596 3699 -157 314 -383 562 -606 666
-113 53 -206 72 -377 75 -85 2 -171 1 -190 -1z"/>
<path d="M39645 13249 c-181 -6 -332 -12 -335 -15 -3 -3 -6 -2590 -8 -5748
l-3 -5742 268 -13 c653 -30 862 -26 1109 24 151 30 270 72 399 138 86 45 115
67 205 157 218 218 369 491 505 910 208 645 363 1601 430 2655 31 486 36 676
42 1424 17 2303 -85 3690 -347 4706 -81 315 -148 502 -256 715 -186 368 -404
575 -716 678 -315 105 -612 130 -1293 111z"/>
<path d="M75884 13203 l-171 -3 -6 -227 c-4 -124 -7 -1361 -7 -2748 l0 -2522
418 -7 c519 -8 672 4 862 69 268 91 438 259 595 588 216 453 293 1024 295
2167 0 745 -52 1236 -181 1694 -100 353 -207 555 -386 727 -181 174 -331 231
-687 259 -120 9 -305 10 -732 3z"/>
<path d="M7585 11264 c-186 -4 -601 -24 -658 -31 -27 -3 -45 -9 -40 -13 6 -6
382 -60 416 -60 4 0 7 -1651 7 -3670 0 -2018 -3 -3670 -7 -3670 -20 0 -409
-53 -412 -56 -11 -11 18 -15 155 -24 536 -35 2082 -38 2419 -6 455 44 721 131
1040 340 782 513 1283 1549 1375 2846 13 184 13 728 0 925 -43 662 -148 1242
-296 1642 -111 301 -305 632 -503 863 -483 562 -856 781 -1471 865 -307 41
-435 47 -1175 49 -396 2 -778 1 -850 0z m1910 -122 c246 -56 369 -136 516
-335 255 -343 361 -889 399 -2042 32 -995 18 -2460 -30 -3070 -25 -308 -70
-620 -120 -815 -88 -350 -244 -644 -455 -857 -84 -85 -113 -108 -175 -137
-139 -64 -180 -68 -622 -73 l-398 -5 0 3682 0 3682 398 -5 c354 -4 407 -7 487
-25z"/>
</g>
</svg>
