<?xml version="1.0" encoding="UTF-8" ?>
<!DOCTYPE svg PUBLIC "-//W3C//DTD SVG 1.1//EN" "http://www.w3.org/Graphics/SVG/1.1/DTD/svg11.dtd">
<svg width="754pt" height="177pt" viewBox="0 0 754 177" version="1.1" xmlns="http://www.w3.org/2000/svg">
<path fill="#000000" d=" M 0.00 0.00 L 754.00 0.00 L 754.00 177.00 L 0.00 177.00 L 0.00 159.31 C 28.85 159.40 57.70 159.33 86.55 159.35 C 86.50 142.23 86.54 125.12 86.53 108.00 C 86.49 103.72 86.76 99.42 86.12 95.17 C 84.15 98.52 83.50 102.39 82.54 106.10 C 78.76 120.82 73.86 135.56 65.15 148.16 C 62.28 152.28 58.18 156.12 52.96 156.67 C 48.08 157.06 43.18 156.82 38.29 156.73 C 38.04 111.36 38.11 65.99 38.17 20.63 C 42.32 20.49 46.48 20.39 50.65 20.33 C 50.63 19.81 50.59 18.77 50.57 18.25 C 33.71 18.26 16.85 18.19 0.00 18.28 L 0.00 0.00 Z" />
<path fill="#ffffff" d=" M 535.49 16.79 C 546.36 14.43 558.18 17.08 566.77 24.20 C 579.57 34.62 586.02 50.77 589.10 66.58 C 592.57 85.84 591.85 106.07 585.78 124.76 C 581.66 137.17 574.61 149.26 563.48 156.57 C 553.11 163.46 539.17 164.44 527.97 159.02 C 517.89 154.24 510.49 145.17 505.57 135.36 C 497.87 119.81 495.40 102.16 495.85 84.96 C 496.62 66.70 500.74 47.77 511.89 32.89 C 517.66 25.12 525.94 18.92 535.49 16.79 Z" />
<path fill="#ffffff" d=" M 0.00 18.28 C 16.85 18.19 33.71 18.26 50.57 18.25 C 50.59 18.77 50.63 19.81 50.65 20.33 C 46.48 20.39 42.32 20.49 38.17 20.63 C 38.11 65.99 38.04 111.36 38.29 156.73 C 43.18 156.82 48.08 157.06 52.96 156.67 C 58.18 156.12 62.28 152.28 65.15 148.16 C 73.86 135.56 78.76 120.82 82.54 106.10 C 83.50 102.39 84.15 98.52 86.12 95.17 C 86.76 99.42 86.49 103.72 86.53 108.00 C 86.54 125.12 86.50 142.23 86.55 159.35 C 57.70 159.33 28.85 159.40 0.00 159.31 L 0.00 157.27 C 4.13 157.21 8.27 157.23 12.40 157.19 C 12.65 111.67 12.50 66.14 12.48 20.61 C 8.32 20.50 4.16 20.40 0.00 20.30 L 0.00 18.28 Z" />
<path fill="#ffffff" d=" M 92.04 20.24 C 90.04 17.89 93.79 18.34 94.94 18.22 C 122.69 18.29 150.44 18.18 178.19 18.28 C 178.17 35.78 178.18 53.28 178.19 70.78 C 177.77 70.82 176.92 70.91 176.50 70.95 C 173.90 58.17 171.10 45.04 164.25 33.74 C 160.39 27.25 153.86 21.99 146.16 21.22 C 140.73 20.75 135.25 20.80 129.83 21.27 C 129.81 43.08 129.83 64.90 129.81 86.71 C 135.48 86.93 142.39 87.16 146.18 82.09 C 152.19 73.85 153.55 63.36 154.65 53.50 C 155.86 54.29 156.29 55.59 156.12 57.00 C 156.11 77.70 156.11 98.40 156.12 119.10 C 156.30 120.50 155.82 121.77 154.63 122.57 C 153.56 112.69 152.71 101.85 146.04 93.91 C 142.09 89.17 135.45 89.18 129.81 89.41 C 129.85 111.77 129.77 134.12 129.85 156.47 C 137.27 156.58 145.03 157.56 152.21 155.22 C 158.17 153.04 162.40 147.92 165.51 142.60 C 172.10 131.35 175.90 118.74 179.01 106.16 C 179.59 104.17 179.66 101.82 181.38 100.41 C 181.78 120.04 181.40 139.70 181.58 159.34 C 151.64 159.33 121.70 159.41 91.77 159.30 C 91.79 158.61 91.80 157.92 91.82 157.24 C 95.97 157.25 100.14 157.32 104.26 156.76 C 104.25 111.40 104.33 66.03 104.22 20.66 C 100.17 20.42 96.09 20.54 92.04 20.24 Z" />
<path fill="#ffffff" d=" M 217.45 18.32 C 235.33 18.14 253.22 18.29 271.10 18.24 C 283.95 18.10 296.11 25.16 303.68 35.32 C 314.19 49.19 318.02 66.92 318.66 84.01 C 319.25 102.94 316.56 122.86 306.08 139.05 C 298.89 150.29 286.66 158.92 273.03 159.34 C 254.78 159.28 236.51 159.49 218.26 159.24 C 218.06 158.76 217.66 157.78 217.46 157.29 C 221.73 157.19 226.03 157.35 230.28 156.78 C 230.39 111.41 230.47 66.03 230.24 20.66 C 226.25 20.42 222.24 20.55 218.26 20.24 C 218.06 19.76 217.65 18.80 217.45 18.32 Z" />
<path fill="#ffffff" d=" M 320.26 18.25 C 348.98 18.22 377.71 18.26 406.44 18.23 C 406.35 35.98 406.60 53.73 406.30 71.47 C 405.18 70.97 404.55 70.13 404.42 68.96 C 402.12 57.71 399.45 46.33 394.00 36.14 C 390.39 29.41 384.56 23.28 376.84 21.63 C 370.74 20.47 364.48 21.01 358.32 21.10 C 358.16 42.98 358.33 64.86 358.23 86.74 C 363.79 86.91 370.53 87.15 374.35 82.31 C 380.19 74.17 382.13 63.89 382.72 54.08 C 383.14 54.14 383.98 54.25 384.40 54.31 C 384.33 76.81 384.36 99.32 384.38 121.83 C 383.96 121.85 383.11 121.90 382.69 121.92 C 382.14 112.38 380.75 102.12 374.74 94.33 C 370.91 89.25 364.01 89.18 358.25 89.38 C 358.30 111.31 358.21 133.25 358.28 155.18 C 357.88 156.74 359.86 156.67 360.81 156.68 C 366.59 156.58 372.46 157.13 378.16 155.93 C 384.65 154.47 389.62 149.47 393.00 143.96 C 400.91 131.18 404.81 116.47 408.43 102.02 C 408.75 101.63 409.38 100.84 409.70 100.45 C 410.04 120.07 409.69 139.71 409.87 159.34 C 379.96 159.35 350.05 159.38 320.14 159.32 C 320.17 158.80 320.23 157.75 320.26 157.23 C 324.36 157.27 328.47 157.29 332.54 156.74 C 332.49 111.36 332.68 65.98 332.45 20.61 C 328.34 20.50 324.23 20.39 320.13 20.32 C 320.16 19.80 320.23 18.77 320.26 18.25 Z" />
<path fill="#ffffff" d=" M 411.63 18.42 C 427.86 18.10 444.15 18.16 460.39 18.39 L 460.98 20.27 C 457.02 21.07 452.10 19.15 448.76 21.87 C 448.06 25.55 449.47 29.20 450.14 32.78 C 456.44 61.65 463.10 90.44 469.19 119.35 C 476.18 91.98 482.36 64.41 489.03 36.95 C 489.88 32.39 491.35 27.28 489.13 22.90 C 486.84 19.33 482.04 20.80 478.50 20.32 C 478.52 19.80 478.56 18.76 478.58 18.24 C 487.90 18.55 497.35 17.62 506.60 18.70 C 506.46 21.30 503.54 20.04 501.97 20.53 C 499.41 20.30 497.14 21.88 496.10 24.15 C 493.96 28.75 493.11 33.80 491.87 38.68 C 482.26 79.08 472.44 119.44 462.97 159.87 C 459.57 159.96 456.18 159.94 452.79 159.94 C 442.95 116.34 433.20 72.72 423.35 29.12 C 422.48 26.22 421.97 22.53 419.02 20.98 C 416.45 20.18 413.67 20.55 411.04 20.24 L 411.63 18.42 Z" />
<path fill="#000000" d=" M 539.50 18.81 C 543.11 17.99 547.40 17.93 550.42 20.42 C 555.67 24.56 557.62 31.32 559.13 37.54 C 562.12 51.48 562.74 65.82 562.90 80.04 C 563.60 90.39 562.74 100.76 562.60 111.11 C 561.91 122.98 561.17 135.04 557.58 146.46 C 555.88 151.65 553.12 157.47 547.57 159.37 C 543.62 160.26 538.94 160.19 535.79 157.30 C 530.99 153.16 529.32 146.72 527.87 140.82 C 524.15 123.80 524.41 106.28 523.93 88.96 C 524.35 75.28 524.20 61.54 526.10 47.95 C 527.07 40.66 528.30 33.22 531.60 26.57 C 533.31 23.26 535.90 20.11 539.50 18.81 Z" />
<path fill="#ffffff" d=" M 592.96 18.32 C 609.82 18.21 626.70 18.14 643.57 18.36 C 643.35 18.83 642.92 19.76 642.70 20.23 C 638.71 20.64 634.66 20.24 630.68 20.76 C 629.99 31.81 630.59 42.95 630.39 54.04 C 630.43 88.26 630.31 122.48 630.45 156.70 C 634.70 157.67 639.28 156.56 643.40 157.76 L 642.97 159.23 C 626.14 159.51 609.29 159.28 592.45 159.34 C 592.47 158.81 592.49 157.75 592.51 157.23 C 596.71 157.27 600.92 157.31 605.09 156.69 C 605.21 113.48 605.08 70.27 605.16 27.06 C 605.17 24.88 605.01 22.70 604.74 20.54 C 600.50 20.52 596.27 20.43 592.04 20.25 C 592.27 19.76 592.73 18.80 592.96 18.32 Z" />
<path fill="#ffffff" d=" M 647.22 18.24 C 663.47 18.23 679.73 18.24 695.99 18.24 C 704.61 18.02 713.71 18.23 721.43 22.59 C 728.94 26.60 733.44 34.65 734.79 42.86 C 736.61 53.80 736.17 66.07 729.53 75.43 C 723.87 83.44 714.08 87.42 704.55 88.12 C 713.79 89.96 723.62 93.64 728.63 102.19 C 736.66 115.72 732.87 132.28 737.21 146.85 C 737.91 148.94 739.61 151.01 742.04 150.85 C 744.54 151.18 746.19 148.86 747.06 146.85 C 749.30 141.40 749.43 135.38 749.52 129.57 C 749.89 129.57 750.64 129.57 751.01 129.58 C 751.19 138.11 750.53 147.29 745.59 154.56 C 740.69 161.67 730.70 163.62 722.84 161.03 C 715.50 158.42 711.93 150.63 710.28 143.55 C 707.47 130.89 707.96 117.79 707.34 104.90 C 707.14 99.33 705.92 92.10 699.88 90.02 C 695.10 88.87 690.08 89.42 685.21 89.24 C 685.27 111.74 685.20 134.25 685.24 156.75 C 689.25 157.29 693.29 157.27 697.33 157.23 C 697.26 157.93 697.20 158.64 697.15 159.34 C 680.46 159.34 663.76 159.38 647.07 159.32 C 647.11 158.80 647.18 157.75 647.21 157.23 C 651.30 157.27 655.41 157.28 659.48 156.78 C 659.48 111.40 659.57 66.02 659.44 20.65 C 655.31 20.48 651.18 20.39 647.05 20.32 C 647.09 19.80 647.18 18.76 647.22 18.24 Z" />
<path fill="#000000" d=" M 0.00 20.30 C 4.16 20.40 8.32 20.50 12.48 20.61 C 12.50 66.14 12.65 111.67 12.40 157.19 C 8.27 157.23 4.13 157.21 0.00 157.27 L 0.00 20.30 Z" />
<path fill="#000000" d=" M 255.81 20.76 C 262.44 20.84 269.40 19.82 275.75 22.23 C 281.18 24.32 283.87 29.97 285.57 35.16 C 289.02 46.45 289.67 58.35 290.34 70.06 C 290.78 91.76 291.36 113.75 286.89 135.12 C 285.20 141.84 283.42 149.35 277.83 153.95 C 271.33 158.17 263.06 156.43 255.75 156.46 C 255.69 111.23 255.58 65.99 255.81 20.76 Z" />
<path fill="#000000" d=" M 685.33 21.30 C 690.07 21.27 694.89 20.79 699.58 21.74 C 704.00 22.76 706.73 26.86 708.06 30.92 C 711.37 40.98 710.85 51.73 710.64 62.16 C 710.11 69.23 709.37 77.02 704.63 82.66 C 699.58 87.86 691.67 85.68 685.23 86.13 C 685.30 64.52 685.10 42.90 685.33 21.30 Z" />
</svg>
