<?xml version="1.0" encoding="utf-8"?>
<!-- Generator: Adobe Illustrator 19.0.0, SVG Export Plug-In . SVG Version: 6.00 Build 0)  -->
<svg version="1.1" xmlns="http://www.w3.org/2000/svg" xmlns:xlink="http://www.w3.org/1999/xlink" x="0px" y="0px" width="247.2px"
	 height="530.8px" viewBox="55 105 247.2 530.8" style="enable-background:new 55 105 247.2 530.8;" xml:space="preserve">
<style type="text/css">
	.st0{fill:#BE7A03;stroke:#000000;stroke-width:3.0709;stroke-linecap:square;stroke-linejoin:bevel;}
	.st1{opacity:0.15;fill:#C3C3C3;stroke:#000000;stroke-width:0.5;stroke-linecap:square;stroke-linejoin:bevel;}
	.st2{opacity:0.15;fill:#C3C3C3;stroke:#000000;stroke-width:0.5;stroke-miterlimit:10;}
	.st3{fill:none;stroke:#9D9D9D;stroke-width:3.0709;stroke-linecap:square;stroke-linejoin:bevel;}
	.st4{fill:none;}
	.st5{opacity:0.5;}
	.st6{fill:#5B5B5B;}
	.st7{font-family:'Roboto-Bold';}
	.st8{font-size:14px;}
	.st9{opacity:0.5;fill:#5B5B5B;}
	.st10{fill:#4C7D95;}
	.st11{fill:#FFFFFF;}
	.st12{fill:#000333;}
</style>
<g id="Calque_1" xmlns:inkscape="http://www.inkscape.org/namespaces/inkscape">
	<path vector-effect="none" class="st0" d="M200.3,883.4l-0.4,0.5l4.5,13.9l0.1,6.1l-1.4,3l-2.1,2.8l-6.4,5.9L190,918l-23.3,7.5
		l-9,5.3L-1.1,862.9l0.4-1.3l1.1-2l3.1-1.9l1.6-1.7l0.8-2.3l0.2-4.9l0.9-2.6l1.4-2.3l2.7-3.2l9.2-8.4l7.9-10.3l1.3-4.2l-2.2-6.6
		l0.1-6.2L29,796l1.4-5.3l3.1-5.5l6.5-5.4l3.2-21.6l28.9-42.1L85,697.6l10,3.2l-0.8,9.7l1.6,3.1l2.4,2.3l2.9,2.8l2,1.6L132,706
		l6.1,1.5l5.8,2.9l6.7,5.3l3.3,3.6l8.5,9.5l0.2,12.1l0.3,67.1l-0.6,14.9l-0.5,13.2l6.2,4l4,2.2l8.5,0.9l-0.1,5.1l-0.4,6.1l0.7,6.7
		l-2,6.8l3.1,5.4l1.5,2.2l1.1,1.7l3,2.6l2.5-2.5l3.6-0.3l3.1,0.2L200.3,883.4"/>
	<path vector-effect="none" class="st0" d="M345.2,829.9l4.2-4.7l3,0.4l1.4-3.6l2.7-3l3.1-4.9l3.5,0.2l2.5-1.4l5.7,2.5l10.1,6
		l12.3,3.6l11.4,5.2l4.5,0.8l11.1-1.2l4.9,0.2l6.9,2l5.2,2.7l3.2,1.9l5.7,2.1l4,0.6l2.9-0.4l6.4-2.8l14.8-9.9l3-0.7l2.2,1.7l1.6,7.2
		l0.3,4.3l1.8,2.5l2.6,0.7l4.9-1.1l4.7-1.3l3.5,1.3l2.4,1.6l1.9,1.3l1.3,1.6l3.3,5.6l0.9,3.4l-4.7,4.4l2,4.3l8.1-0.1l6,0.5l4.9,2.5
		l0.9,2.5l-1.6,2.2l-4,1.9l-20,5.7l-9.5,3.5l-57.8,25.9l-25.2,6.1l-10.8,5.2l-4.6-3.6l-3.3,3.2l1.3,4.7l2.1,3.6l-1,1.9l-4.1,1.9
		l-4.8,0.2l-4-1.6l-4.7-3.1l-3.5-3.8l-3.2-1.4l-5.3,2.2l-3.7,2l-4.3,4.4l-6.1,12.8l-5.2,8.4l-22.2,26.1l-5.8,5.2l-12.6,8.1l-7.7,6.1
		L251.8,975l-0.5-4.9l-0.9-7.8l0.4-8.3l2.9-11.1l5.5-8.9l-1.4-3.8l-9.3,4.2l2.5-6.1l12.1-9.5l2-1.5l4.7,2.2l3.3,1.5l8-6.1l1.7-2.4
		l0.1-2.3l-2,0.1l-7.4,3.4l-2-1l29.4-20.8l16.8-10.2l10.8-5.4l9.9-4.1l3.5-2.2l2.1-1.4l2.1-0.8l2.6,1.3l0.7,2l-2.2,6.1l-0.6,3.3
		l2.8,2.3l3.8,1.7l4,2.3l2.5-1.8l0.4-3.1l-3.1-3.9l0.8-2.2l2.7-2.2l20.7-6.6l9.6-2.1l0.1-2.4l-2.3-1.2l-3.8-0.2l-10.8-1.5l-35,0.5
		l-4.4,0.5l-9.4,2.3l-4.4-0.1l-2.5-0.8l0.4-2.8l2.1-3.7l17.1-15.8l5.1-5.9L345.2,829.9"/>
	<path vector-effect="none" class="st0" d="M450.1,799.4l-0.2,3.8l2,5.3l-2.1,5l-7.1,2.7l-7.6-1.3l-5.3-0.8l-4.3-3.4l-1.1-2.3
		L424,800l-1.9-2.6l-5.7-0.7l-9.8,4l-8.9-3.9l-9.6-0.7l-4-3.7l-3.7-5.9l-5.4-4.4l-2.3-0.7l-5.2,1l-4-1.8l-1.9-3.9l-0.8-6.3l-2.5-4.2
		l-4.5-2.1l-5.6-0.3l-1.7-2l0.1-8l5.1-5.3l3.9-8l7.1-5.8l4.2,0.5l1.3,3.8l-0.3,3.9l-3.8,6.7l-0.1,4.9l8.8,6.9l2.4,8.3l2.3,2.8
		l3.3-0.2l4.3-2.6l4.3,0l6.2,2.8l7.1,1.4l6.8,4.9l8.1,1.2l9.5-0.2l16.3-3.8l17.2-2.2l7.8,0.3l7.7,2.1l-0.9,2.9l-2.3,2.2l-11.1,2.8
		l-6.5,3.8l-2.3,7.5L450.1,799.4"/>
	<path vector-effect="none" class="st0" d="M365.7,812.8l-2.5,1.4l-3.5-0.2l-3.1,4.9l-2.7,3l-1.4,3.6l-3-0.4l-4.2,4.7l-4.1-0.5
		l-5.5,2l-9.3,8l-4.6,3.3L300.1,854l-27.4,16.6l-6.2,2.2l-4,0.6l-3.6-0.1l-4.1-1.3l-5.2,4.3l-4.8,3.1l-6.2,3.1l-4.5,1.4l-18,0.5
		l-2.9-0.6l-5.2-2.6l-2.5-0.5l-3.5,0.9l-1.8,1.9l-3.5-6.4l-3.1-0.2l-3.6,0.3l-2.5,2.5l-3-2.6l-1.1-1.7l-1.5-2.2l-3.1-5.4l2-6.8
		l-0.7-6.7l0.4-6.1l0.1-5.1l-8.5-0.9l-4-2.2l-6.2-4l0.5-13.2l0.6-14.9l-0.3-67.1l-0.2-12.1l-8.5-9.5l-3.3-3.6l-6.7-5.3l-5.8-2.9
		L132,706l-28.9,14.2l-2-1.6l-2.9-2.8l-2.4-2.3l-1.6-3.1l13.7-4.1l12.5-6.3l9.9-9.9l0.2-29.3l14,0l0-6.7l28.4,0l-0.5,5.2l12.3,6.1
		l10.3-1.1l6.7-4.7l6.9-3.3l4.1-1.9l4.1,0.6l6.1-1.6l7.9-3.2l2.8-2.7l5.5-0.2l-2.4,3.8l2.2,2.5l20.1,6.1l8.1,1.6l5.3,3.9l4.7,9.5
		l3.1,4.5l5.5,0.5l2.7-1.9l13.5-7.6l9.5-0.8l5.5-1.1l5.8,1.6l2.2,5.1l-0.3,6.3l-1.6,5.6l-2.5,7.5l-4.8,10.6l-3.5,6.3l-4.2,6.1
		l-9,10.8l9.4,1.3l5.4,1.4l4.3,2.8l1.2,1.9l0.9,3.8l0.2,7.4l0.9,3.7l5.4,10.7l3.5,12.1l2.2,5.6l2.7,5.4l3.6,5l3.2,2.5l4.1,1.8
		l15.1,4.9l14.4,3.3l2,0.8l1.2,1.9l-1.7,1.3l-4.8,1.8l-6.2,1.1l-1.9,1.5L365.7,812.8"/>
	<path vector-effect="none" class="st0" d="M334.8,674.3l-1.8,1.9l-3.2-1.7l-1.2-3.9l0.4-2.2l2-1.4l6.3-0.3l2.3,1.1l0.1,2.2
		l-3.4,2.3L334.8,674.3"/>
	<path vector-effect="none" class="st0" d="M558.9,783.3l1.5,1.7l6.9,3.1l2.1,2l2.8,2.4l2.7,0.6l2.1-0.6l4.1,1.2l4.1,2l4,3.9
		l1.6,4.3l0.9,6.9l-0.4,3.9l-1.4,2.3L571.8,832l-6.8,4.8l-4.6,2.5l-4.7,1.8l-6.5,1.3l-6.5,0.1l-6.3-1.2l-6.1,0.7l-10.8,3l-3.5-0.7
		l-5.3-2l-1.9-2.2l-5.3-12.4l-2-9.2l0.1-7.3l1.9-5.5l3.2-5.4l9.5-11l5.6-8.2l3.6-6.6l7.5-16.3l5.5-9l7-8.2l5-8.3l3.9-1.3l3.4,0.9
		l3-0.6l1.9,2.2l-1.9,2.9l-1.4,3.6l0.8,2.2l4.6,5.9l0.7,2.2l0.3,3.9l-1.2,6.7l-5.2,15l-0.8,5.2L558.9,783.3"/>
	<path vector-effect="none" class="st0" d="M479.9,718.3l-4.2-1.4l-0.4-3.2l0.3-4.6l1-4.2l1.5-3l3.7-4.3l12.8-11.6l5.6-3.4l4-0.4
		l2,0.8l2.1,2.3l0.9,2.1l0,2.3l-7.3,1.3l-6.7,3.1l-2,1.9l-3.7,6l-3.9,3.4l-1.8,1.7l-0.1,2.5l3.7,3.5l1.2,1.8l-0.6,2.4l-2.2,1.3
		l-2.3,0.3L479.9,718.3"/>
	<path vector-effect="none" class="st0" d="M419.6,555.4l-8.5-4.1l-10.3-6.7l-7.1-5.9l-12.4-12.8l-6-5.2l-28.6-17.1l-4.9-4l5.2-1.8
		l6.1-1l11.7,0.2l39.5,9l12.6,4.2l13.5,5.9l15.3,8.6l19.5,13.9l18.1,11.1l4.7,3.8l4,4.3l-0.7,2.4l-2.1,1.8l-6,2.8l-6.9,1.2l-7.3,0.1
		l-31.5-5.3l-8.9-2.2L419.6,555.4"/>
	<path vector-effect="none" class="st0" d="M802.7,383.8l2,2.2l5.5,3.7l1.4,3.3l0,2.5l-1.4,5.6l-2.6,5.8l-4.6,6.8l-3.2,3.2l-7.3,4.4
		l-2,2.7l-4.8,16.8l-3.3,8.9l-4.7,9.5l-12.4,21.6l-3.4,7.7l-3.2,13.2l-1.5,9l1.3,3.5l2.4,0.4l1.9-2.3l20.2-22.3l5.5-3.8l4.6-0.6
		l7,2.1l14.9,2.5l4.2,1l2.7,1.9l-0.2,2.4l-2.6,3.2l-3.1,3.2l-10.3,7.6l-1.7,2l-0.8,3.3l1.5,6.2l3.8,6.5l4.5,4.1l5,2.7l11.1,4.3
		l5,2.7l4.6,3.8l1.2,3.3l-97.2,139l-5.2-0.6l-14.9-2.8l-28.6-4.1l-10.9-0.7l-14.4,1.2l-15.3,2.8l-5.3,2.3l-7.1,2.1l-5.9,0.1
		l-4.5-0.7l-2.4-1.5l-1.4-2l-3.4-6.8l-2.4-10.6l0.6-6.2l4.3-6.3l12.9-11.2l6.8-6.9l12.2-14.5l9.6-3l-1.7-5.1l-6.7-2.2l-14.8,1.6
		l-8.3,0.2l-6.6,2.4l-4.2-1.3l-0.7-5.2l10-7.5l6.3-6.7l4.5,2.5l-3.2,7.9l7.7,2.2l4.1-3.7l3.1-8.8l9.1-14.6l5.1-6.1l2.8-2.4l4.7-2.5
		l4.1-0.6l2.5,0.5l3-5.3l0.6-4.1l-1.2-2.1l-4.9-3.7L681,551l-0.9-3.7l0.2-5.1l0.9-4l1.4-2.7l8.6-10.7l14.2-31.8l16.8-45l7.5-15.7
		l2.4-4.2l11.6-15.2l8.8-15.3l5.1-10.6l5.1-7.3l5.5-5.6l16.2-8.6l14.8-9.2l6.1-1l5.9,0.8l8.8,0.2l4.1,0.7l4.9,2l-0.7,3l-5.5,6.6
		l-4.9,4l-11,6.5l-3.3,1.3L802.7,383.8"/>
	<path vector-effect="none" class="st1" d="M738.1,368.2l2.4-49.8l-99,0.1l-70.1,0l-88.8,0.1l-104.2-0.1l-0.7-3.2l1.3-2.7l2.2-1.7
		l1.9-3.6l0.4-2.7l-0.5-3.5l-1.7-3.5l-3.5-5.1l-9.1-6.6l-2.1-2.6l-2-4.2l-0.4-2.9l0.6-3l1.5-2.8l2.1-2.3l3.8-2.6l6.8-2.3l12.8-2.2
		l3.3-0.9l2.4-1.8l-0.3-3.5l-3.2-5l-4.5-4.3l-3.3-0.9l-2.9,0.9l-8,4.1l-11.5,4.4l-2.7,1.8l-2.9,4.3l-1.8,7l0.8,12.6l-0.4,5.7
		l-3.1,20.7l-3.9,17.1l-0.3,7.7l0.7,9.1l-0.4,3.1l-2.1,4l-2.3,2.1l-2.7,1.4l-4.3,0.4l-2.7-1.1l-7.7-6.6l-4.1-2.2l-3.9-0.8l-5.5,0.7
		l-2.8-0.2l-5.7-2.2l-3.6-3.2l-11.3-14.2l-3.4-3.4l-4.3-2.5l-11.4-4.5l-3.3-0.9l-7.3-0.4l-2.9-1.1l-3.6-3.1l-4.6-5.9l-2.3-1.6
		l-2.7,0l-1.5,2.1l-1.9,2.2l-2.6,0l-1.9-2.4l-1.6-2.9l-1.1-6.2l3.2-11.9l-0.6-12.6l0.3-3.5l3.2-8.9l0.9-7.4l1.5-6.2l-0.2-3l-1-3
		l-1.5-2.8l-2.7-2.4l-3.3-0.6l-2.5,1.4l-2.2,2l-3.4,5l-2.9,9.1l-1.7,3.2l-3.7,3.5l-3.2,1.2l-3.1,0l-3.2-0.7l-5.9-2.8l-9.8-7l-4.5-5
		l-1.6-3.3l-1.4-5.5l-0.2-3.7l0.6-3.4l1.6-2.7l2.5-2l2.9-0.9l7.5-1.1l3.7-2.4l1.7-3l1.6-5.4l1.5-12.8l-1.7-4l-3.3-3.4l-2.9-1.7
		l-9.8-3.9l-3.9-3.5l-9.8-14.1l-5.3-12l-7.8-11.2l-1.3-4.7l0.6-5.2l3.9-7.6l0.9-3.3l-0.3-5.5l-1.7-8.7l0.8-4.2l3-2.9l5.1-2.6
		l5.6-1.5l6.5-0.5l2.3-1.1l1.9-2.6l6.1-11l0.2-3.2l-0.9-3.3l-9.5-14.5l-3.5-7l-1.1-4.2l-0.1-2.8l2.3-2.1l2.9,0.4l3.2,1.8l4.1,4.2
		l12.2,14.6l4.4,4l6,3.2l3.4-0.1l2.4-2.4l0.5-4.7l-5.7-19.2l-2-20.6l0.2-3.2l3.4-0.7l3.3,1.8l4.1,3.6l13.4,16.4l4.4,4.4l15.6,8.7
		l3.1,2.2l2.3,2.6l6.3,10.6l4,3.4l4.5,0.6l4.6-1.4l19.3-15.1l3.7-1.8l2.7-0.2l2.9,0.7l2.7,1.5l8.9,9.8l4.3,3.1l4.8,1.5l9.9-0.9
		l4.7,0.8l6.1,3.4l7.3,6.7l3.1,2.1l2.9,0.8l4.5,0l4.4-1.7l1.4-2.1l-0.7-4l-3.7-8.9l0-3.6l1.4-4.3l1.7-2.8l2.5-1.5l7-1.4l1.9-2.2
		l1.2-3.2l2.5-18.9l-0.5-2.8l-2.2-4.1l0-2.7l1.6-2.3l5-3.2l3.2-1.5l-0.6-2.7l-3.1-1.1l-6.8-1.7l-3.1-1.1l-2.8-2l-1.1-2.8l0.1-3.1
		l1.2-8.4l-0.3-8.5l-1.3-8.2l-2.3-6.4l-0.4-2.7l1.8-3.4l8.3-6.6l0.5-3.2l-2.9-2.1l-10.3-3.6l-4.8-2.9l-2.3-4.1l0.2-4.9l-0.4-3.1
		l-6.4-6.9l-1.1-4.3l0.3-3l1.2-2.6l5.7-4.1l1.5-2.5l-0.2-2.9l-1.1-3.2l-6.5-12.9l-0.4-5.4l2.1-7l5.5-9.2l1.8-5.5l1.7-16.7
		l107.3,59.3l-10.8,4.8l-3.1,3.7l1.2,3.8l12.6,3.9l8.4,11.2l4.7,2.6l6.4,2.2l4.5,3.1l4.1,7.4l2.2,10.2l2.3,2.7l19.5,11.5l3.2,1
		l4.7,2.6l5.2,1.7l14.3,0.3l2.9,0.2l2.2,1.5l0.8,2.9L564.6-11l0.9,11l-6.2,17.7l0.3,2.8l2.5,2.6l4.9,1.4l7.7,0.4l7.6,0.2l7.3-3.1
		l4.4-1.2l2.8,1.7l2,3.4l3.1,5.4l4.3,3.1l9.1,0.7l4.8-1.1l4.4-4.6l2-2l5.7,1.7l3.7,3.2l3.4,5.5l2.5,4l0.3,4.9l1.9,6l2.9,5.5l4.7,2.7
		l5.7,2.7l6.1,0.9l7.2-0.1l4.5-1.2l5.5-3.2l7.4-3l4.4,1.5l2.8,2.5l1.9,2.3l2.1,4.1l2.8,3.9l2.9,2.3l4.9,2.9l6,1.3l5.6,1.3l3.8,2.5
		l0.3,3.6l1,4.1l-1.5,4.8l-8.1,5.3l-9.2,1.1l-12.5,3l-15.9,6.3l-10.4,4.2l-8.5,6.2l-11.1,9.5l-8.3,5.4L620,146.5l-11.3,5.7l-8.9,2.7
		l-9.4,1.6l-6.2,4.7l-4.4,7.7l-3.2,12.9l-1.3,5.5l-6.5,6.7l0.2,9.3l9.5-4.8l27.6-16.7l23.8-16.8l16.3-16.4l14.2-7.2l17.4-15.5
		l6.9-3.6l6.6-1.6l12-0.7l11.4,2.6l6.4,5l5.5,5.3l5,9.5l2.5,8.8l0,8.7l-3.7,11.9l-0.2,4.2l1.9,2.2l2.7,0.6l2.8-1.6l5-4l3.8-4.7
		l5.4-2l7.7-0.3l8.3,1.6l7.8,3l6.5,3.8l8.4,7.1l7.3,8.1l5.9,8.6l4.4,9.1l2.4,10.5l1.7,29l4.7,29.5l0.7,15.2l-1.5,9.1l-3.5,8.9
		l-5.3,8.6l-7.3,12.7l-10,8.5l-21.3,14.1L751,366.9l-4.2,1.2l-6.2-0.1L738.1,368.2"/>
	<path vector-effect="none" class="st2" d="M-175.5-397.2l549.5,239l-1.7,16.7l-1.8,5.5l-5.5,9.2l-2.1,7l0.4,5.4l6.5,12.9l1.1,3.2
		l0.2,2.9l-1.5,2.5l-5.7,4.1l-1.2,2.6l-0.3,3l1.1,4.3l6.4,6.9l0.4,3.1l-0.2,4.9l2.3,4.1l4.8,2.9l10.3,3.6l2.9,2.1l-0.5,3.2l-8.3,6.6
		l-1.8,3.4l0.4,2.7l2.3,6.4l1.3,8.2l0.3,8.5L383-3.7l-0.1,3.1l1.1,2.8l2.8,2l3.1,1.1l6.8,1.7l3.1,1.1l0.6,2.7l-3.2,1.5l-5,3.2
		l-1.6,2.3l0,2.7l2.2,4.1l0.5,2.8l-2.5,18.9l-1.2,3.2l-1.9,2.2l-7,1.4l-2.5,1.5l-1.7,2.8l-1.4,4.3l0,3.6l3.7,8.9l0.7,4l-1.4,2.1
		l-4.4,1.7l-4.5,0l-2.9-0.8l-3.1-2.1l-7.3-6.7l-6.1-3.4l-4.7-0.8l-9.9,0.9l-4.8-1.5l-4.3-3.1l-8.9-9.8l-2.7-1.5l-2.9-0.7l-2.7,0.2
		l-3.7,1.8l-19.3,15.1l-4.6,1.4l-4.5-0.6l-4-3.4l-6.3-10.6l-2.3-2.6l-3.1-2.2l-15.6-8.7l-4.4-4.4l-13.4-16.4l-4.1-3.6l-3.3-1.8
		l-3.4,0.7l-0.2,3.2l2,20.6l5.7,19.2l-0.5,4.7l-2.4,2.4l-3.4,0.1l-6-3.2l-4.4-4l-12.2-14.6l-4.1-4.2l-3.2-1.8l-2.9-0.4l-2.3,2.1
		l0.1,2.8l1.1,4.2l3.5,7l9.5,14.5l0.9,3.3l-0.2,3.2l-6.1,11l-1.9,2.6l-2.3,1.1l-6.5,0.5l-5.6,1.5l-5.1,2.6l-3,2.9l-0.8,4.2l1.7,8.7
		l0.3,5.5l-0.9,3.3l-3.9,7.6l-0.6,5.2l1.3,4.7l7.8,11.2l5.3,12l9.8,14.1l3.9,3.5l9.8,3.9l2.9,1.7l3.3,3.4l1.7,4l-1.5,12.8l-1.6,5.4
		l-1.7,3l-3.7,2.4l-7.5,1.1l-2.9,0.9l-2.5,2l-1.6,2.7l-0.6,3.4l0.2,3.7l1.4,5.5l1.6,3.3l4.5,5l9.8,7l5.9,2.8l3.2,0.7l3.1,0l3.2-1.2
		l3.7-3.5l1.7-3.2l2.9-9.1l3.4-5l2.2-2l2.5-1.4l3.3,0.6l2.7,2.4l1.5,2.8l1,3l0.2,3l-1.5,6.2l-0.9,7.4l-3.2,8.9l-0.3,3.5l0.6,12.6
		l-3.2,11.9l1.1,6.2l1.6,2.9l1.9,2.4l2.6,0l1.9-2.2l1.5-2.1l2.7,0l2.3,1.6l4.6,5.9l3.6,3.1l2.9,1.1l7.3,0.4l3.3,0.9l11.4,4.5
		l4.3,2.5l3.4,3.4l11.3,14.2l3.6,3.2l5.7,2.2l2.8,0.2l5.5-0.7l3.9,0.8l4.1,2.2l7.7,6.6l2.7,1.1l4.3-0.4l2.7-1.4l2.3-2.1l2.1-4
		l0.4-3.1l-0.7-9.1l0.3-7.7l3.9-17.1l3.1-20.7l0.4-5.7l-0.8-12.6l1.8-7l2.9-4.3l2.7-1.8l11.5-4.4l8-4.1l2.9-0.9l3.3,0.9l4.5,4.3
		l3.2,5l0.3,3.5l-2.4,1.8l-3.3,0.9l-12.8,2.2l-6.8,2.3l-3.8,2.6l-2.1,2.3l-1.5,2.8l-0.6,3l0.4,2.9l2,4.2l2.1,2.6l9.1,6.6l3.5,5.1
		l1.7,3.5l0.5,3.5l-0.4,2.7l-1.9,3.6l-2.2,1.7l-1.3,2.7l0.7,3.2l104.2,0.1l88.8-0.1l70.1,0l99-0.1l-2.4,49.8l-6.7-1.9l-7.7-0.7
		l-9.2,1.1l-8.6,2.4l-5.3,2.4l-9.9,6.6l-11.2,5.5l-14.1,11.1l-15.3,7.7l-5.6,3.8l-4.6,5l-8.9,13.2l-7.8,9.7l-7.2,7l-9.8,7.8
		l-9.1,5.1l-9.5,10.7l-5.9,4.1l-13.2,2.8l-19.5,1.9l-18.6-1.1l-15.8,1.4l-16.3,3.3l-4.5,0.2l-5.3-0.8l-6.3-2.8l-9.5-3l-19.1-3.6
		l-11.7-0.7l-14.1,0.1l-26.6,1.9l-7-0.4l-4.6-1l-6.9-1.2l-5.8-0.1l-41.2,0.4l-52.1-1.3l-10.3,1.1l-18.8,4l-12.2,2.4l-3,0.4
		l-13.4,3.6l-9.5,6.4l-3.7,3.6L197.1,509l-2.4,5.5l-5.3,18.8l-1.8,3.6l-3.3,4.1l-4,3l-6.5,2.8l-5.6,1.2l-17,2.1l-5.9,1.9l-3.1,1.9
		l-2.5,3.2l-6.2,6.5l-10.6,5.6l-11.5,9.2l-10.6,8.9l-6.2,6.6l-17.4,26.2l-17.9,23.3l-10.9,24l-5.2,8.3l-12.8,14.7L16.6,704L3.9,722
		l-15.1,14l-9,11.4l15.2-6l12.4-5.9l7.7-4.8l7.6-6.4l10.5-11.9l12.2-15.5l28-39.1l13.8-15.3l11.5-10.8l15.7-11.5l26.9-17.2
		l32.9-17.3l2.1-1.1l22.5-10.1l22.3-8.9L241,559l16-4.1l17.8-3.2l12.3-0.7l13.3,1.2l13.3,2.8l6.4,2.1l9.4,4.5l14.4,9.7l4.9,4.5
		l3.8,4.5l1.3,6.1l-3.2,3.6l-1.8,2.6l1.9,3.2l3.4,3.5l0.6,4.7l-1.3,3.3l-2,3.2l-5.1,6.1l-5.1,4.3l-5.8,3.8l-5.1,2.4l-10.7,11.2
		l-6.5,5.5l-7,4.9l-8.4,3.9l-5.9,0.5l-5.1-1.2l-8.2-3.7l-8.5-5.7l-5.6-2.3l-2.9-0.3l-6.9,3.7l-15.8,3.7l-5.5,0.2l-2.8,2.7l-7.9,3.2
		L217,655l-4.1-0.6l-4.1,1.9l-6.9,3.3l-6.7,4.7l-10.3,1.1l-12.3-6.1l0.5-5.2l-28.4,0l0,6.7l-14,0l-0.2,29.3l-9.9,9.9l-12.5,6.3
		l-13.7,4.1l0.8-9.7l-10-3.2l-12.9,18.5l-28.9,42.1L40,779.8l-6.5,5.4l-3.1,5.5L29,796l-1.6,9.1l-0.1,6.2l2.2,6.6l-1.3,4.2
		l-7.9,10.3l-9.2,8.4L8.3,844L7,846.3l-0.9,2.6l-0.2,4.9l-0.8,2.3l-1.6,1.7l-3.1,1.9l-1.1,2l-0.4,1.3l-467.3-151.1l-6.4-9.6
		l-0.7-3.9l3.6-8.5v-73.2"/>
	<path vector-effect="non-scaling-stroke" d="M559,660.8v1.1h-3.1v8.2h-1.3v-8.2h-3.1v-1.1H559 M562.8,663.5c0.5,0.2,0.8,0.5,1,0.9
		c0.2,0.3,0.4,0.7,0.5,1.2c0.1,0.3,0.1,0.8,0.1,1.5h-5c0,0.7,0.2,1.2,0.5,1.7c0.3,0.4,0.8,0.6,1.4,0.6c0.6,0,1.1-0.2,1.4-0.6
		c0.2-0.2,0.3-0.5,0.4-0.8h1.1c0,0.2-0.1,0.5-0.3,0.8c-0.2,0.3-0.4,0.6-0.6,0.7c-0.3,0.3-0.8,0.6-1.3,0.7c-0.3,0.1-0.6,0.1-0.9,0.1
		c-0.8,0-1.6-0.3-2.1-0.9c-0.6-0.6-0.9-1.5-0.9-2.6c0-1.1,0.3-2,0.9-2.7c0.6-0.7,1.4-1,2.3-1C561.9,663.2,562.4,663.3,562.8,663.5
		 M563.2,666.2c0-0.5-0.2-0.9-0.3-1.2c-0.3-0.5-0.8-0.8-1.6-0.8c-0.5,0-1,0.2-1.3,0.6c-0.4,0.4-0.5,0.9-0.6,1.4H563.2 M565.8,663.3
		h1.1v1.2c0.1-0.2,0.3-0.5,0.7-0.8c0.3-0.3,0.7-0.5,1.2-0.5c0,0,0.1,0,0.1,0c0.1,0,0.1,0,0.3,0v1.2c-0.1,0-0.1,0-0.2,0s-0.1,0-0.2,0
		c-0.6,0-1,0.2-1.3,0.6c-0.3,0.4-0.5,0.8-0.5,1.3v3.9h-1.1V663.3 M570.2,663.3h1.1v1.2c0.1-0.2,0.3-0.5,0.7-0.8s0.7-0.5,1.2-0.5
		c0,0,0.1,0,0.1,0c0.1,0,0.1,0,0.3,0v1.2c-0.1,0-0.1,0-0.2,0s-0.1,0-0.2,0c-0.6,0-1,0.2-1.3,0.6c-0.3,0.4-0.5,0.8-0.5,1.3v3.9h-1.1
		V663.3 M578.7,663.5c0.5,0.2,0.8,0.5,1,0.9c0.2,0.3,0.4,0.7,0.5,1.2c0.1,0.3,0.1,0.8,0.1,1.5h-5c0,0.7,0.2,1.2,0.5,1.7
		c0.3,0.4,0.8,0.6,1.4,0.6c0.6,0,1.1-0.2,1.4-0.6c0.2-0.2,0.3-0.5,0.4-0.8h1.1c0,0.2-0.1,0.5-0.3,0.8c-0.2,0.3-0.4,0.6-0.6,0.7
		c-0.3,0.3-0.8,0.6-1.3,0.7c-0.3,0.1-0.6,0.1-0.9,0.1c-0.8,0-1.6-0.3-2.1-0.9c-0.6-0.6-0.9-1.5-0.9-2.6c0-1.1,0.3-2,0.9-2.7
		c0.6-0.7,1.4-1,2.3-1C577.7,663.2,578.2,663.3,578.7,663.5 M579.1,666.2c0-0.5-0.2-0.9-0.3-1.2c-0.3-0.5-0.8-0.8-1.6-0.8
		c-0.5,0-1,0.2-1.3,0.6c-0.4,0.4-0.5,0.9-0.6,1.4H579.1 M581.3,665.9h3.2v1.2h-3.2V665.9 M586.1,660.8h1.5l4.7,7.5v-7.5h1.2v9.3
		h-1.4l-4.8-7.5v7.5h-1.2V660.8 M599.5,663.5c0.5,0.2,0.8,0.5,1,0.9c0.2,0.3,0.4,0.7,0.5,1.2c0.1,0.3,0.1,0.8,0.1,1.5h-5
		c0,0.7,0.2,1.2,0.5,1.7c0.3,0.4,0.8,0.6,1.4,0.6c0.6,0,1.1-0.2,1.4-0.6c0.2-0.2,0.3-0.5,0.4-0.8h1.1c0,0.2-0.1,0.5-0.3,0.8
		s-0.4,0.6-0.6,0.7c-0.3,0.3-0.8,0.6-1.3,0.7c-0.3,0.1-0.6,0.1-0.9,0.1c-0.8,0-1.6-0.3-2.1-0.9c-0.6-0.6-0.9-1.5-0.9-2.6
		c0-1.1,0.3-2,0.9-2.7c0.6-0.7,1.4-1,2.3-1C598.6,663.2,599.1,663.3,599.5,663.5 M599.9,666.2c0-0.5-0.2-0.9-0.3-1.2
		c-0.3-0.5-0.8-0.8-1.6-0.8c-0.5,0-1,0.2-1.3,0.6c-0.4,0.4-0.5,0.9-0.6,1.4H599.9 M603.7,663.3v4.5c0,0.3,0.1,0.6,0.2,0.8
		c0.2,0.4,0.6,0.6,1.1,0.6c0.8,0,1.3-0.4,1.6-1.1c0.2-0.4,0.2-0.9,0.2-1.6v-3.3h1.1v6.8h-1.1l0-1c-0.1,0.3-0.3,0.5-0.6,0.7
		c-0.4,0.4-1,0.5-1.6,0.5c-1,0-1.6-0.3-2-1c-0.2-0.3-0.3-0.8-0.3-1.4v-4.6H603.7 M610.3,663.3l1.8,5.5l1.9-5.5h1.2l-2.6,6.8h-1.2
		l-2.5-6.8H610.3 M620.4,663.5c0.5,0.2,0.8,0.5,1,0.9c0.2,0.3,0.4,0.7,0.5,1.2c0.1,0.3,0.1,0.8,0.1,1.5h-5c0,0.7,0.2,1.2,0.5,1.7
		c0.3,0.4,0.8,0.6,1.4,0.6c0.6,0,1.1-0.2,1.4-0.6c0.2-0.2,0.3-0.5,0.4-0.8h1.1c0,0.2-0.1,0.5-0.3,0.8c-0.2,0.3-0.4,0.6-0.6,0.7
		c-0.3,0.3-0.8,0.6-1.3,0.7c-0.3,0.1-0.6,0.1-0.9,0.1c-0.8,0-1.6-0.3-2.1-0.9c-0.6-0.6-0.9-1.5-0.9-2.6c0-1.1,0.3-2,0.9-2.7
		c0.6-0.7,1.4-1,2.3-1C619.5,663.2,620,663.3,620.4,663.5 M620.8,666.2c0-0.5-0.2-0.9-0.3-1.2c-0.3-0.5-0.8-0.8-1.6-0.8
		c-0.5,0-1,0.2-1.3,0.6c-0.4,0.4-0.5,0.9-0.6,1.4H620.8 M623.1,665.9h3.2v1.2h-3.2V665.9 M631.9,663.5c0.5,0.2,0.8,0.5,1,0.9
		c0.2,0.3,0.4,0.7,0.5,1.2c0.1,0.3,0.1,0.8,0.1,1.5h-5c0,0.7,0.2,1.2,0.5,1.7c0.3,0.4,0.8,0.6,1.4,0.6c0.6,0,1.1-0.2,1.4-0.6
		c0.2-0.2,0.3-0.5,0.4-0.8h1.1c0,0.2-0.1,0.5-0.3,0.8c-0.2,0.3-0.4,0.6-0.6,0.7c-0.3,0.3-0.8,0.6-1.3,0.7c-0.3,0.1-0.6,0.1-0.9,0.1
		c-0.8,0-1.6-0.3-2.1-0.9c-0.6-0.6-0.9-1.5-0.9-2.6c0-1.1,0.3-2,0.9-2.7c0.6-0.7,1.4-1,2.3-1C631,663.2,631.5,663.3,631.9,663.5
		 M632.4,666.2c0-0.5-0.2-0.9-0.3-1.2c-0.3-0.5-0.8-0.8-1.6-0.8c-0.5,0-1,0.2-1.3,0.6c-0.4,0.4-0.5,0.9-0.6,1.4H632.4 M635.2,661.4
		h1.2v1.9h1.1v0.9h-1.1v4.4c0,0.2,0.1,0.4,0.2,0.5c0.1,0,0.2,0.1,0.4,0.1c0.1,0,0.1,0,0.2,0c0.1,0,0.1,0,0.2,0v0.9
		c-0.1,0-0.3,0.1-0.4,0.1c-0.1,0-0.3,0-0.5,0c-0.5,0-0.9-0.1-1.1-0.4c-0.2-0.3-0.3-0.6-0.3-1.1v-4.5h-0.9v-0.9h0.9V661.4
		 M638.2,665.9h3.2v1.2h-3.2V665.9 M643,660.8h1.3v8.2h4.7v1.1h-6V660.8 M651.3,669.1c0.2,0.2,0.5,0.3,0.9,0.3
		c0.4,0,0.8-0.1,1.2-0.3c0.6-0.3,0.9-0.8,0.9-1.5v-0.9c-0.1,0.1-0.3,0.2-0.5,0.2c-0.2,0.1-0.4,0.1-0.6,0.1l-0.7,0.1
		c-0.4,0.1-0.7,0.1-0.9,0.3c-0.3,0.2-0.5,0.5-0.5,0.9C650.9,668.6,651,668.9,651.3,669.1 M653.7,666c0.3,0,0.4-0.1,0.5-0.3
		c0.1-0.1,0.1-0.2,0.1-0.4c0-0.4-0.1-0.7-0.4-0.8c-0.3-0.2-0.7-0.3-1.2-0.3c-0.6,0-1,0.2-1.3,0.5c-0.1,0.2-0.2,0.4-0.3,0.8h-1.1
		c0-0.8,0.3-1.4,0.8-1.7c0.5-0.3,1.1-0.5,1.8-0.5c0.8,0,1.4,0.2,1.9,0.5c0.5,0.3,0.7,0.8,0.7,1.4v3.9c0,0.1,0,0.2,0.1,0.3
		c0,0.1,0.2,0.1,0.3,0.1c0.1,0,0.1,0,0.2,0c0.1,0,0.1,0,0.2,0v0.8c-0.2,0.1-0.3,0.1-0.4,0.1c-0.1,0-0.2,0-0.4,0
		c-0.4,0-0.7-0.1-0.9-0.4c-0.1-0.1-0.2-0.4-0.2-0.6c-0.2,0.3-0.6,0.6-1,0.8c-0.4,0.2-0.9,0.3-1.4,0.3c-0.6,0-1.1-0.2-1.5-0.6
		s-0.6-0.9-0.6-1.4c0-0.6,0.2-1.1,0.6-1.5c0.4-0.3,0.9-0.6,1.5-0.6L653.7,666 M657.2,660.8h1.1v3.4c0.2-0.3,0.5-0.6,0.9-0.7
		c0.3-0.2,0.7-0.3,1.1-0.3c0.8,0,1.5,0.3,2.1,0.9c0.5,0.6,0.8,1.4,0.8,2.6c0,1.1-0.3,2-0.8,2.7c-0.5,0.7-1.2,1.1-2.2,1.1
		c-0.5,0-0.9-0.1-1.3-0.4c-0.2-0.1-0.4-0.4-0.7-0.7v0.9h-1.1V660.8 M661.5,668.6c0.3-0.5,0.5-1.1,0.5-1.9c0-0.7-0.2-1.3-0.5-1.8
		c-0.3-0.5-0.8-0.7-1.4-0.7c-0.5,0-1,0.2-1.4,0.6s-0.6,1-0.6,1.9c0,0.6,0.1,1.2,0.2,1.5c0.3,0.7,0.9,1.1,1.7,1.1
		C660.7,669.3,661.2,669.1,661.5,668.6 M664.5,663.3h1.1v1.2c0.1-0.2,0.3-0.5,0.7-0.8c0.3-0.3,0.7-0.5,1.2-0.5c0,0,0.1,0,0.1,0
		c0.1,0,0.1,0,0.3,0v1.2c-0.1,0-0.1,0-0.2,0s-0.1,0-0.2,0c-0.6,0-1,0.2-1.3,0.6c-0.3,0.4-0.5,0.8-0.5,1.3v3.9h-1.1V663.3 M670,669.1
		c0.2,0.2,0.5,0.3,0.9,0.3c0.4,0,0.8-0.1,1.2-0.3c0.6-0.3,0.9-0.8,0.9-1.5v-0.9c-0.1,0.1-0.3,0.2-0.5,0.2c-0.2,0.1-0.4,0.1-0.6,0.1
		l-0.7,0.1c-0.4,0.1-0.7,0.1-0.9,0.3c-0.4,0.2-0.5,0.5-0.5,0.9C669.6,668.6,669.8,668.9,670,669.1 M672.4,666c0.3,0,0.4-0.1,0.5-0.3
		c0.1-0.1,0.1-0.2,0.1-0.4c0-0.4-0.1-0.7-0.4-0.8c-0.3-0.2-0.7-0.3-1.2-0.3c-0.6,0-1,0.2-1.3,0.5c-0.1,0.2-0.2,0.4-0.3,0.8h-1.1
		c0-0.8,0.3-1.4,0.8-1.7c0.5-0.3,1.1-0.5,1.8-0.5c0.8,0,1.4,0.2,1.9,0.5c0.5,0.3,0.7,0.8,0.7,1.4v3.9c0,0.1,0,0.2,0.1,0.3
		s0.2,0.1,0.3,0.1c0.1,0,0.1,0,0.2,0c0.1,0,0.1,0,0.2,0v0.8c-0.2,0.1-0.3,0.1-0.4,0.1c-0.1,0-0.2,0-0.4,0c-0.4,0-0.7-0.1-0.9-0.4
		c-0.1-0.1-0.2-0.4-0.2-0.6c-0.2,0.3-0.6,0.6-1,0.8c-0.4,0.2-0.9,0.3-1.4,0.3c-0.6,0-1.1-0.2-1.5-0.6c-0.4-0.4-0.6-0.9-0.6-1.4
		c0-0.6,0.2-1.1,0.6-1.5c0.4-0.3,0.9-0.6,1.5-0.6L672.4,666 M677.2,668.6c0.3,0.5,0.8,0.7,1.5,0.7c0.5,0,1-0.2,1.3-0.7
		c0.3-0.5,0.5-1.1,0.5-2c0-0.9-0.2-1.5-0.5-1.9c-0.4-0.4-0.8-0.6-1.3-0.6c-0.6,0-1,0.2-1.4,0.7c-0.4,0.4-0.5,1.1-0.5,1.9
		C676.7,667.5,676.8,668.1,677.2,668.6 M679.7,663.5c0.2,0.1,0.4,0.3,0.7,0.7v-3.4h1.1v9.3h-1v-0.9c-0.3,0.4-0.6,0.7-0.9,0.9
		s-0.8,0.3-1.2,0.3c-0.8,0-1.4-0.3-2-1c-0.6-0.6-0.8-1.5-0.8-2.5c0-1,0.3-1.8,0.8-2.6c0.5-0.7,1.2-1.1,2.2-1.1
		C678.9,663.2,679.4,663.3,679.7,663.5 M687.4,668.5c0.3-0.6,0.4-1.2,0.4-1.9c0-0.6-0.1-1.1-0.3-1.5c-0.3-0.6-0.9-0.9-1.7-0.9
		c-0.7,0-1.2,0.3-1.5,0.8c-0.3,0.5-0.5,1.2-0.5,1.9c0,0.7,0.2,1.3,0.5,1.8c0.3,0.5,0.8,0.7,1.5,0.7
		C686.6,669.4,687.1,669.1,687.4,668.5 M688.1,664c0.6,0.6,0.9,1.4,0.9,2.6c0,1.1-0.3,2-0.8,2.7c-0.5,0.7-1.4,1.1-2.5,1.1
		c-0.9,0-1.7-0.3-2.2-0.9s-0.8-1.5-0.8-2.5c0-1.1,0.3-2,0.9-2.7c0.6-0.7,1.4-1,2.3-1C686.8,663.1,687.5,663.4,688.1,664
		 M690.4,663.3h1.1v1.2c0.1-0.2,0.3-0.5,0.7-0.8c0.3-0.3,0.7-0.5,1.2-0.5c0,0,0.1,0,0.1,0c0.1,0,0.1,0,0.3,0v1.2c-0.1,0-0.1,0-0.2,0
		c-0.1,0-0.1,0-0.2,0c-0.6,0-1,0.2-1.3,0.6c-0.3,0.4-0.5,0.8-0.5,1.3v3.9h-1.1V663.3"/>
	<path vector-effect="non-scaling-stroke" d="M162.8,674.1h1.5l4.7,7.5v-7.5h1.2v9.3h-1.4l-4.8-7.5v7.5h-1.2V674.1 M176.3,681.8
		c0.3-0.6,0.4-1.2,0.4-1.9c0-0.6-0.1-1.1-0.3-1.5c-0.3-0.6-0.9-0.9-1.7-0.9c-0.7,0-1.2,0.3-1.5,0.8c-0.3,0.5-0.5,1.2-0.5,1.9
		c0,0.7,0.2,1.3,0.5,1.8c0.3,0.5,0.8,0.7,1.5,0.7C175.5,682.6,176,682.3,176.3,681.8 M177,677.3c0.6,0.6,0.9,1.4,0.9,2.6
		c0,1.1-0.3,2-0.8,2.7c-0.5,0.7-1.4,1.1-2.5,1.1c-0.9,0-1.7-0.3-2.2-0.9c-0.5-0.6-0.8-1.5-0.8-2.5c0-1.1,0.3-2,0.9-2.7
		c0.6-0.7,1.4-1,2.3-1C175.6,676.4,176.4,676.7,177,677.3 M180.4,676.6v4.5c0,0.3,0.1,0.6,0.2,0.8c0.2,0.4,0.6,0.6,1.1,0.6
		c0.8,0,1.3-0.4,1.6-1.1c0.2-0.4,0.2-0.9,0.2-1.6v-3.3h1.1v6.8h-1.1l0-1c-0.1,0.3-0.3,0.5-0.6,0.7c-0.4,0.4-1,0.5-1.6,0.5
		c-1,0-1.6-0.3-2-1c-0.2-0.3-0.3-0.8-0.3-1.4v-4.6H180.4 M187,676.6l1.8,5.5l1.9-5.5h1.2l-2.6,6.8h-1.2l-2.5-6.8H187 M197.1,676.8
		c0.5,0.2,0.8,0.5,1,0.9c0.2,0.3,0.4,0.7,0.5,1.2c0.1,0.3,0.1,0.8,0.1,1.5h-5c0,0.7,0.2,1.2,0.5,1.7c0.3,0.4,0.8,0.6,1.4,0.6
		c0.6,0,1.1-0.2,1.4-0.6c0.2-0.2,0.3-0.5,0.4-0.8h1.1c0,0.2-0.1,0.5-0.3,0.8c-0.2,0.3-0.4,0.6-0.6,0.7c-0.3,0.3-0.8,0.6-1.3,0.7
		c-0.3,0.1-0.6,0.1-0.9,0.1c-0.8,0-1.6-0.3-2.1-0.9c-0.6-0.6-0.9-1.5-0.9-2.6c0-1.1,0.3-2,0.9-2.7c0.6-0.7,1.4-1,2.3-1
		C196.2,676.4,196.7,676.6,197.1,676.8 M197.6,679.4c0-0.5-0.2-0.9-0.3-1.2c-0.3-0.5-0.8-0.8-1.6-0.8c-0.5,0-1,0.2-1.3,0.6
		c-0.4,0.4-0.5,0.9-0.6,1.4H197.6 M201.4,682.3c0.2,0.2,0.5,0.3,0.9,0.3c0.4,0,0.8-0.1,1.2-0.3c0.6-0.3,0.9-0.8,0.9-1.5v-0.9
		c-0.1,0.1-0.3,0.2-0.5,0.2c-0.2,0.1-0.4,0.1-0.6,0.1l-0.7,0.1c-0.4,0.1-0.7,0.1-0.9,0.3c-0.4,0.2-0.5,0.5-0.5,0.9
		C201,681.9,201.1,682.2,201.4,682.3 M203.8,679.3c0.3,0,0.4-0.1,0.5-0.3c0.1-0.1,0.1-0.2,0.1-0.4c0-0.4-0.1-0.7-0.4-0.8
		c-0.3-0.2-0.7-0.3-1.2-0.3c-0.6,0-1,0.2-1.3,0.5c-0.1,0.2-0.2,0.4-0.3,0.8h-1.1c0-0.8,0.3-1.4,0.8-1.7c0.5-0.3,1.1-0.5,1.8-0.5
		c0.8,0,1.4,0.2,1.9,0.5c0.5,0.3,0.7,0.8,0.7,1.4v3.9c0,0.1,0,0.2,0.1,0.3c0,0.1,0.2,0.1,0.3,0.1c0.1,0,0.1,0,0.2,0
		c0.1,0,0.1,0,0.2,0v0.8c-0.2,0.1-0.3,0.1-0.4,0.1c-0.1,0-0.2,0-0.4,0c-0.4,0-0.7-0.1-0.9-0.4c-0.1-0.1-0.2-0.4-0.2-0.6
		c-0.2,0.3-0.6,0.6-1,0.8c-0.4,0.2-0.9,0.3-1.4,0.3c-0.6,0-1.1-0.2-1.5-0.6c-0.4-0.4-0.6-0.9-0.6-1.4c0-0.6,0.2-1.1,0.6-1.5
		c0.4-0.3,0.9-0.6,1.5-0.6L203.8,679.3 M208.5,676.6v4.5c0,0.3,0.1,0.6,0.2,0.8c0.2,0.4,0.6,0.6,1.1,0.6c0.8,0,1.3-0.4,1.6-1.1
		c0.2-0.4,0.2-0.9,0.2-1.6v-3.3h1.1v6.8h-1.1l0-1c-0.1,0.3-0.3,0.5-0.6,0.7c-0.4,0.4-1,0.5-1.6,0.5c-1,0-1.6-0.3-2-1
		c-0.2-0.3-0.3-0.8-0.3-1.4v-4.6H208.5 M214.2,679.2h3.2v1.2h-3.2V679.2 M222.5,678c0.5,0,0.9-0.1,1.2-0.2c0.5-0.2,0.7-0.6,0.7-1.3
		c0-0.6-0.2-1-0.7-1.2c-0.3-0.1-0.7-0.2-1.2-0.2h-2.2v2.9H222.5 M222.9,682.3c0.8,0,1.3-0.2,1.7-0.7c0.2-0.3,0.3-0.6,0.3-1
		c0-0.7-0.3-1.1-0.9-1.4c-0.3-0.1-0.7-0.2-1.3-0.2h-2.5v3.3H222.9 M219,674.1h4c1.1,0,1.9,0.3,2.3,1c0.3,0.4,0.4,0.8,0.4,1.3
		c0,0.6-0.2,1.1-0.5,1.4c-0.2,0.2-0.4,0.4-0.7,0.5c0.5,0.2,0.8,0.4,1.1,0.6c0.4,0.4,0.6,1,0.6,1.7c0,0.6-0.2,1.1-0.6,1.6
		c-0.6,0.7-1.5,1.1-2.7,1.1H219V674.1 M227.5,676.6h1.1v1.2c0.1-0.2,0.3-0.5,0.7-0.8c0.3-0.3,0.7-0.5,1.2-0.5c0,0,0.1,0,0.1,0
		c0.1,0,0.1,0,0.3,0v1.2c-0.1,0-0.1,0-0.2,0c-0.1,0-0.1,0-0.2,0c-0.6,0-1,0.2-1.3,0.6c-0.3,0.4-0.5,0.8-0.5,1.3v3.9h-1.1V676.6
		 M232.9,676.6v4.5c0,0.3,0.1,0.6,0.2,0.8c0.2,0.4,0.6,0.6,1.1,0.6c0.8,0,1.3-0.4,1.6-1.1c0.2-0.4,0.2-0.9,0.2-1.6v-3.3h1.1v6.8
		h-1.1l0-1c-0.1,0.3-0.3,0.5-0.6,0.7c-0.4,0.4-1,0.5-1.6,0.5c-1,0-1.6-0.3-2-1c-0.2-0.3-0.3-0.8-0.3-1.4v-4.6H232.9 M239,676.6h1.1
		v1c0.3-0.4,0.7-0.7,1-0.9c0.4-0.2,0.8-0.3,1.2-0.3c1,0,1.6,0.3,1.9,1c0.2,0.4,0.3,0.9,0.3,1.6v4.3h-1.2v-4.3c0-0.4-0.1-0.7-0.2-1
		c-0.2-0.4-0.6-0.6-1.1-0.6c-0.3,0-0.5,0-0.7,0.1c-0.3,0.1-0.6,0.3-0.8,0.6c-0.2,0.2-0.3,0.5-0.4,0.7c-0.1,0.2-0.1,0.6-0.1,1v3.5
		H239V676.6 M246.9,681.2c0,0.4,0.1,0.7,0.3,0.9c0.3,0.4,0.8,0.6,1.5,0.6c0.4,0,0.8-0.1,1.1-0.3s0.5-0.5,0.5-0.9
		c0-0.3-0.1-0.5-0.4-0.7c-0.2-0.1-0.5-0.2-1-0.3l-0.9-0.2c-0.6-0.1-1-0.3-1.3-0.5c-0.5-0.3-0.7-0.7-0.7-1.3c0-0.6,0.2-1.2,0.7-1.6
		c0.5-0.4,1.1-0.6,1.9-0.6c1,0,1.8,0.3,2.2,0.9c0.3,0.4,0.4,0.8,0.4,1.2h-1.1c0-0.3-0.1-0.5-0.3-0.7c-0.3-0.3-0.7-0.4-1.4-0.4
		c-0.4,0-0.8,0.1-1,0.2s-0.3,0.4-0.3,0.7c0,0.3,0.1,0.5,0.4,0.7c0.2,0.1,0.4,0.2,0.7,0.3l0.8,0.2c0.8,0.2,1.4,0.4,1.6,0.6
		c0.4,0.3,0.7,0.7,0.7,1.4c0,0.6-0.2,1.1-0.7,1.6c-0.5,0.4-1.2,0.7-2.1,0.7c-1,0-1.7-0.2-2.1-0.7s-0.6-1-0.7-1.7H246.9 M253.2,676.6
		l1.3,5.3l1.3-5.3h1.3l1.3,5.3l1.4-5.3h1.1l-2,6.8h-1.2l-1.4-5.2l-1.3,5.2h-1.2l-2-6.8H253.2 M262,676.6h1.2v6.7H262V676.6
		 M262,674.1h1.2v1.3H262V674.1 M269.4,677c0.5,0.4,0.8,1,0.9,1.9h-1.1c-0.1-0.4-0.2-0.8-0.5-1c-0.2-0.3-0.6-0.4-1.2-0.4
		c-0.7,0-1.2,0.4-1.6,1.1c-0.2,0.5-0.3,1-0.3,1.7c0,0.7,0.1,1.3,0.4,1.7c0.3,0.5,0.7,0.7,1.4,0.7c0.5,0,0.8-0.1,1.1-0.4
		c0.3-0.3,0.5-0.7,0.6-1.2h1.1c-0.1,0.9-0.4,1.6-0.9,2c-0.5,0.4-1.2,0.6-1.9,0.6c-0.9,0-1.6-0.3-2.1-1c-0.5-0.6-0.8-1.5-0.8-2.4
		c0-1.2,0.3-2.1,0.9-2.8c0.6-0.7,1.3-1,2.2-1C268.3,676.4,268.9,676.6,269.4,677 M271.4,674.1h1.1v5.4l2.9-2.9h1.5l-2.6,2.5l2.7,4.2
		h-1.5l-2.1-3.4l-1,0.9v2.5h-1.1V674.1"/>
	<path vector-effect="non-scaling-stroke" d="M407.7,536.5l-0.6,0.8l-1.4-1.1c-0.3,0.2-0.7,0.3-1.1,0.5c-0.4,0.1-0.8,0.2-1.3,0.2
		c-1.4,0-2.6-0.5-3.4-1.4c-0.7-0.9-1.1-2.1-1.1-3.5c0-1.3,0.3-2.3,0.9-3.2c0.8-1.1,2-1.7,3.6-1.7c1.6,0,2.9,0.5,3.6,1.6
		c0.6,0.8,0.9,1.9,0.9,3.2c0,0.6-0.1,1.2-0.2,1.7c-0.2,0.8-0.6,1.5-1.1,2.1L407.7,536.5 M404.1,535.6c0.2,0,0.4-0.1,0.6-0.2l-1-0.8
		l0.6-0.8l1.2,0.9c0.4-0.4,0.6-0.9,0.8-1.5c0.1-0.5,0.2-1.1,0.2-1.6c0-1.1-0.3-2-0.9-2.6c-0.6-0.7-1.4-1-2.3-1c-1,0-1.8,0.3-2.4,1
		c-0.6,0.6-0.9,1.6-0.9,3c0,1.1,0.3,2,0.8,2.7c0.6,0.7,1.4,1,2.5,1C403.7,535.7,403.9,535.7,404.1,535.6 M410.3,529.8v4.5
		c0,0.3,0.1,0.6,0.2,0.8c0.2,0.4,0.6,0.6,1.1,0.6c0.8,0,1.3-0.4,1.6-1.1c0.2-0.4,0.2-0.9,0.2-1.6v-3.3h1.1v6.8h-1.1l0-1
		c-0.1,0.3-0.3,0.5-0.6,0.7c-0.4,0.4-1,0.5-1.6,0.5c-1,0-1.6-0.3-2-1c-0.2-0.3-0.3-0.8-0.3-1.4v-4.6H410.3 M420.6,529.9
		c0.5,0.2,0.8,0.5,1,0.9c0.2,0.3,0.4,0.7,0.5,1.2c0.1,0.3,0.1,0.8,0.1,1.5h-5c0,0.7,0.2,1.2,0.5,1.7c0.3,0.4,0.8,0.6,1.4,0.6
		c0.6,0,1.1-0.2,1.4-0.6c0.2-0.2,0.3-0.5,0.4-0.8h1.1c0,0.2-0.1,0.5-0.3,0.8s-0.4,0.6-0.6,0.7c-0.3,0.3-0.8,0.6-1.3,0.7
		c-0.3,0.1-0.6,0.1-0.9,0.1c-0.8,0-1.6-0.3-2.1-0.9c-0.6-0.6-0.9-1.5-0.9-2.6c0-1.1,0.3-2,0.9-2.7c0.6-0.7,1.4-1,2.3-1
		C419.7,529.6,420.1,529.7,420.6,529.9 M421,532.6c0-0.5-0.2-0.9-0.3-1.2c-0.3-0.5-0.8-0.8-1.6-0.8c-0.5,0-1,0.2-1.3,0.6
		c-0.4,0.4-0.5,0.9-0.6,1.4H421 M420.5,527l-1.7,1.8H418l1.2-1.8H420.5 M423.5,527.2h1.1v3.4c0.2-0.3,0.5-0.6,0.9-0.7
		c0.3-0.2,0.7-0.3,1.1-0.3c0.8,0,1.5,0.3,2.1,0.9c0.5,0.6,0.8,1.4,0.8,2.6c0,1.1-0.3,2-0.8,2.7c-0.5,0.7-1.2,1.1-2.2,1.1
		c-0.5,0-0.9-0.1-1.3-0.4c-0.2-0.1-0.4-0.4-0.7-0.7v0.9h-1.1V527.2 M427.8,535c0.3-0.5,0.5-1.1,0.5-1.9c0-0.7-0.2-1.3-0.5-1.8
		c-0.3-0.5-0.8-0.7-1.4-0.7c-0.5,0-1,0.2-1.4,0.6c-0.4,0.4-0.6,1-0.6,1.9c0,0.6,0.1,1.2,0.2,1.6c0.3,0.7,0.9,1.1,1.7,1.1
		C427.1,535.7,427.5,535.5,427.8,535 M435,529.9c0.5,0.2,0.8,0.5,1,0.9c0.2,0.3,0.4,0.7,0.5,1.2c0.1,0.3,0.1,0.8,0.1,1.5h-5
		c0,0.7,0.2,1.2,0.5,1.7c0.3,0.4,0.8,0.6,1.4,0.6c0.6,0,1.1-0.2,1.4-0.6c0.2-0.2,0.3-0.5,0.4-0.8h1.1c0,0.2-0.1,0.5-0.3,0.8
		c-0.2,0.3-0.4,0.6-0.6,0.7c-0.3,0.3-0.8,0.6-1.3,0.7c-0.3,0.1-0.6,0.1-0.9,0.1c-0.8,0-1.6-0.3-2.1-0.9c-0.6-0.6-0.9-1.5-0.9-2.6
		c0-1.1,0.3-2,0.9-2.7c0.6-0.7,1.4-1,2.3-1C434.1,529.6,434.6,529.7,435,529.9 M435.4,532.6c0-0.5-0.2-0.9-0.3-1.2
		c-0.3-0.5-0.8-0.8-1.6-0.8c-0.5,0-1,0.2-1.3,0.6c-0.4,0.4-0.5,0.9-0.6,1.4H435.4 M442.5,530.1c0.5,0.4,0.8,1,0.9,1.9h-1.1
		c-0.1-0.4-0.2-0.8-0.5-1c-0.2-0.3-0.6-0.4-1.2-0.4c-0.7,0-1.2,0.4-1.6,1.1c-0.2,0.5-0.3,1-0.3,1.7c0,0.7,0.1,1.3,0.4,1.7
		c0.3,0.5,0.7,0.7,1.4,0.7c0.5,0,0.8-0.1,1.1-0.4c0.3-0.3,0.5-0.7,0.6-1.2h1.1c-0.1,0.9-0.4,1.6-0.9,2c-0.5,0.4-1.2,0.6-1.9,0.6
		c-0.9,0-1.6-0.3-2.1-1c-0.5-0.6-0.8-1.5-0.8-2.4c0-1.2,0.3-2.1,0.9-2.8c0.6-0.7,1.3-1,2.2-1C441.4,529.6,442,529.7,442.5,530.1"/>
	<path vector-effect="non-scaling-stroke" d="M483.1,694.3l-0.6,0.8l-1.4-1.1c-0.3,0.2-0.7,0.3-1.1,0.5c-0.4,0.1-0.8,0.2-1.3,0.2
		c-1.4,0-2.6-0.5-3.4-1.4c-0.7-0.9-1.1-2.1-1.1-3.5c0-1.3,0.3-2.3,0.9-3.2c0.8-1.1,2-1.7,3.6-1.7c1.6,0,2.9,0.5,3.6,1.6
		c0.6,0.8,0.9,1.9,0.9,3.2c0,0.6-0.1,1.2-0.2,1.7c-0.2,0.8-0.6,1.5-1.1,2.1L483.1,694.3 M479.5,693.5c0.2,0,0.4-0.1,0.6-0.2l-1-0.8
		l0.6-0.8l1.2,0.9c0.4-0.4,0.6-0.9,0.8-1.5c0.1-0.5,0.2-1.1,0.2-1.6c0-1.1-0.3-2-0.9-2.6c-0.6-0.7-1.4-1-2.3-1c-1,0-1.8,0.3-2.4,1
		c-0.6,0.6-0.9,1.6-0.9,3c0,1.1,0.3,2,0.8,2.7c0.6,0.7,1.4,1,2.5,1C479,693.5,479.3,693.5,479.5,693.5 M485.7,687.6v4.5
		c0,0.3,0.1,0.6,0.2,0.8c0.2,0.4,0.6,0.6,1.1,0.6c0.8,0,1.3-0.4,1.6-1.1c0.2-0.4,0.2-0.9,0.2-1.6v-3.3h1.1v6.8h-1.1l0-1
		c-0.1,0.3-0.3,0.5-0.6,0.7c-0.4,0.4-1,0.5-1.6,0.5c-1,0-1.6-0.3-2-1c-0.2-0.3-0.3-0.8-0.3-1.4v-4.6H485.7 M496,687.8
		c0.5,0.2,0.8,0.5,1,0.9c0.2,0.3,0.4,0.7,0.5,1.2c0.1,0.3,0.1,0.8,0.1,1.5h-5c0,0.7,0.2,1.2,0.5,1.7c0.3,0.4,0.8,0.6,1.4,0.6
		c0.6,0,1.1-0.2,1.4-0.6c0.2-0.2,0.3-0.5,0.4-0.8h1.1c0,0.2-0.1,0.5-0.3,0.8s-0.4,0.6-0.6,0.7c-0.3,0.3-0.8,0.6-1.3,0.7
		c-0.3,0.1-0.6,0.1-0.9,0.1c-0.8,0-1.6-0.3-2.1-0.9c-0.6-0.6-0.9-1.5-0.9-2.6c0-1.1,0.3-2,0.9-2.7c0.6-0.7,1.4-1,2.3-1
		C495.1,687.4,495.5,687.6,496,687.8 M496.4,690.4c0-0.5-0.2-0.9-0.3-1.2c-0.3-0.5-0.8-0.8-1.6-0.8c-0.5,0-1,0.2-1.3,0.6
		c-0.4,0.4-0.5,0.9-0.6,1.4H496.4 M495.9,684.9l-1.7,1.8h-0.9l1.2-1.8H495.9 M498.9,685h1.1v3.4c0.2-0.3,0.5-0.6,0.9-0.7
		c0.3-0.2,0.7-0.3,1.1-0.3c0.8,0,1.5,0.3,2.1,0.9c0.5,0.6,0.8,1.4,0.8,2.6c0,1.1-0.3,2-0.8,2.7c-0.5,0.7-1.2,1.1-2.2,1.1
		c-0.5,0-0.9-0.1-1.3-0.4c-0.2-0.1-0.4-0.4-0.7-0.7v0.9h-1.1V685 M503.2,692.8c0.3-0.5,0.5-1.1,0.5-1.9c0-0.7-0.2-1.3-0.5-1.8
		c-0.3-0.5-0.8-0.7-1.4-0.7c-0.5,0-1,0.2-1.4,0.6c-0.4,0.4-0.6,1-0.6,1.9c0,0.6,0.1,1.2,0.2,1.6c0.3,0.7,0.9,1.1,1.7,1.1
		C502.5,693.6,502.9,693.3,503.2,692.8 M510.4,687.8c0.5,0.2,0.8,0.5,1,0.9c0.2,0.3,0.4,0.7,0.5,1.2c0.1,0.3,0.1,0.8,0.1,1.5h-5
		c0,0.7,0.2,1.2,0.5,1.7c0.3,0.4,0.8,0.6,1.4,0.6c0.6,0,1.1-0.2,1.4-0.6c0.2-0.2,0.3-0.5,0.4-0.8h1.1c0,0.2-0.1,0.5-0.3,0.8
		c-0.2,0.3-0.4,0.6-0.6,0.7c-0.3,0.3-0.8,0.6-1.3,0.7c-0.3,0.1-0.6,0.1-0.9,0.1c-0.8,0-1.6-0.3-2.1-0.9c-0.6-0.6-0.9-1.5-0.9-2.6
		c0-1.1,0.3-2,0.9-2.7c0.6-0.7,1.4-1,2.3-1C509.5,687.4,509.9,687.6,510.4,687.8 M510.8,690.4c0-0.5-0.2-0.9-0.3-1.2
		c-0.3-0.5-0.8-0.8-1.6-0.8c-0.5,0-1,0.2-1.3,0.6c-0.4,0.4-0.5,0.9-0.6,1.4H510.8 M517.9,688c0.5,0.4,0.8,1,0.9,1.9h-1.1
		c-0.1-0.4-0.2-0.8-0.5-1s-0.6-0.4-1.2-0.4c-0.7,0-1.2,0.4-1.6,1.1c-0.2,0.5-0.3,1-0.3,1.7c0,0.7,0.1,1.3,0.4,1.7s0.7,0.7,1.4,0.7
		c0.5,0,0.8-0.1,1.1-0.4c0.3-0.3,0.5-0.7,0.6-1.2h1.1c-0.1,0.9-0.4,1.6-0.9,2c-0.5,0.4-1.2,0.6-1.9,0.6c-0.9,0-1.6-0.3-2.1-1
		c-0.5-0.6-0.8-1.5-0.8-2.4c0-1.2,0.3-2.1,0.9-2.8c0.6-0.7,1.3-1,2.2-1C516.8,687.4,517.4,687.6,517.9,688"/>
	<path vector-effect="non-scaling-stroke" d="M69.3,693.1h1.8l2.7,7.9l2.7-7.9h1.8v9.3H77v-5.5c0-0.2,0-0.5,0-0.9c0-0.4,0-0.9,0-1.4
		l-2.7,7.8h-1.2l-2.7-7.8v0.3c0,0.2,0,0.6,0,1s0,0.8,0,1v5.5h-1.2V693.1 M81.2,701.4c0.2,0.2,0.5,0.3,0.9,0.3c0.4,0,0.8-0.1,1.2-0.3
		c0.6-0.3,0.9-0.8,0.9-1.5V699c-0.1,0.1-0.3,0.2-0.5,0.2c-0.2,0.1-0.4,0.1-0.6,0.1l-0.7,0.1c-0.4,0.1-0.7,0.1-0.9,0.3
		c-0.4,0.2-0.5,0.5-0.5,0.9C80.9,700.9,81,701.2,81.2,701.4 M83.6,698.3c0.3,0,0.4-0.1,0.5-0.3c0.1-0.1,0.1-0.2,0.1-0.4
		c0-0.4-0.1-0.7-0.4-0.8c-0.3-0.2-0.7-0.3-1.2-0.3c-0.6,0-1,0.2-1.3,0.5c-0.1,0.2-0.2,0.4-0.3,0.8H80c0-0.8,0.3-1.4,0.8-1.7
		c0.5-0.3,1.1-0.5,1.8-0.5c0.8,0,1.4,0.2,1.9,0.5c0.5,0.3,0.7,0.8,0.7,1.4v3.9c0,0.1,0,0.2,0.1,0.3c0,0.1,0.2,0.1,0.3,0.1
		c0.1,0,0.1,0,0.2,0c0.1,0,0.1,0,0.2,0v0.8c-0.2,0.1-0.3,0.1-0.4,0.1c-0.1,0-0.2,0-0.4,0c-0.4,0-0.7-0.1-0.9-0.4
		c-0.1-0.1-0.2-0.4-0.2-0.6c-0.2,0.3-0.6,0.6-1,0.8c-0.4,0.2-0.9,0.3-1.4,0.3c-0.6,0-1.1-0.2-1.5-0.6c-0.4-0.4-0.6-0.9-0.6-1.4
		c0-0.6,0.2-1.1,0.6-1.5c0.4-0.3,0.9-0.6,1.5-0.6L83.6,698.3 M87.2,695.7h1.2v6.7h-1.2V695.7 M87.2,693.1h1.2v1.3h-1.2V693.1
		 M90.1,695.6h1.1v1c0.3-0.4,0.7-0.7,1-0.9s0.8-0.3,1.2-0.3c1,0,1.6,0.3,1.9,1c0.2,0.4,0.3,0.9,0.3,1.6v4.3h-1.2v-4.3
		c0-0.4-0.1-0.7-0.2-1c-0.2-0.4-0.6-0.6-1.1-0.6c-0.3,0-0.5,0-0.7,0.1c-0.3,0.1-0.6,0.3-0.8,0.6c-0.2,0.2-0.3,0.5-0.4,0.7
		c-0.1,0.2-0.1,0.6-0.1,1v3.5h-1.1V695.6 M101.5,695.8c0.5,0.2,0.8,0.5,1,0.9c0.2,0.3,0.4,0.7,0.5,1.2c0.1,0.3,0.1,0.8,0.1,1.5h-5
		c0,0.7,0.2,1.2,0.5,1.7c0.3,0.4,0.8,0.6,1.4,0.6c0.6,0,1.1-0.2,1.4-0.6c0.2-0.2,0.3-0.5,0.4-0.8h1.1c0,0.2-0.1,0.5-0.3,0.8
		c-0.2,0.3-0.4,0.6-0.6,0.7c-0.3,0.3-0.8,0.6-1.3,0.7c-0.3,0.1-0.6,0.1-0.9,0.1c-0.8,0-1.6-0.3-2.1-0.9c-0.6-0.6-0.9-1.5-0.9-2.6
		c0-1.1,0.3-2,0.9-2.7c0.6-0.7,1.4-1,2.3-1C100.6,695.5,101,695.6,101.5,695.8 M101.9,698.5c0-0.5-0.2-0.9-0.3-1.2
		c-0.3-0.5-0.8-0.8-1.6-0.8c-0.5,0-1,0.2-1.3,0.6c-0.4,0.4-0.5,0.9-0.6,1.4H101.9"/>
	<g id="Layer_4" inkscape:label="Layer 4" inkscape:groupmode="layer">
		<g transform="matrix(1,0,0,1,0,0)">
		</g>
		<g transform="matrix(11.8081,0,0,11.8081,0,0)">
		</g>
		<g transform="matrix(11.8081,0,0,11.8081,0,0)">
		</g>
		<g transform="matrix(0.999751,0,0,0.999751,0,0)">
			<path vector-effect="none" class="st3" d="M114.6,426.5l-0.3-0.1l-0.3,0.1l0,0.4l0.2,0.3l0.1,0.5l0.1,0.3l0.1,0.3l0.3,0.2
				l0.2,0.4l0,0.3l0,0.3l-0.5,0.9l-0.1,0.4l0,0.3l0,0.5l0,0.6l0,0.3l-0.1,0.3l-0.2,0.9l0.2,0.4l0.2,0.2l0.2,0.3v0.3l-0.1,0.3
				l-0.1,0.5l-0.3,0.3l-0.4,0.2l-0.3,0l-0.2-0.1l-0.3,0.1l-0.3-0.4l-0.9-0.3l-0.4,0"/>
			<path vector-effect="none" class="st3" d="M137.4,549.1l0.1,0.4l0.2,0.4l0.1,0.3l-0.1,0.3l0,0.2l-0.1,0.2l0.2,0.3l-0.1,0.3
				l0.1,0.4l0.1,0.2l0.1,0.2l0.1,0.3l0.1,0.3l0.3,0l0.3,0.1l0.3,0l0.4,0l0.3,0.1l0.3,0.1l0.3,0.2l0.2,0.3l0.2,0.5"/>
			<path vector-effect="none" class="st3" d="M145.4,318.3l0.1,0.5l0.1,0.3l-0.1,0.3l-0.3,0.4l-0.9,1l-0.1,0.4l0,0.6l-0.2,1.1
				l-0.3,1.3l-0.1,0.3l-0.3,0.6l-0.2,0.4l-0.3,0.6l-0.1,0.5l-0.1,0.3l-0.2,0.5l-0.1,0.5l0,0.4l0.3,0.4l0.4,0.2l0.5,0l0.7,0.3
				l0.7,0.4l0.4,0.3l0,0.5l0.1,1.3l0,0.3l0,0.4l0,0.4l-0.1,0.3l-0.1,0.6l0,0.4l0,0.4l0.1,0.9l0.1,0.7l0,0.4l0.1,0.5l0.1,0.3l0.3,0.3
				l0.6,0.5l0.7,0.5l1,0.8l0.6,0.5l0.3,0.3l0.1,0.5l0.1,0.4l0,0.3l-0.2,0.5l-0.2,0.3l-0.3,0.4L148,343l-0.2,0.3l-0.3,0.3l-0.5,0.5
				l-0.5,0.5l-0.3,0.3l-0.2,0.3l-0.2,0.3l-0.3,0.4l-0.6,0.5L144,347l-1.2,0.7l-1,0.5l-1.1,0.5l-0.9,0.4l-0.7,0.6l-0.3,0.6l-0.1,0.6
				l0,0.3l-0.1,0.7l0,0.5l0.2,0.9l0.1,0.9l0,1.1l-0.1,1.1l0,0.7l-0.1,0.5l-0.2,0.5l-0.1,0.3l-0.1,0.3l-0.1,0.3l-0.1,0.3l-0.1,0.6
				l-0.1,0.3l0.1,0.6l0.2,0.6l0.3,0.6l0.4,0.4l0.1,0.3l0,0.4l0.1,0.5l0.2,0.3l0.2,0.5l0.1,0.3l0.2,0.5l0.1,0.3l0,0.7l0,0.5l0,0.6
				l-0.2,0.7l0,0.3l0,0.3l0,0.4l-0.1,0.4l-0.1,0.5l0.1,0.5l0.2,0.4l0.4,1.1l0.2,0.4l0.4,0.3l0.6,0.4l0.9,0.7l0.7,0.5l0.6,0.5
				l0.3,0.5l0.2,0.4l0.2,0.6l0.1,0.5l0.2,0.3l0.3,0.5l0.1,0.3l0.2,0.6l0,0.3l0,0.4l-0.1,0.3l-0.3,0.2l-0.3,0l-0.4,0.2l-0.3,0.2
				l-0.3,0.3l-0.2,0.3l-0.2,0.4l-0.2,0.3l-0.2,0.4l-0.2,0.3l-0.2,0.3l-0.4,0.4l-0.3,0.4l-0.5,0.6l-0.5,0.6l-0.4,0.4l-0.3,0.3
				l-0.5,0.6l-0.2,0.4l-0.7,0.6l-0.2,0.3l-0.2,0.5l-0.2,0.4l-0.1,0.4l-0.2,0.6l-0.2,0.4l-0.3,0.6l-0.3,0.6l-0.2,0.6l-0.2,0.7
				l-0.1,0.3l-0.2,0.4l-0.5,0.4l-0.4,0.1l-0.4,0.2l-0.3,0.3l-0.2,0.3l-0.2,0.4l-0.2,0.4l-0.3,0.3l-0.2,0.4l-0.4,0.7l-0.3,0.5
				l-0.2,0.3l-0.3,0.4l-0.3,0.5l-0.6,0.9l-0.5,0.6l-0.5,0.6l-0.4,0.4l-0.4,0.5l-0.4,0.5l-0.5,0.4l-0.5,0.1l-0.4,0.1l-0.6,0.2
				l-0.3,0.2l-0.4,0.3l-0.3,0.2l-0.3,0.2l-0.3,0.2l-0.6,0.5l-0.8,0.7l-0.5,0.4l-0.5,0.4l-0.3,0.3l-0.2,0.4l-0.4,0.4l-0.3,0.2
				l-0.3,0.2l-0.5,0.1l-0.3,0.2l-0.2,0.3l-0.3,0.5l-0.6,0.9l-0.3,0.3l-0.3,0.3l-0.4,0.5l-0.3,0.3l-0.4,0.5l-0.2,0.3l-0.2,0.3
				l-0.1,0.4l0,0.3l0.1,0.5l0.1,0.4l0,0.3l0,0.5l-0.2,0.4l-0.3,0.6l-0.3,0.5l-0.1,0.4l0,0.7l0.3,0.2l0.1,0.4l0.1,0.9l0,0.3l0,0.3
				l0.2,0.3l0,0.4l0.2,0.5l0.1,0.4l-0.2,0.7l0,0.2l-0.1,0.3l-0.1,0.3l0.2,0.3l0,0.3l-0.3,0.3l0.1,0.3l-0.2,0.3l-0.2,0.3l-0.2,0.4
				l-0.2,0.3l-0.2,0.3l-0.2,0.3l0,0.4l-0.1,0.4l0,0.3l-0.2,0.4l-0.2,0.3l-0.1,0.5l-0.1,0.3l-0.5,0.1"/>
			<path vector-effect="none" class="st3" d="M199.5,241.4l-0.1,0.1l-0.1,0.4l0,0.7l0.2,0.4l0.2,0.4l0.1,0.3l0,0.4l-0.1,0.9l0,0.6
				l-0.3,0.3l-0.2,0.1l-2,0.9l-0.5,0l-1.3-1l-0.5-0.1l-1.9,0.8l-0.4,0.3l-0.4,0.5l-0.5,0.7l-0.3,0.4l-0.3,0.1l-0.5,0l-0.3,0.1
				l-1.5,1.2l-0.4,0.2l-0.7,0l-0.4-0.2l-0.4-0.3l-0.3-0.2l-0.4-0.4l-1.2-0.4l-0.4-0.2l-0.5-0.1l-0.3,0.2l-0.3,0.2l-0.3,0.4l-0.2,0.3
				l-0.2,0.5l-0.4,0.3l-0.3,0.2l-0.4,0.3l-0.5,0.2l0.1,0.4l0.3,0.2l0.3,0l0.4,0l0.1,0.3l0,0.4v0.3l0.3,0.1l0,0.3l0.3,0.3l0.2,0.3
				l-0.2,0.3L183,254l0.3,0.3l0.3,0.1l0.3,0.2l0.2,0.3l0,0.4l0.2,0.4l0.2,0.3l-0.1,0.4l0.1,0.3l0.1,0.3l-0.3,0.2l-0.3,0.5l0.1,0.3
				l-0.2,0.5l-0.2,0.3l-0.5,0.7l-0.1,0.3l-0.3,0.3l-0.4,0.4l-0.2,0.3l-0.1,0.3l-0.3,0.4l0,0.3l0.3,0.3l0.1,0.3l0.4,0.4l0.1,0.3
				l0.1,0.3l-0.1,0.3l0,0.3l-0.1,0.3l-0.3,0.1l-0.1,0.4l0,0.3l0.2,0.4l0,0.3l-0.1,0.5l0,0.3l-0.1,0.4l-0.1,0.3l0.1,0.3l0.2,0.6
				l0,0.4l0,0.6l0.1,0.3l-0.1,0.4l-0.1,0.3l0,0.3l0.1,0.3l-0.1,0.5l0,0.5l0,0.3l0,0.3l0,0.6l0.1,0.3l-0.1,0.3l-0.1,0.5l0,0.3l-0.1,1
				l0.2,0.6l0.1,0.3l0.2,0.6l0.1,0.3l0.2,0.7l0.2,0.7l0.2,0.6l0.1,0.3l0.1,0.3l0.2,0.5l0.2,0.3l0.2,0.3l0.2,0.5l0.1,0.5l0,0.3
				l0.1,0.3l0.1,0.3l0.1,0.3l0.1,0.3l0.1,0.2l0.1,0.1l0,0.4l0.2,0.1l0.3,0l0.3,0.6l0.3,0.8l-0.4,0.2L185,286l-0.3,0.2l-0.1,0.4
				l0.3,1l0.1,0.6l-0.8-0.1l-0.5,0l-0.3-0.3L183,288l-0.4,0.3l-0.4,0.4l-0.3,0.3l-0.5,0.2l-0.3,0.1l-0.4,0.1h-0.4l-0.4,0l-0.5,0
				l-0.5-0.3l-0.3-0.1l-0.2-0.1l-0.5-0.3l-0.4-0.1l-0.5-0.2l-0.7-0.1l-0.5,0.1l-0.3,0l-0.3,0.1l-0.4,0.3l-0.3,0.3l-0.3,0.3l-0.3,0.6
				l-0.2,0.5l-0.2,0.5l-0.1,0.6l-0.5,0.6l-0.2,0.4l-0.2,0.2l-0.1,0.4l-0.2,0.4l-0.2,0.1l-0.4,0.3l-0.4,0.3l-0.4,0.3l-0.4,0.2
				l-0.2,0.3l-0.3,0.2l-0.2,0.4l-0.6,0.1l-0.5,0.1l-0.6,0.2l-0.4,0.1l-0.6,0.4l-0.4,0l-0.5,0.1l-0.5,0.2l-0.5,0.4l-0.2,0.3l-0.4,0.4
				l-0.2,0.3l-0.3,0.5l-0.1,0.3l-0.2,0.3l-0.2,0.2l-0.2,0.1l-0.4,0.3l-0.3,0.4l-0.3,0.3l-0.5,0.2l-0.4-0.1l-0.3-0.1l-0.4-0.2
				l-0.4-0.2l-0.5,0.1l-0.4,0.1l-0.5,0.1l-0.2,0.2l-0.5,0.2l-0.8,0.1l-0.4,0.2l-0.2,0.2l-0.1,0.3l-0.1,0.6l-0.3,0.4l-0.2,0.3
				l-0.3,0.3l-0.2,0.4l-0.2,0.3l-0.2,0.3l-0.3,0.4l-0.3,0.4l-0.5,0.4l-0.5,0.4l-0.3,0.4l-0.2,0.4l-0.3,0.3l-0.2,0.6l-0.1,0.4
				l-0.2,0.2l-0.1,0.1l-0.2,0.1l-0.4,0.3l-0.7,0.6l-0.3,0.2l-0.5,0.3l-0.4,0.2l-0.3,0.2l-0.5,0.3l-0.5,0.2l-0.3,0.2l-0.2,0.2
				l-0.2,0.4l-0.3,0.4l-0.2,0.5l-0.1,0.3l-0.2,0.5l-0.2,0.6l-0.3,0.3l-0.2,0.3l-0.5,0.7l-0.1,0.4l-0.1,0.6l0,0.5l0,0.4l0,0.4
				l0.1,0.4l0,0.5"/>
			<path vector-effect="none" class="st3" d="M111.2,435l0.3,0.2l0.3,0l-0.1,0.6l-0.1,0.3l0.1,0.3l0.2,0.2"/>
			<path vector-effect="none" class="st3" d="M112,436.6l0.2,0.1l0.4,0.1l0.3,0.2l-0.3,0.2l-0.5,0.3l-0.3,0.2l-0.2,0.3l0,0.3
				l-0.1,0.3l-0.1,0.4l0,0.3l-0.2,0.3l0,0.3l-0.1,0.3l-0.2,0.3l-0.5,0.4l0.1,0.3l0,0.5l0,0.6l0,0.3l-0.3,0.2l0,0.1"/>
			<path vector-effect="none" class="st3" d="M110.1,442.6l-0.2,0.2l-0.4,0.5l-0.5,0.4l-0.4,0.9l0,0.8l-0.3,0.4l0.1,0.5l-0.7,1.3
				l0,0.3l0,2l-0.4,1l0.1,0.5l-0.1,0.8l-0.1,1.8l-0.3,0.8l-0.5,3.4"/>
			<path vector-effect="none" class="st3" d="M106.4,458.1l0.1,1.3l0.3,0.1l0.3,0.4l0.1,0.4l0.2,0.4l0,0.3l-0.1,0.2l0,0.3l0,0.3
				l0.5,0.4l0.3,0.2l0.2,0.3l0,0.3l0,0.4l0,0.3l0.2,0.3l0.4,0.4l0.1,0.4l0.1,0.4l0.2,0.4l0.2,0.4l0.1,0.3l-0.2,0.3l-0.1,0.3l0.4,0.7
				l0.2,0.3l0.1,0.3l-0.3,0.3l-0.2,0.3l-0.2,0.4l-0.1,0.3l-0.2,0.3l-0.2,0.3l0,0.3l-0.1,0.4l-0.4,0.7l-0.2,0.4l-0.1,0.3l-0.1,0.5
				l-0.1,0.5l0,0.3l-0.1,0.3l0,0.3l0,0.4l-0.1,0.4l-0.1,0.2l-0.2,0.4l-0.1,0.4l-0.1,0.3l-0.1,0.5l0,0.5l-0.1,0.3l-0.3,0.5l0,0.4
				l0.1,0.6l0.1,0.3l0.2,0.4l0.4,0.4l0.1,0.3l0.1,0.3l0.1,0.3l0,0.4l-0.2,0.3l-0.3,0.3l-0.1,0.2l0,0.5l-0.2,0.3l0,0.3l0,0.3l0,0.2
				l0.3,0.4l0.1,0.3l0.3,0.3l0.4,0l0.4-0.1l0.3-0.1l0.3,0.1l0.3,0.1l0.4,0.1l0.2-0.5l0.3-0.2l0.3,0l0.3,0l0.4,0.1l0.3,0.2l0.3,0.7
				l0.2,0.5l0,0.5l0,0.3l0,0.5l0.1,0.9l0,0.3l-0.2,0.4l0,0.3l0.1,0.4l0.1,0.5l0,0.3l-0.1,0.4l-0.2,0.1l-0.3,0.3l-0.6,0.1l-0.1,0.3
				l-0.1,0.4l0,0.3l0,0.3l-0.3,0.4l-0.2,0.3l0,0.6l0.2,0.5l0.3,0.1l0.3,0.3l0.2,0.3l0.1,0.6l0,0.3l-0.1,0.3l-0.1,0.3l-0.1,0.3l0,0.3
				l0,0.3l0,0.4l0,0.4l-0.1,0.3l-0.1,0.3l0.2,0.3l0.5,0.6l0.1,0.3l0.2,0.3l0.3,0.3l0.1,0.3l-0.2,0.1l-0.2,0.3l-0.2,0.4l-0.1,0.3
				L111,502l-0.1,0.4l-0.1,0.4l-0.2,0.3l0.1,0.4l0.3,0.2l0.3,0.2l-0.1,0.5l-0.1,0.4l-0.1,0.3l-0.2,0.3l0.1,0.4l0.1,0.3l0.2,0.2
				l0.3,0.3l0.3,0.2l0.1,0.3l-0.1,0.4l0,0.3l-0.2,0.2l-0.1,0.4l-0.2,0.3l0,0.3l0.1,0.3l0.3,0.2l0.3,0.2l0.5,0.2l0.3,0l0.5,0.2
				l0.3,0.2l0.3,0.4l0.3,0.2l0.2,0.1l0.2,0.3l0.3,0.5l-0.1,0.3l-0.1,0.4l-0.4,0l-0.2,0.3l0.1,0.4l0.1,0.4l0,0.4l0.3,0.2l0.3,0.2
				l0.1,0.2l0.1,0.5l0.1,0.3l0.3,0.5l0.2,0.3l0.3,0.3l0.1,0.3"/>
			<path vector-effect="none" class="st3" d="M116.2,516.8l-0.1,0.3l-0.1,0.4l-0.2,0.3l-0.2,0.3l-0.2,0.4l0.1,0.5l0.1,0.3l0,0.3
				l0.3,0.3l0.1,0.5l0.1,0.3l0.3,0.4l0.1,0.2l0.3,0.1l0.3,0l0.8,0.4l0.3,0.4l0,0.3l0.3,0.6l0.4,0.3l0.2,0.1l0.4,0.2l0.3,0.2l0.4,0.1
				l0.3,0.1l0.4,0.3l0.2,0.3l0,0.3l0.2,0.3l0.3,0.4l0,0.3l-0.2,0.4l0.3,0.2l0.2,0.3l0.2,0.3l-0.1,0.2l0.1,0.5l0.1,0.3l0,0.3l0,0.3
				l-0.2,0.3l-0.1,0.2l-0.1,0.2l0,0.3l0.2,0.5l0.2,0.3l0.2,0.3l0.1,0.2l0.4,0.2l0.1,0.5l0,0.4l-0.1,0.4l0,0.3l-0.1,0.4l-0.2,0.3
				l-0.3,0.4l-0.1,0.3l0.2,0.4l0.2,0.3l0.2,0.4l-0.1,0.3l-0.1,0.4l0.1,0.3l0,0.4l0.1,0.3l0.1,0.3l0.4,0.1l0.1,0.4l0.2,0.3l0.4-0.2
				l0.4-0.1l0.4-0.2l0.5-0.1l0.3,0.2h0.3l0.3,0.3l0.2,0.4l0,0.4l-0.1,0.3l0,0.3l-0.1,0.2l0.1,0.6l0.1,0.4l0.1,0.4l0,0.3l0.1,0.3
				l0.1,0.3l0.1,0.3l0.1,0.4l0.1,0.3l0.1,0.8l0.2,0.3l0.2,0.4l0.3,0.2l0.5,0.1l0.4-0.1l0.2,0.1l-0.2,0.3l-0.1,0.3l0.1,0.3l0.1,0.4
				l0.3,0.4l0.3,0.1l0.3,0.1l0.3-0.1l0.5-0.3l0.2-0.2l0.4,0.1l0.4,0.1l0.3,0.3l0.5,0.4l0.3,0l0.3,0.1l0,0.3l-0.1,0.3l0,0.3l0.3,0.1
				l0.2-0.2l0.1-0.2l0.3-0.1l0.3,0l0.3,0.1l0.3,0l0.5,0.1l0.3,0.2l0.3-0.1l0.3-0.2l0.1,0.6l0.2,0.2l0.1,0.3l0.3,0.2l0.4,0.1l0.3,0.3
				l0.3,0l0.3,0.1l0.2,0.3"/>
		</g>
		<g transform="matrix(11.8081,0,0,11.8081,0,0)">
		</g>
		<g transform="matrix(11.8081,0,0,11.8081,0,0)">
		</g>
		<g transform="matrix(11.8081,0,0,11.8081,0,0)">
		</g>
		<g transform="matrix(1,0,0,1,0,0)">
		</g>
		<g transform="matrix(11.8081,0,0,11.8081,0,0)">
		</g>
		<g transform="matrix(11.8081,0,0,11.8081,0,0)">
		</g>
		<g transform="matrix(11.8081,0,0,11.8081,0,0)">
		</g>
		<g transform="matrix(11.8081,0,0,11.8081,0,0)">
		</g>
		<g transform="matrix(1,0,0,1,0,0)">
		</g>
	</g>
	<rect x="195.1" y="120.8" class="st4" width="107" height="37"/>
	<text transform="matrix(1 0 0 1 195.149 131.4689)" class="st5"><tspan x="0" y="0" class="st6 st7 st8">TERRE-NEUVE-</tspan><tspan x="0" y="16.8" class="st6 st7 st8">ET-LABRADOR</tspan></text>
	<rect x="290.2" y="157.8" class="st4" width="24.1" height="0"/>
	<g class="st5">
	</g>
	<rect x="99.2" y="175.8" class="st4" width="65.3" height="18.5"/>
	<text transform="matrix(1 0 0 1 99.1951 186.4689)" class="st9 st7 st8">QUÉBEC</text>
</g>
<g id="Calque_2">
	<circle class="st10" cx="143.7" cy="557" r="3.5"/>
	<circle class="st10" cx="240.2" cy="474.8" r="3.5"/>
	<rect x="143.2" y="527.5" class="st11" width="91.3" height="24.1"/>
	<circle class="st10" cx="188.2" cy="249.2" r="3.5"/>
	<rect x="185.9" y="253.4" class="st11" width="72" height="19.6"/>
	<rect x="217.4" y="448.2" class="st11" width="70" height="19.6"/>
	<polygon class="st4" points="297,452 226,452 222.9,464.5 293.9,464.5 	"/>
	<text transform="matrix(1 0 0 1 225.7272 462.6526)" class="st12 st7 st8">Sept-Îles</text>
	<rect x="146.2" y="532.5" class="st4" width="91" height="27"/>
	<text transform="matrix(1 0 0 1 146.204 543.1761)" class="st12 st7 st8">Baie-Comeau</text>
	<rect x="196.2" y="257.2" class="st4" width="89" height="23"/>
	<text transform="matrix(1 0 0 1 196.1854 267.8464)" class="st12 st7 st8">Fermont</text>
</g>
</svg>
