<?xml version="1.0" encoding="utf-8"?>
<!-- Generated by IcoMoon.io -->
<!DOCTYPE svg PUBLIC "-//W3C//DTD SVG 1.1//EN" "http://www.w3.org/Graphics/SVG/1.1/DTD/svg11.dtd">
<svg version="1.1" xmlns="http://www.w3.org/2000/svg" xmlns:xlink="http://www.w3.org/1999/xlink" width="512" height="512" viewBox="0 0 512 512">
<g>
</g>
	<path d="M469.238 245.811c-5.079 4.096-16.292 17.337-14.254 25.477 12.196 39.659 54.969 8.12 31.55 30.505-3.051 2.058-10.178 6.144-15.268 5.099 1.045 5.099-27.484 14.244-30.526 24.443-1.003 5.079-5.089 10.137-2.038 14.244 6.103 8.141 15.248 13.22 24.443 18.32 2.027 0.983 9.175-2.017 8.13 0-3.062 6.103-20.357 11.182-25.447 7.117-1.024 5.099-31.539 4.055-37.642 14.264-2.027 4.055-7.137 8.12-6.103 12.165 3.041 10.219 11.182 17.337 17.316 25.477 1.986 2.038 9.144 0 8.141 2.038-5.12 5.099-22.416 5.099-27.515-1.045-2.017 4.075-30.505-5.079-38.656 2.038-4.086 3.082-10.189 5.099-10.189 10.199 0 10.178 5.089 20.337 9.175 29.502 1.024 2.017 8.141 3.082 6.113 4.045-5.089 3.082-22.385-2.017-25.447-9.144-3.051 3.062-26.45-14.224-37.652-10.158-4.075 2.038-11.192 2.038-12.216 6.103-4.055 9.165-2.038 20.377-1.014 30.556 1.014 3.041 7.117 6.062 5.069 6.062-6.103 1.024-20.337-9.165-21.361-16.24-4.055 1.997-21.371-22.405-32.563-21.401-5.079 0-11.192-2.038-14.244 2.038-6.124 8.141-8.151 19.364-10.189 29.543 0 1.997 5.1 7.076 3.082 7.076-6.134-1.024-17.305-15.257-15.288-22.385-4.055 1.024-13.22-27.464-24.392-30.515-4.106-1.003-10.209-5.079-14.274-3.082-8.131 6.144-13.24 16.322-18.329 25.457-1.004 2.038 3.082 8.141 0 7.096-5.069-1.976-11.182-19.323-7.107-25.416-5.089-1.003-4.066-30.515-13.23-36.639-4.096-2.017-8.141-8.12-13.24-7.137-10.178 3.062-17.275 11.202-25.426 18.34-1.044 2.038 0 9.175-2.038 7.117-4.066-4.055-4.066-22.405 1.004-26.44-4.055-2.017 5.1-30.536-2.028-38.656-3.041-4.096-5.069-10.219-9.165-11.243-11.192 0-20.347 5.099-29.491 10.219-3.041 1.024-3.041 8.141-4.086 6.082-4.066-6.082 2.038-22.385 8.162-25.457-3.051-3.021 15.268-27.464 11.182-37.622-2.028-4.075-2.028-11.223-7.117-13.24-9.165-3.062-20.367-1.045-30.515 0-2.048 0-5.11 7.117-6.134 5.079-1.003-7.117 9.175-21.361 16.282-21.361-2.028-5.12 22.395-21.381 21.371-32.584 0-5.059 2.048-12.196-2.017-14.224-8.151-7.137-18.34-8.161-28.508-10.178-3.041-1.024-8.131 5.079-7.127 3.042 0-7.117 15.268-17.296 21.381-15.237 0-5.12 28.508-14.264 30.526-24.443 1.014-5.1 5.11-10.179 3.062-14.285-6.123-8.12-16.292-13.2-25.436-18.279-2.048-1.044-8.151 1.997-7.148 0 3.082-6.144 19.353-11.202 25.467-7.137 0.993-5.079 30.535-4.055 36.608-14.264 3.062-4.055 8.151-8.141 7.127-12.196-3.041-10.178-11.182-18.34-18.329-25.436-1.004-2.038-9.145 0-7.097-2.038 4.066-5.12 22.395-5.12 26.45 1.004 3.052-4.045 30.526 5.1 39.711-2.038 3.031-3.041 10.148-5.079 10.148-10.158 0-10.158-5.079-20.316-9.144-29.502-1.004-2.058-9.155-3.082-6.124-4.075 5.12-3.041 22.395 2.017 24.433 9.165 4.065-3.062 27.484 14.265 37.653 10.178 5.069-2.058 11.182-2.058 13.22-6.083 3.082-10.199 1.034-20.377 0-30.556 0-3.062-7.117-6.144-4.065-6.144 6.124-1.977 20.357 9.175 20.357 16.323 5.089-2.038 22.384 22.405 33.577 21.361 5.089 0 11.192 2.017 14.264-2.017 6.103-8.141 7.127-19.343 9.144-29.522 1.024-2.038-5.079-7.117-2.007-7.117 6.103 0.983 16.272 15.257 15.257 22.405 4.055-1.024 13.23 27.463 24.423 30.515 4.065 1.024 10.168 5.079 13.23 2.038 9.154-5.1 14.264-15.258 19.344-24.443 1.014-2.017-3.051-8.12-1.024-7.117 6.123 2.017 11.213 19.343 8.141 25.436 4.055 1.024 4.055 30.515 13.209 36.639 4.086 2.017 8.141 8.141 13.261 6.124 9.134-2.017 17.285-10.158 24.412-17.296 2.038-2.058 0-9.175 2.038-7.138 5.099 4.076 5.099 21.381 0 26.46 4.075 2.038-6.103 30.515 1.034 38.656 3.051 4.076 5.079 10.199 10.158 10.199 10.168 1.004 20.368-4.076 29.522-9.175 2.017-1.024 3.041-8.141 4.065-6.083 3.072 6.083-2.048 22.385-8.13 25.436 3.051 3.042-15.288 27.484-11.202 37.622 2.048 4.096 2.048 11.223 6.113 13.24 10.168 3.082 21.371 1.044 31.539 0 2.007 0 5.079-7.096 6.103-5.059 1.024 6.103-9.154 21.361-16.272 21.361 2.007 5.059-5.11 6.062-8.182 8.1z" fill="#1C1E7C" />
</svg>
