<?xml version="1.0" encoding="utf-8"?>
<!-- Generator: Adobe Illustrator 19.0.0, SVG Export Plug-In . SVG Version: 6.00 Build 0)  -->
<svg version="1.1" id="Calque_1" xmlns="http://www.w3.org/2000/svg" xmlns:xlink="http://www.w3.org/1999/xlink" x="0px" y="0px"
	 width="247.2px" height="530.8px" viewBox="-515 135.2 247.2 530.8" style="enable-background:new -515 135.2 247.2 530.8;"
	 xml:space="preserve">
<style type="text/css">
	
		.st0{opacity:0.15;fill:#C3C3C3;stroke:#000000;stroke-width:0.5;stroke-linecap:square;stroke-linejoin:bevel;enable-background:new    ;}
	.st1{opacity:0.15;fill:#C3C3C3;stroke:#000000;stroke-width:0.5;stroke-miterlimit:10;enable-background:new    ;}
	.st2{fill:none;stroke:#9D9D9D;stroke-width:3.0709;stroke-linecap:square;stroke-linejoin:bevel;}
	.st3{fill:none;stroke:#F4AA59;stroke-width:2;}
	.st4{fill:none;}
	.st5{fill:#C3C3C3;}
	.st6{font-family:'Roboto-Bold';}
	.st7{font-size:14px;}
	.st8{opacity:0.5;fill:#5B5B5B;enable-background:new    ;}
	.st9{fill:#4C7D95;}
	.st10{fill:#FFFFFF;}
	.st11{fill:#000333;}
	.st12{fill:none;stroke:#000333;stroke-width:0.5;stroke-miterlimit:10;}
</style>
<g id="Calque_1_1_" xmlns:inkscape="http://www.inkscape.org/namespaces/inkscape">
	<polygon class="st0" points="-403.3,135.2 -402,142 -401.7,147.5 -402.6,150.8 -406.4,158.4 -407.1,163.6 -405.8,168.2 -398,179.5 
		-392.6,191.5 -382.9,205.6 -379,209.1 -369.2,213 -366.3,214.7 -363,218.1 -361.3,222.1 -362.8,235 -364.4,240.4 -366.1,243.3 
		-369.8,245.7 -377.3,246.8 -380.2,247.7 -382.6,249.7 -384.3,252.5 -384.8,255.9 -384.6,259.6 -383.2,265.1 -381.6,268.4 
		-377.1,273.4 -367.2,280.4 -361.4,283.1 -358.2,283.9 -355.1,283.8 -351.9,282.6 -348.2,279.1 -346.5,276 -343.6,266.9 
		-340.2,261.9 -338,259.9 -335.4,258.5 -332.1,259.1 -329.5,261.5 -328,264.2 -327,267.3 -326.8,270.3 -328.2,276.5 -329.1,283.9 
		-332.4,292.8 -332.7,296.3 -332.1,308.9 -335.3,320.8 -334.3,327 -332.6,329.9 -330.8,332.2 -328.2,332.3 -326.3,330.1 -324.8,328 
		-322.1,328 -319.7,329.6 -315.2,335.5 -311.5,338.6 -308.6,339.8 -301.3,340.1 -298,341 -286.6,345.5 -282.2,347.9 -278.8,351.4 
		-267.9,365.1 -267.9,135.2 	"/>
	<polygon class="st1" points="-278.8,351.4 -282.2,347.9 -286.6,345.5 -298,341 -301.3,340.1 -308.6,339.8 -311.5,338.6 
		-315.2,335.5 -319.7,329.6 -322.1,328 -324.8,328 -326.3,330.1 -328.2,332.3 -330.8,332.2 -332.6,329.9 -334.3,327 -335.3,320.8 
		-332.1,308.9 -332.7,296.3 -332.4,292.8 -329.1,283.9 -328.2,276.5 -326.8,270.3 -327,267.3 -328,264.2 -329.5,261.5 -332.1,259.1 
		-335.4,258.5 -338,259.9 -340.2,261.9 -343.6,266.9 -346.5,276 -348.2,279.1 -351.9,282.6 -355.1,283.8 -358.2,283.9 -361.4,283.1 
		-367.2,280.4 -377.1,273.4 -381.6,268.4 -383.2,265.1 -384.6,259.6 -384.8,255.9 -384.3,252.5 -382.6,249.7 -380.2,247.7 
		-377.3,246.8 -369.8,245.7 -366.1,243.3 -364.4,240.4 -362.8,235 -361.3,222.1 -363,218.1 -366.3,214.7 -369.2,213 -379,209.1 
		-382.9,205.6 -392.6,191.5 -398,179.5 -405.8,168.2 -407.1,163.6 -406.4,158.4 -402.6,150.8 -401.7,147.5 -402,142 -403.3,135.2 
		-515,135.2 -515,666 -504.7,666 -492.8,650.5 -475.4,624.3 -469.1,617.6 -458.5,608.7 -447,599.5 -436.4,593.9 -430.2,587.4 
		-427.7,584.2 -424.5,582.2 -418.6,580.4 -401.6,578.2 -396.1,577 -389.6,574.2 -385.6,571.2 -382.3,567.1 -380.5,563.5 
		-375.2,544.7 -372.9,539.2 -357.8,516.6 -354,513 -344.5,506.6 -331,503 -328.1,502.6 -315.9,500.3 -297.1,496.3 -286.8,495.1 
		-267.9,495.6 -267.9,365.1 	"/>
	<polygon class="st1" points="-282.8,581.2 -295.1,581.9 -312.9,585.1 -329,589.2 -348.8,595.7 -371.2,604.6 -393.6,614.7 
		-395.8,615.8 -428.7,633.1 -455.6,650.3 -471.2,661.9 -475.7,666 -267.9,666 -267.9,582.7 -269.6,582.4 	"/>
	<g id="Layer_4" inkscape:groupmode="layer" inkscape:label="Layer 4">
		<g transform="matrix(1,0,0,1,0,0)">
		</g>
		<g transform="matrix(11.8081,0,0,11.8081,0,0)">
		</g>
		<g transform="matrix(11.8081,0,0,11.8081,0,0)">
		</g>
		<g transform="matrix(0.999751,0,0,0.999751,0,0)">
			<path vector-effect="none" class="st2" d="M-455.5,456.7l-0.3-0.1l-0.3,0.1v0.4l0.2,0.3l0.1,0.5l0.1,0.3l0.1,0.3l0.3,0.2l0.2,0.4
				v0.3v0.3l-0.5,0.9l-0.1,0.4v0.3v0.5v0.6v0.3l-0.1,0.3l-0.2,0.9l0.2,0.4l0.2,0.2l0.2,0.3v0.3l-0.1,0.3l-0.1,0.5l-0.3,0.3l-0.4,0.2
				h-0.3l-0.2-0.1l-0.3,0.1l-0.3-0.4l-0.9-0.3h-0.4"/>
			<path vector-effect="none" class="st2" d="M-432.7,579.3l0.1,0.4l0.2,0.4l0.1,0.3l-0.1,0.3v0.2l-0.1,0.2l0.2,0.3l-0.1,0.3
				l0.1,0.4l0.1,0.2l0.1,0.2l0.1,0.3l0.1,0.3h0.3l0.3,0.1h0.3h0.4l0.3,0.1l0.3,0.1l0.3,0.2l0.2,0.3l0.2,0.5"/>
			<path vector-effect="none" class="st2" d="M-424.7,348.5l0.1,0.5l0.1,0.3l-0.1,0.3l-0.3,0.4l-0.9,1l-0.1,0.4v0.6l-0.2,1.1
				l-0.3,1.3l-0.1,0.3l-0.3,0.6l-0.2,0.4l-0.3,0.6l-0.1,0.5l-0.1,0.3l-0.2,0.5l-0.1,0.5v0.4l0.3,0.4l0.4,0.2h0.5l0.7,0.3l0.7,0.4
				l0.4,0.3v0.5l0.1,1.3v0.3v0.4v0.4l-0.1,0.3l-0.1,0.6v0.4v0.4l0.1,0.9l0.1,0.7v0.4l0.1,0.5l0.1,0.3l0.3,0.3l0.6,0.5l0.7,0.5l1,0.8
				l0.6,0.5l0.3,0.3l0.1,0.5l0.1,0.4v0.3l-0.2,0.5l-0.2,0.3l-0.3,0.4l-0.6,0.4l-0.2,0.3l-0.3,0.3l-0.5,0.5l-0.5,0.5l-0.3,0.3
				l-0.2,0.3l-0.2,0.3l-0.3,0.4l-0.6,0.5l-0.9,0.6l-1.2,0.7l-1,0.5l-1.1,0.5l-0.9,0.4l-0.7,0.6l-0.3,0.6l-0.1,0.6v0.3l-0.1,0.7v0.5
				l0.2,0.9l0.1,0.9v1.1l-0.1,1.1v0.7l-0.1,0.5l-0.2,0.5l-0.1,0.3l-0.1,0.3l-0.1,0.3l-0.1,0.3l-0.1,0.6l-0.1,0.3l0.1,0.6l0.2,0.6
				l0.3,0.6l0.4,0.4l0.1,0.3v0.4l0.1,0.5l0.2,0.3l0.2,0.5l0.1,0.3l0.2,0.5l0.1,0.3v0.7v0.5v0.6l-0.2,0.7v0.3v0.3v0.4l-0.1,0.4
				l-0.1,0.5l0.1,0.5l0.2,0.4l0.4,1.1l0.2,0.4l0.4,0.3l0.6,0.4l0.9,0.7l0.7,0.5l0.6,0.5l0.3,0.5l0.2,0.4l0.2,0.6l0.1,0.5l0.2,0.3
				l0.3,0.5l0.1,0.3l0.2,0.6v0.3v0.4l-0.1,0.3l-0.3,0.2h-0.3l-0.4,0.2l-0.3,0.2l-0.3,0.3l-0.2,0.3l-0.2,0.4l-0.2,0.3l-0.2,0.4
				l-0.2,0.3l-0.2,0.3l-0.4,0.4l-0.3,0.4l-0.5,0.6l-0.5,0.6l-0.4,0.4l-0.3,0.3l-0.5,0.6l-0.2,0.4l-0.7,0.6l-0.2,0.3l-0.2,0.5
				l-0.2,0.4l-0.1,0.4l-0.2,0.6l-0.2,0.4l-0.3,0.6l-0.3,0.6l-0.2,0.6l-0.2,0.7l-0.1,0.3l-0.2,0.4l-0.5,0.4l-0.4,0.1l-0.4,0.2
				l-0.3,0.3l-0.2,0.3l-0.2,0.4l-0.2,0.4l-0.3,0.3l-0.2,0.4l-0.4,0.7l-0.3,0.5l-0.2,0.3l-0.3,0.4l-0.3,0.5l-0.6,0.9l-0.5,0.6
				l-0.5,0.6l-0.4,0.4l-0.4,0.5l-0.4,0.5l-0.5,0.4l-0.5,0.1l-0.4,0.1l-0.6,0.2l-0.3,0.2l-0.4,0.3l-0.3,0.2l-0.3,0.2l-0.3,0.2
				l-0.6,0.5l-0.8,0.7l-0.5,0.4l-0.5,0.4l-0.3,0.3l-0.2,0.4l-0.4,0.4l-0.3,0.2l-0.3,0.2l-0.5,0.1l-0.3,0.2l-0.2,0.3l-0.3,0.5
				l-0.6,0.9l-0.3,0.3l-0.3,0.3l-0.4,0.5l-0.3,0.3l-0.4,0.5l-0.2,0.3l-0.2,0.3l-0.1,0.4v0.3l0.1,0.5l0.1,0.4v0.3v0.5l-0.2,0.4
				l-0.3,0.6l-0.3,0.5l-0.1,0.4v0.7l0.3,0.2l0.1,0.4l0.1,0.9v0.3v0.3l0.2,0.3v0.4l0.2,0.5l0.1,0.4l-0.2,0.7v0.2l-0.1,0.3l-0.1,0.3
				l0.2,0.3v0.3l-0.3,0.3l0.1,0.3l-0.2,0.3l-0.2,0.3l-0.2,0.4l-0.2,0.3l-0.2,0.3l-0.2,0.3v0.4l-0.1,0.4v0.3l-0.2,0.4l-0.2,0.3
				l-0.1,0.5l-0.1,0.3l-0.5,0.1"/>
			<path vector-effect="none" class="st2" d="M-370.6,271.6l-0.1,0.1l-0.1,0.4v0.7l0.2,0.4l0.2,0.4l0.1,0.3v0.4l-0.1,0.9v0.6
				l-0.3,0.3l-0.2,0.1l-2,0.9h-0.5l-1.3-1l-0.5-0.1l-1.9,0.8l-0.4,0.3l-0.4,0.5l-0.5,0.7l-0.3,0.4l-0.3,0.1h-0.5l-0.3,0.1l-1.5,1.2
				l-0.4,0.2h-0.7l-0.4-0.2l-0.4-0.3l-0.3-0.2l-0.4-0.4l-1.2-0.4l-0.4-0.2l-0.5-0.1l-0.3,0.2l-0.3,0.2l-0.3,0.4l-0.2,0.3l-0.2,0.5
				l-0.4,0.3l-0.3,0.2l-0.4,0.3l-0.5,0.2l0.1,0.4l0.3,0.2h0.3h0.4l0.1,0.3v0.4v0.3l0.3,0.1v0.3l0.3,0.3l0.2,0.3l-0.2,0.3v0.2
				l0.3,0.3l0.3,0.1l0.3,0.2l0.2,0.3v0.4l0.2,0.4l0.2,0.3l-0.1,0.4l0.1,0.3l0.1,0.3l-0.3,0.2l-0.3,0.5l0.1,0.3l-0.2,0.5l-0.2,0.3
				l-0.5,0.7l-0.1,0.3l-0.3,0.3l-0.4,0.4l-0.2,0.3l-0.1,0.3l-0.3,0.4v0.3l0.3,0.3l0.1,0.3l0.4,0.4l0.1,0.3l0.1,0.3l-0.1,0.3v0.3
				l-0.1,0.3l-0.3,0.1l-0.1,0.4v0.3l0.2,0.4v0.3l-0.1,0.5v0.3l-0.1,0.4l-0.1,0.3l0.1,0.3l0.2,0.6v0.4v0.6l0.1,0.3l-0.1,0.4l-0.1,0.3
				v0.3l0.1,0.3l-0.1,0.5v0.5v0.3v0.3v0.6l0.1,0.3l-0.1,0.3l-0.1,0.5v0.3l-0.1,1l0.2,0.6l0.1,0.3l0.2,0.6l0.1,0.3l0.2,0.7l0.2,0.7
				l0.2,0.6l0.1,0.3l0.1,0.3l0.2,0.5l0.2,0.3l0.2,0.3l0.2,0.5l0.1,0.5v0.3l0.1,0.3l0.1,0.3l0.1,0.3l0.1,0.3l0.1,0.2l0.1,0.1v0.4
				l0.2,0.1h0.3l0.3,0.6l0.3,0.8l-0.4,0.2l-0.7,0.2l-0.3,0.2l-0.1,0.4l0.3,1l0.1,0.6l-0.8-0.1h-0.5l-0.3-0.3l-0.4,0.2l-0.4,0.3
				l-0.4,0.4l-0.3,0.3l-0.5,0.2l-0.3,0.1l-0.4,0.1h-0.4h-0.4h-0.5l-0.5-0.3l-0.3-0.1l-0.2-0.1l-0.5-0.3l-0.4-0.1l-0.5-0.2l-0.7-0.1
				l-0.5,0.1h-0.3l-0.3,0.1l-0.4,0.3l-0.3,0.3l-0.3,0.3l-0.3,0.6l-0.2,0.5l-0.2,0.5l-0.1,0.6l-0.5,0.6l-0.2,0.4l-0.2,0.2l-0.1,0.4
				l-0.2,0.4l-0.2,0.1l-0.4,0.3l-0.4,0.3l-0.4,0.3l-0.4,0.2l-0.2,0.3l-0.3,0.2l-0.2,0.4l-0.6,0.1l-0.5,0.1l-0.6,0.2l-0.4,0.1
				l-0.6,0.4h-0.4l-0.5,0.1l-0.5,0.2l-0.5,0.4l-0.2,0.3l-0.4,0.4l-0.2,0.3l-0.3,0.5l-0.1,0.3l-0.2,0.3l-0.2,0.2l-0.2,0.1l-0.4,0.3
				l-0.3,0.4l-0.3,0.3l-0.5,0.2l-0.4-0.1l-0.3-0.1l-0.4-0.2l-0.4-0.2l-0.5,0.1l-0.4,0.1l-0.5,0.1l-0.2,0.2l-0.5,0.2l-0.8,0.1
				l-0.4,0.2l-0.2,0.2l-0.1,0.3l-0.1,0.6l-0.3,0.4l-0.2,0.3l-0.3,0.3l-0.2,0.4l-0.2,0.3l-0.2,0.3l-0.3,0.4l-0.3,0.4l-0.5,0.4
				l-0.5,0.4l-0.3,0.4l-0.2,0.4l-0.3,0.3l-0.2,0.6l-0.1,0.4l-0.2,0.2l-0.1,0.1l-0.2,0.1l-0.4,0.3l-0.7,0.6l-0.3,0.2l-0.5,0.3
				l-0.4,0.2l-0.3,0.2l-0.5,0.3l-0.5,0.2l-0.3,0.2l-0.2,0.2l-0.2,0.4l-0.3,0.4l-0.2,0.5l-0.1,0.3l-0.2,0.5l-0.2,0.6l-0.3,0.3
				l-0.2,0.3l-0.5,0.7l-0.1,0.4l-0.1,0.6v0.5v0.4v0.4l0.1,0.4v0.5"/>
			<path vector-effect="none" class="st2" d="M-458.9,465.2l0.3,0.2h0.3l-0.1,0.6l-0.1,0.3l0.1,0.3l0.2,0.2"/>
			<path vector-effect="none" class="st2" d="M-458.1,466.8l0.2,0.1l0.4,0.1l0.3,0.2l-0.3,0.2l-0.5,0.3l-0.3,0.2l-0.2,0.3v0.3
				l-0.1,0.3l-0.1,0.4v0.3l-0.2,0.3v0.3l-0.1,0.3l-0.2,0.3l-0.5,0.4l0.1,0.3v0.5v0.6v0.3l-0.3,0.2v0.1"/>
			<path vector-effect="none" class="st2" d="M-460,472.8l-0.2,0.2l-0.4,0.5l-0.5,0.4l-0.4,0.9v0.8l-0.3,0.4l0.1,0.5l-0.7,1.3v0.3v2
				l-0.4,1l0.1,0.5l-0.1,0.8l-0.1,1.8l-0.3,0.8l-0.5,3.4"/>
			<path vector-effect="none" class="st2" d="M-463.7,488.3l0.1,1.3l0.3,0.1l0.3,0.4l0.1,0.4l0.2,0.4v0.3l-0.1,0.2v0.3v0.3l0.5,0.4
				l0.3,0.2l0.2,0.3v0.3v0.4v0.3l0.2,0.3l0.4,0.4l0.1,0.4l0.1,0.4l0.2,0.4l0.2,0.4l0.1,0.3l-0.2,0.3l-0.1,0.3l0.4,0.7l0.2,0.3
				l0.1,0.3l-0.3,0.3l-0.2,0.3l-0.2,0.4l-0.1,0.3l-0.2,0.3l-0.2,0.3v0.3l-0.1,0.4l-0.4,0.7l-0.2,0.4l-0.1,0.3l-0.1,0.5l-0.1,0.5v0.3
				l-0.1,0.3v0.3v0.4l-0.1,0.4l-0.1,0.2l-0.2,0.4l-0.1,0.4l-0.1,0.3l-0.1,0.5v0.5l-0.1,0.3l-0.3,0.5v0.4l0.1,0.6l0.1,0.3l0.2,0.4
				l0.4,0.4l0.1,0.3l0.1,0.3l0.1,0.3v0.4l-0.2,0.3l-0.3,0.3l-0.1,0.2v0.5l-0.2,0.3v0.3v0.3v0.2l0.3,0.4l0.1,0.3l0.3,0.3h0.4l0.4-0.1
				l0.3-0.1l0.3,0.1l0.3,0.1l0.4,0.1l0.2-0.5l0.3-0.2h0.3h0.3l0.4,0.1l0.3,0.2l0.3,0.7l0.2,0.5v0.5v0.3v0.5l0.1,0.9v0.3l-0.2,0.4
				v0.3l0.1,0.4l0.1,0.5v0.3l-0.1,0.4l-0.2,0.1l-0.3,0.3l-0.6,0.1l-0.1,0.3l-0.1,0.4v0.3v0.3l-0.3,0.4l-0.2,0.3v0.6l0.2,0.5l0.3,0.1
				l0.3,0.3l0.2,0.3l0.1,0.6v0.3l-0.1,0.3l-0.1,0.3l-0.1,0.3v0.3v0.3v0.4v0.4l-0.1,0.3l-0.1,0.3l0.2,0.3l0.5,0.6l0.1,0.3l0.2,0.3
				l0.3,0.3l0.1,0.3l-0.2,0.1l-0.2,0.3l-0.2,0.4l-0.1,0.3l-0.5,0.2l-0.1,0.4l-0.1,0.4l-0.2,0.3l0.1,0.4l0.3,0.2l0.3,0.2l-0.1,0.5
				l-0.1,0.4l-0.1,0.3l-0.2,0.3l0.1,0.4l0.1,0.3l0.2,0.2l0.3,0.3l0.3,0.2l0.1,0.3l-0.1,0.4v0.3l-0.2,0.2l-0.1,0.4l-0.2,0.3v0.3
				l0.1,0.3l0.3,0.2l0.3,0.2l0.5,0.2h0.3l0.5,0.2l0.3,0.2l0.3,0.4l0.3,0.2l0.2,0.1l0.2,0.3l0.3,0.5l-0.1,0.3l-0.1,0.4h-0.4l-0.2,0.3
				l0.1,0.4l0.1,0.4v0.4l0.3,0.2l0.3,0.2l0.1,0.2l0.1,0.5l0.1,0.3l0.3,0.5l0.2,0.3l0.3,0.3l0.1,0.3"/>
			<path vector-effect="none" class="st2" d="M-453.9,547l-0.1,0.3l-0.1,0.4l-0.2,0.3l-0.2,0.3l-0.2,0.4l0.1,0.5l0.1,0.3v0.3
				l0.3,0.3l0.1,0.5l0.1,0.3l0.3,0.4l0.1,0.2l0.3,0.1h0.3l0.8,0.4l0.3,0.4v0.3l0.3,0.6l0.4,0.3l0.2,0.1l0.4,0.2l0.3,0.2l0.4,0.1
				l0.3,0.1l0.4,0.3l0.2,0.3v0.3l0.2,0.3l0.3,0.4v0.3l-0.2,0.4l0.3,0.2l0.2,0.3l0.2,0.3l-0.1,0.2l0.1,0.5l0.1,0.3v0.3v0.3l-0.2,0.3
				l-0.1,0.2l-0.1,0.2v0.3l0.2,0.5l0.2,0.3l0.2,0.3l0.1,0.2l0.4,0.2l0.1,0.5v0.4l-0.1,0.4v0.3l-0.1,0.4l-0.2,0.3l-0.3,0.4l-0.1,0.3
				l0.2,0.4l0.2,0.3l0.2,0.4l-0.1,0.3l-0.1,0.4l0.1,0.3v0.4l0.1,0.3l0.1,0.3l0.4,0.1l0.1,0.4l0.2,0.3l0.4-0.2l0.4-0.1l0.4-0.2
				l0.5-0.1l0.3,0.2h0.3l0.3,0.3l0.2,0.4v0.4l-0.1,0.3v0.3l-0.1,0.2l0.1,0.6l0.1,0.4l0.1,0.4v0.3l0.1,0.3l0.1,0.3l0.1,0.3l0.1,0.4
				l0.1,0.3l0.1,0.8l0.2,0.3l0.2,0.4l0.3,0.2l0.5,0.1l0.4-0.1l0.2,0.1l-0.2,0.3l-0.1,0.3l0.1,0.3l0.1,0.4l0.3,0.4l0.3,0.1l0.3,0.1
				l0.3-0.1l0.5-0.3l0.2-0.2l0.4,0.1l0.4,0.1l0.3,0.3l0.5,0.4h0.3l0.3,0.1v0.3l-0.1,0.3v0.3l0.3,0.1l0.2-0.2l0.1-0.2l0.3-0.1h0.3
				l0.3,0.1h0.3l0.5,0.1l0.3,0.2l0.3-0.1l0.3-0.2l0.1,0.6l0.2,0.2l0.1,0.3l0.3,0.2l0.4,0.1l0.3,0.3h0.3l0.3,0.1l0.2,0.3"/>
		</g>
		<g transform="matrix(0.999751,0,0,0.999751,0,0)">
			<path vector-effect="none" class="st3" d="M-370.6,271.6l-0.1,0.1l-0.1,0.4v0.7l0.2,0.4l0.2,0.4l0.1,0.3v0.4l-0.1,0.9v0.6
				l-0.3,0.3l-0.2,0.1l-2,0.9h-0.5l-1.3-1l-0.5-0.1l-1.9,0.8l-0.4,0.3l-0.4,0.5l-0.5,0.7l-0.3,0.4l-0.3,0.1h-0.5l-0.3,0.1l-1.5,1.2
				l-0.4,0.2h-0.7l-0.4-0.2l-0.4-0.3l-0.3-0.2l-0.4-0.4l-1.2-0.4l-0.4-0.2l-0.5-0.1l-0.3,0.2l-0.3,0.2l-0.3,0.4l-0.2,0.3l-0.2,0.5
				l-0.4,0.3l-0.3,0.2l-0.4,0.3l-0.5,0.2l0.1,0.4l0.3,0.2h0.3h0.4l0.1,0.3v0.4v0.3l0.3,0.1v0.3l0.3,0.3l0.2,0.3l-0.2,0.3v0.2
				l0.3,0.3l0.3,0.1l0.3,0.2l0.2,0.3v0.4l0.2,0.4l0.2,0.3l-0.1,0.4l0.1,0.3l0.1,0.3l-0.3,0.2l-0.3,0.5l0.1,0.3l-0.2,0.5l-0.2,0.3
				l-0.5,0.7l-0.1,0.3l-0.3,0.3l-0.4,0.4l-0.2,0.3l-0.1,0.3l-0.3,0.4v0.3l0.3,0.3l0.1,0.3l0.4,0.4l0.1,0.3l0.1,0.3l-0.1,0.3v0.3
				l-0.1,0.3l-0.3,0.1l-0.1,0.4v0.3l0.2,0.4v0.3l-0.1,0.5v0.3l-0.1,0.4l-0.1,0.3l0.1,0.3l0.2,0.6v0.4v0.6l0.1,0.3l-0.1,0.4l-0.1,0.3
				v0.3l0.1,0.3l-0.1,0.5v0.5v0.3v0.3v0.6l0.1,0.3l-0.1,0.3l-0.1,0.5v0.3l-0.1,1l0.2,0.6l0.1,0.3l0.2,0.6l0.1,0.3l0.2,0.7l0.2,0.7
				l0.2,0.6l0.1,0.3l0.1,0.3l0.2,0.5l0.2,0.3l0.2,0.3l0.2,0.5l0.1,0.5v0.3l0.1,0.3l0.1,0.3l0.1,0.3l0.1,0.3l0.1,0.2l0.1,0.1v0.4
				l0.2,0.1h0.3l0.3,0.6l0.3,0.8l-0.4,0.2l-0.7,0.2l-0.3,0.2l-0.1,0.4l0.3,1l0.1,0.6l-0.8-0.1h-0.5l-0.3-0.3l-0.4,0.2l-0.4,0.3
				l-0.4,0.4l-0.3,0.3l-0.5,0.2l-0.3,0.1l-0.4,0.1h-0.4h-0.4h-0.5l-0.5-0.3l-0.3-0.1l-0.2-0.1l-0.5-0.3l-0.4-0.1l-0.5-0.2l-0.7-0.1
				l-0.5,0.1h-0.3l-0.3,0.1l-0.4,0.3l-0.3,0.3l-0.3,0.3l-0.3,0.6l-0.2,0.5l-0.2,0.5l-0.1,0.6l-0.5,0.6l-0.2,0.4l-0.2,0.2l-0.1,0.4
				l-0.2,0.4l-0.2,0.1l-0.4,0.3l-0.4,0.3l-0.4,0.3l-0.4,0.2l-0.2,0.3l-0.3,0.2l-0.2,0.4l-0.6,0.1l-0.5,0.1l-0.6,0.2l-0.4,0.1
				l-0.6,0.4h-0.4l-0.5,0.1l-0.5,0.2l-0.5,0.4l-0.2,0.3l-0.4,0.4l-0.2,0.3l-0.3,0.5l-0.1,0.3l-0.2,0.3l-0.2,0.2l-0.2,0.1l-0.4,0.3
				l-0.3,0.4l-0.3,0.3l-0.5,0.2l-0.4-0.1l-0.3-0.1l-0.4-0.2l-0.4-0.2l-0.5,0.1l-0.4,0.1l-0.5,0.1l-0.2,0.2l-0.5,0.2l-0.8,0.1
				l-0.4,0.2l-0.2,0.2l-0.1,0.3l-0.1,0.6l-0.3,0.4l-0.2,0.3l-0.3,0.3l-0.2,0.4l-0.2,0.3l-0.2,0.3l-0.3,0.4l-0.3,0.4l-0.5,0.4
				l-0.5,0.4l-0.3,0.4l-0.2,0.4l-0.3,0.3l-0.2,0.6l-0.1,0.4l-0.2,0.2l-0.1,0.1l-0.2,0.1l-0.4,0.3l-0.7,0.6l-0.3,0.2l-0.5,0.3
				l-0.4,0.2l-0.3,0.2l-0.5,0.3l-0.5,0.2l-0.3,0.2l-0.2,0.2l-0.2,0.4l-0.3,0.4l-0.2,0.5l-0.1,0.3l-0.2,0.5l-0.2,0.6l-0.3,0.3
				l-0.2,0.3l-0.5,0.7l-0.1,0.4l-0.1,0.6v0.5v0.4v0.4l0.1,0.4v0.5l-0.2,0l0.1,0.5l0.1,0.3l-0.1,0.3l-0.3,0.4l-0.9,1l-0.1,0.4v0.6
				l-0.2,1.1l-0.3,1.3l-0.1,0.3l-0.3,0.6l-0.2,0.4l-0.3,0.6l-0.1,0.5l-0.1,0.3l-0.2,0.5l-0.1,0.5v0.4l0.3,0.4l0.4,0.2h0.5l0.7,0.3
				l0.7,0.4l0.4,0.3v0.5l0.1,1.3v0.3v0.4v0.4l-0.1,0.3l-0.1,0.6v0.4v0.4l0.1,0.9l0.1,0.7v0.4l0.1,0.5l0.1,0.3l0.3,0.3l0.6,0.5
				l0.7,0.5l1,0.8l0.6,0.5l0.3,0.3l0.1,0.5l0.1,0.4v0.3l-0.2,0.5l-0.2,0.3l-0.3,0.4l-0.6,0.4l-0.2,0.3l-0.3,0.3l-0.5,0.5l-0.5,0.5
				l-0.3,0.3l-0.2,0.3l-0.2,0.3l-0.3,0.4l-0.6,0.5l-0.9,0.6l-1.2,0.7l-1,0.5l-1.1,0.5l-0.9,0.4l-0.7,0.6l-0.3,0.6l-0.1,0.6v0.3
				l-0.1,0.7v0.5l0.2,0.9l0.1,0.9v1.1l-0.1,1.1v0.7l-0.1,0.5l-0.2,0.5l-0.1,0.3l-0.1,0.3l-0.1,0.3l-0.1,0.3l-0.1,0.6l-0.1,0.3
				l0.1,0.6l0.2,0.6l0.3,0.6l0.4,0.4l0.1,0.3v0.4l0.1,0.5l0.2,0.3l0.2,0.5l0.1,0.3l0.2,0.5l0.1,0.3v0.7v0.5v0.6l-0.2,0.7v0.3v0.3
				v0.4l-0.1,0.4l-0.1,0.5l0.1,0.5l0.2,0.4l0.4,1.1l0.2,0.4l0.4,0.3l0.6,0.4l0.9,0.7l0.7,0.5l0.6,0.5l0.3,0.5l0.2,0.4l0.2,0.6
				l0.1,0.5l0.2,0.3l0.3,0.5l0.1,0.3l0.2,0.6v0.3v0.4l-0.1,0.3l-0.3,0.2h-0.3l-0.4,0.2l-0.3,0.2l-0.3,0.3l-0.2,0.3l-0.2,0.4
				l-0.2,0.3l-0.2,0.4l-0.2,0.3l-0.2,0.3l-0.4,0.4l-0.3,0.4l-0.5,0.6l-0.5,0.6l-0.4,0.4l-0.3,0.3l-0.5,0.6l-0.2,0.4l-0.7,0.6
				l-0.2,0.3l-0.2,0.5l-0.2,0.4l-0.1,0.4l-0.2,0.6l-0.2,0.4l-0.3,0.6l-0.3,0.6l-0.2,0.6l-0.2,0.7l-0.1,0.3l-0.2,0.4l-0.5,0.4
				l-0.4,0.1l-0.4,0.2l-0.3,0.3l-0.2,0.3l-0.2,0.4l-0.2,0.4l-0.3,0.3l-0.2,0.4l-0.4,0.7l-0.3,0.5l-0.2,0.3l-0.3,0.4l-0.3,0.5
				l-0.6,0.9l-0.5,0.6l-0.5,0.6l-0.4,0.4l-0.4,0.5l-0.4,0.5l-0.5,0.4l-0.5,0.1l-0.4,0.1l-0.6,0.2l-0.3,0.2l-0.4,0.3l-0.3,0.2
				l-0.3,0.2l-0.3,0.2l-0.6,0.5l-0.8,0.7l-0.5,0.4l-0.5,0.4l-0.3,0.3l-0.2,0.4l-0.4,0.4l-0.3,0.2l-0.3,0.2l-0.5,0.1l-0.3,0.2
				l-0.2,0.3l-0.3,0.5l-0.6,0.9l-0.3,0.3l-0.3,0.3l-0.4,0.5l-0.3,0.3l-0.4,0.5l-0.2,0.3l-0.2,0.3l-0.1,0.4v0.3l0.1,0.5l0.1,0.4v0.3
				v0.5l-0.2,0.4l-0.3,0.6l-0.3,0.5l-0.1,0.4v0.7l0.3,0.2l0.1,0.4l0.1,0.9v0.3v0.3l0.2,0.3v0.4l0.2,0.5l0.1,0.4l-0.2,0.7v0.2
				l-0.1,0.3l-0.1,0.3l0.2,0.3v0.3l-0.3,0.3l0.1,0.3l-0.2,0.3l-0.2,0.3l-0.2,0.4l-0.2,0.3l-0.2,0.3l-0.2,0.3v0.4l-0.1,0.4v0.3
				l-0.2,0.4l-0.2,0.3l-0.1,0.5l-0.1,0.3l-0.5,0.1l-0.4-0.5l-0.3-0.1l-0.3,0.1v0.4l0.2,0.3l0.1,0.5l0.1,0.3l0.1,0.3l0.3,0.2l0.2,0.4
				v0.3v0.3l-0.5,0.9l-0.1,0.4v0.3v0.5v0.6v0.3l-0.1,0.3l-0.2,0.9l0.2,0.4l0.2,0.2l0.2,0.3v0.3l-0.1,0.3l-0.1,0.5l-0.3,0.3l-0.4,0.2
				h-0.3l-0.2-0.1l-0.3,0.1l-0.3-0.4l-0.9-0.3h-0.4l-0.2-0.5l0.3,0.2h0.3l-0.1,0.6l-0.1,0.3l0.1,0.3l0.2,0.2l0.1,0l0.2,0.1l0.4,0.1
				l0.3,0.2l-0.3,0.2l-0.5,0.3l-0.3,0.2l-0.2,0.3v0.3l-0.1,0.3l-0.1,0.4v0.3l-0.2,0.3v0.3l-0.1,0.3l-0.2,0.3l-0.5,0.4l0.1,0.3v0.5
				v0.6v0.3l-0.3,0.2v0.1l-0.1-0.3l-0.2,0.2l-0.4,0.5l-0.5,0.4l-0.4,0.9v0.8l-0.3,0.4l0.1,0.5l-0.7,1.3v0.3v2l-0.4,1l0.1,0.5
				l-0.1,0.8l-0.1,1.8l-0.3,0.8l-0.5,3.4l0-0.1l0.1,1.3l0.3,0.1l0.3,0.4l0.1,0.4l0.2,0.4v0.3l-0.1,0.2v0.3v0.3l0.5,0.4l0.3,0.2
				l0.2,0.3v0.3v0.4v0.3l0.2,0.3l0.4,0.4l0.1,0.4l0.1,0.4l0.2,0.4l0.2,0.4l0.1,0.3l-0.2,0.3l-0.1,0.3l0.4,0.7l0.2,0.3l0.1,0.3
				l-0.3,0.3l-0.2,0.3l-0.2,0.4l-0.1,0.3l-0.2,0.3l-0.2,0.3v0.3l-0.1,0.4l-0.4,0.7l-0.2,0.4l-0.1,0.3l-0.1,0.5l-0.1,0.5v0.3
				l-0.1,0.3v0.3v0.4l-0.1,0.4l-0.1,0.2l-0.2,0.4l-0.1,0.4l-0.1,0.3l-0.1,0.5v0.5l-0.1,0.3l-0.3,0.5v0.4l0.1,0.6l0.1,0.3l0.2,0.4
				l0.4,0.4l0.1,0.3l0.1,0.3l0.1,0.3v0.4l-0.2,0.3l-0.3,0.3l-0.1,0.2v0.5l-0.2,0.3v0.3v0.3v0.2l0.3,0.4l0.1,0.3l0.3,0.3h0.4l0.4-0.1
				l0.3-0.1l0.3,0.1l0.3,0.1l0.4,0.1l0.2-0.5l0.3-0.2h0.3h0.3l0.4,0.1l0.3,0.2l0.3,0.7l0.2,0.5v0.5v0.3v0.5l0.1,0.9v0.3l-0.2,0.4
				v0.3l0.1,0.4l0.1,0.5v0.3l-0.1,0.4l-0.2,0.1l-0.3,0.3l-0.6,0.1l-0.1,0.3l-0.1,0.4v0.3v0.3l-0.3,0.4l-0.2,0.3v0.6l0.2,0.5l0.3,0.1
				l0.3,0.3l0.2,0.3l0.1,0.6v0.3l-0.1,0.3l-0.1,0.3l-0.1,0.3v0.3v0.3v0.4v0.4l-0.1,0.3l-0.1,0.3l0.2,0.3l0.5,0.6l0.1,0.3l0.2,0.3
				l0.3,0.3l0.1,0.3l-0.2,0.1l-0.2,0.3l-0.2,0.4l-0.1,0.3l-0.5,0.2l-0.1,0.4l-0.1,0.4l-0.2,0.3l0.1,0.4l0.3,0.2l0.3,0.2l-0.1,0.5
				l-0.1,0.4l-0.1,0.3l-0.2,0.3l0.1,0.4l0.1,0.3l0.2,0.2l0.3,0.3l0.3,0.2l0.1,0.3l-0.1,0.4v0.3l-0.2,0.2l-0.1,0.4l-0.2,0.3v0.3
				l0.1,0.3l0.3,0.2l0.3,0.2l0.5,0.2h0.3l0.5,0.2l0.3,0.2l0.3,0.4l0.3,0.2l0.2,0.1l0.2,0.3l0.3,0.5l-0.1,0.3l-0.1,0.4h-0.4l-0.2,0.3
				l0.1,0.4l0.1,0.4v0.4l0.3,0.2l0.3,0.2l0.1,0.2l0.1,0.5l0.1,0.3l0.3,0.5l0.2,0.3l0.3,0.3l0.1,0.3l0.1,0l-0.1,0.3l-0.1,0.4
				l-0.2,0.3l-0.2,0.3l-0.2,0.4l0.1,0.5l0.1,0.3v0.3l0.3,0.3l0.1,0.5l0.1,0.3l0.3,0.4l0.1,0.2l0.3,0.1h0.3l0.8,0.4l0.3,0.4v0.3
				l0.3,0.6l0.4,0.3l0.2,0.1l0.4,0.2l0.3,0.2l0.4,0.1l0.3,0.1l0.4,0.3l0.2,0.3v0.3l0.2,0.3l0.3,0.4v0.3l-0.2,0.4l0.3,0.2l0.2,0.3
				l0.2,0.3l-0.1,0.2l0.1,0.5l0.1,0.3v0.3v0.3l-0.2,0.3l-0.1,0.2l-0.1,0.2v0.3l0.2,0.5l0.2,0.3l0.2,0.3l0.1,0.2l0.4,0.2l0.1,0.5v0.4
				l-0.1,0.4v0.3l-0.1,0.4l-0.2,0.3l-0.3,0.4l-0.1,0.3l0.2,0.4l0.2,0.3l0.2,0.4l-0.1,0.3l-0.1,0.4l0.1,0.3v0.4l0.1,0.3l0.1,0.3
				l0.4,0.1l0.1,0.4l0.2,0.3l0.4-0.2l0.4-0.1l0.4-0.2l0.5-0.1l0.3,0.2h0.3l0.3,0.3l0.2,0.4v0.4l-0.1,0.3v0.3l-0.1,0.2l0.1,0.6
				l0.1,0.4l0.1,0.4v0.3l0.1,0.3l0.1,0.3l0.1,0.3l0.1,0.4l0.1,0.3l0.1,0.8l0.2,0.3l0.2,0.4l0.3,0.2l0.5,0.1l0.4-0.1l0.2,0.1
				l-0.2,0.3l-0.1,0.3l0.1,0.3l0.1,0.4l0.3,0.4l0.3,0.1l0.3,0.1l0.3-0.1l0.5-0.3l0.2-0.2l0.4,0.1l0.4,0.1l0.3,0.3l0.5,0.4h0.3
				l0.3,0.1v0.3l-0.1,0.3v0.3l0.3,0.1l0.2-0.2l0.1-0.2l0.3-0.1h0.3l0.3,0.1h0.3l0.5,0.1l0.3,0.2l0.3-0.1l0.3-0.2l0.1,0.6l0.2,0.2
				l0.1,0.3l0.3,0.2l0.4,0.1l0.3,0.3h0.3l0.3,0.1l0.2,0.3l-0.8-0.7l0.1,0.4l0.2,0.4l0.1,0.3l-0.1,0.3v0.2l-0.1,0.2l0.2,0.3l-0.1,0.3
				l0.1,0.4l0.1,0.2l0.1,0.2l0.1,0.3l0.1,0.3h0.3l0.3,0.1h0.3h0.4l0.3,0.1l0.3,0.1l0.3,0.2l0.2,0.3l0.2,0.5"/>
		</g>
		<g transform="matrix(11.8081,0,0,11.8081,0,0)">
		</g>
		<g transform="matrix(11.8081,0,0,11.8081,0,0)">
		</g>
		<g transform="matrix(11.8081,0,0,11.8081,0,0)">
		</g>
		<g transform="matrix(1,0,0,1,0,0)">
		</g>
		<g transform="matrix(11.8081,0,0,11.8081,0,0)">
		</g>
		<g transform="matrix(11.8081,0,0,11.8081,0,0)">
		</g>
		<g transform="matrix(11.8081,0,0,11.8081,0,0)">
		</g>
		<g transform="matrix(11.8081,0,0,11.8081,0,0)">
		</g>
		<g transform="matrix(1,0,0,1,0,0)">
		</g>
	</g>
	<rect x="-374.9" y="151" class="st4" width="107" height="37"/>
	<g>
		<text transform="matrix(1 0 0 1 -374.8325 161.6689)" class="st5 st6 st7">TERRE-NEUVE-</text>
	</g>
	<text transform="matrix(1 0 0 1 -374.8325 178.4689)" class="st5 st6 st7">ET-LABRADOR</text>
	<polygon class="st4" points="-279.8,188 -255.7,188 -255.7,188 	"/>
	<rect x="-470.8" y="206" class="st4" width="65.3" height="18.5"/>
	<text transform="matrix(1 0 0 1 -470.7865 216.6689)" class="st8 st6 st7">QUÉBEC</text>
</g>
<g id="Calque_2">
	<circle class="st9" cx="-426.3" cy="587.2" r="3.5"/>
	<circle class="st9" cx="-329.8" cy="505" r="3.5"/>
	<rect x="-426.8" y="557.7" class="st10" width="91.3" height="24.1"/>
	<circle class="st9" cx="-381.8" cy="279.4" r="3.5"/>
	<rect x="-384.1" y="283.6" class="st10" width="72" height="19.6"/>
	<rect x="-352.6" y="478.4" class="st10" width="70" height="19.6"/>
	<polygon class="st4" points="-273,482.2 -344,482.2 -347.1,494.7 -276.1,494.7 	"/>
	<text transform="matrix(1 0 0 1 -344.2544 492.8526)" class="st11 st6 st7">Sept-Îles</text>
	<rect x="-423.8" y="562.7" class="st4" width="91" height="27"/>
	<text transform="matrix(1 0 0 1 -423.7776 573.3761)" class="st11 st6 st7">Baie-Comeau</text>
	<rect x="-373.8" y="287.4" class="st4" width="89" height="23"/>
	<text transform="matrix(1 0 0 1 -373.7961 298.0464)" class="st11 st6 st7">Fermont</text>
</g>
<rect x="-417.8" y="392.7" class="st10" width="91.5" height="19.6"/>
<text transform="matrix(1 0 0 1 -415.7961 407.0066)" class="st11 st6 st7">Relais Gabriel</text>
<circle class="st9" cx="-427.4" cy="403.5" r="3.5"/>
<rect x="-495.3" y="354.3" class="st10" width="54" height="19.6"/>
<text transform="matrix(1 0 0 1 -493.2746 368.6065)" class="st11 st6 st7">Gagnon</text>
<circle class="st9" cx="-432.1" cy="364.1" r="3.5"/>
<rect x="-412.3" y="369.6" class="st10" width="112.5" height="19.6"/>
<text transform="matrix(1 0 0 1 -410.2961 383.9066)" class="st11 st6 st7">Station Uapishka</text>
<circle class="st9" cx="-431.8" cy="392.6" r="3.5"/>
<line class="st12" x1="-413.1" y1="379.4" x2="-432.1" y2="379.3"/>
<line class="st12" x1="-431.8" y1="379.3" x2="-431.8" y2="388.5"/>
</svg>
