<?xml version="1.0" encoding="UTF-8" standalone="no"?>
<svg
   xmlns:dc="http://purl.org/dc/elements/1.1/"
   xmlns:cc="http://creativecommons.org/ns#"
   xmlns:rdf="http://www.w3.org/1999/02/22-rdf-syntax-ns#"
   xmlns:svg="http://www.w3.org/2000/svg"
   xmlns="http://www.w3.org/2000/svg"
   xmlns:xlink="http://www.w3.org/1999/xlink"
   xmlns:sodipodi="http://sodipodi.sourceforge.net/DTD/sodipodi-0.dtd"
   xmlns:inkscape="http://www.inkscape.org/namespaces/inkscape"
   version="1.0"
   width="8297.000000pt"
   height="1500.000000pt"
   viewBox="0 0 8297.000000 1500.000000"
   preserveAspectRatio="xMidYMid meet"
   id="svg2"
   inkscape:version="0.91 r13725"
   sodipodi:docname="logo_devoir_avecD2.svg">
  <defs
     id="defs20" />
  <sodipodi:namedview
     pagecolor="#ffffff"
     bordercolor="#666666"
     borderopacity="1"
     objecttolerance="10"
     gridtolerance="10"
     guidetolerance="10"
     inkscape:pageopacity="0"
     inkscape:pageshadow="2"
     inkscape:window-width="1303"
     inkscape:window-height="745"
     id="namedview18"
     showgrid="false"
     inkscape:zoom="0.03432566"
     inkscape:cx="5053.0711"
     inkscape:cy="-665.04555"
     inkscape:window-x="1432"
     inkscape:window-y="323"
     inkscape:window-maximized="1"
     inkscape:current-layer="layer1" />
  <metadata
     id="metadata4">
Created by potrace 1.13, written by Peter Selinger 2001-2015
<rdf:RDF>
  <cc:Work
     rdf:about="">
    <dc:format>image/svg+xml</dc:format>
    <dc:type
       rdf:resource="http://purl.org/dc/dcmitype/StillImage" />
    <dc:title />
  </cc:Work>
</rdf:RDF>
</metadata>
  <g
     inkscape:groupmode="layer"
     id="layer1"
     inkscape:label="Layer 2">
    <rect
       style="opacity:1;fill:#ffffff"
       id="rect3428"
       width="8157.1631"
       height="1421.677"
       x="116.5309"
       y="31.710678" />
  </g>
  <g
     inkscape:groupmode="layer"
     id="layer2"
     inkscape:label="Layer 1" />
  <g
     transform="translate(0.000000,1500.000000) scale(0.100000,-0.100000)"
     id="g6"
     stroke="none"
     fill="#000000">
    <path
       d="m 0,15000 41485,0 41485,0 0,-7500 L 82970,0 41485,0 0,0 0,7500 Z m 62796,-1480 c -405,-125 -807,-346 -1161,-641 -123,-102 -354,-333 -456,-454 -327,-389 -636,-899 -863,-1422 -632,-1463 -832,-3478 -526,-5299 281,-1671 981,-3028 1951,-3786 259,-203 582,-387 872,-496 763,-289 1672,-249 2412,107 1100,529 1952,1730 2384,3357 206,775 305,1517 318,2369 31,2116 -522,3997 -1518,5160 -647,757 -1396,1156 -2299,1225 -372,28 -775,-15 -1114,-120 z m -36787,-66 c -368,5 -547,-3 -592,-24 -36,-18 -45,-54 -22,-97 10,-18 24,-38 30,-43 7,-6 177,-14 401,-20 214,-6 444,-13 510,-16 l 122,-6 6,-1301 c 4,-716 6,-3311 4,-5767 l -3,-4465 -105,-12 c -128,-15 -565,-33 -787,-33 l -163,0 0,-85 0,-85 3803,0 3803,0 -1,2353 c -1,1293 -6,2417 -10,2496 l -8,145 -32,-37 c -65,-75 -83,-126 -184,-528 -289,-1144 -528,-1838 -876,-2544 -258,-524 -469,-845 -723,-1101 -281,-283 -545,-430 -906,-504 -328,-67 -645,-77 -1468,-44 l -178,7 0,2837 0,2837 46,7 c 71,9 335,7 464,-4 462,-41 713,-168 945,-480 351,-472 514,-1031 631,-2158 10,-89 21,-162 27,-162 16,0 72,65 93,107 19,37 19,104 22,2798 2,3078 8,2816 -67,2896 -21,21 -42,39 -47,39 -5,0 -20,-91 -32,-202 -115,-998 -294,-1607 -619,-2103 -98,-149 -182,-240 -287,-310 -230,-153 -558,-217 -1013,-198 l -163,6 0,2769 c 0,2206 3,2770 13,2773 28,10 311,26 567,32 293,6 663,-8 855,-33 456,-59 889,-308 1234,-709 141,-163 234,-305 384,-582 353,-650 610,-1461 868,-2738 18,-88 36,-164 40,-169 4,-5 37,-5 73,-1 l 66,7 0,2224 0,2224 -3188,0 c -1754,0 -3344,2 -3533,4 z m 10052,-12 c 0,-4 15,-41 32,-82 l 33,-75 114,-7 c 63,-4 290,-11 503,-17 214,-5 392,-12 395,-16 4,-4 7,-2599 7,-5768 l 0,-5762 -48,-7 c -112,-16 -355,-28 -684,-34 -194,-4 -353,-8 -353,-10 0,-1 15,-37 33,-81 l 34,-78 734,-6 c 404,-3 1472,-4 2374,-2 1768,5 1772,5 2030,58 508,106 987,336 1435,691 171,136 474,439 614,614 126,158 302,419 411,609 488,854 778,1864 880,3066 48,571 48,1282 0,1860 -127,1521 -573,2781 -1310,3705 -647,810 -1607,1323 -2520,1345 -509,13 -4716,10 -4714,-3 z m 16006,18 -41,-2 c -23,-2 -1664,-4 -3647,-5 l -3606,-3 -7,-81 c -4,-45 -5,-83 -3,-86 3,-2 209,-8 458,-14 250,-5 481,-12 515,-15 l 61,-5 7,-82 c 3,-45 6,-2639 6,-5764 l 0,-5683 -22,-5 c -102,-22 -689,-50 -895,-43 l -123,5 0,-36 c 0,-20 -3,-60 -6,-88 l -7,-53 3804,0 3804,0 -3,2327 c -1,1281 -6,2402 -10,2491 l -7,164 -50,-64 -51,-63 -73,-285 c -312,-1225 -561,-1960 -892,-2640 -187,-383 -370,-692 -538,-910 -89,-115 -275,-305 -386,-395 -217,-176 -459,-293 -707,-344 -241,-50 -345,-56 -978,-56 -549,0 -597,1 -627,18 -18,9 -37,26 -43,36 -7,14 -9,915 -8,2833 l 3,2813 175,3 c 453,8 761,-59 999,-216 171,-113 338,-337 497,-667 171,-355 277,-748 343,-1275 20,-156 51,-507 51,-571 l 0,-30 70,3 71,3 2,2862 2,2862 -65,7 c -36,4 -67,6 -70,4 -3,-1 -13,-95 -22,-209 -72,-864 -282,-1558 -633,-2087 -202,-304 -466,-433 -952,-465 -98,-6 -232,-8 -320,-4 l -153,7 0,2562 c 0,1408 3,2658 7,2778 l 6,216 156,8 c 86,4 336,8 556,8 414,1 546,-7 775,-45 342,-57 662,-219 940,-475 262,-241 457,-506 643,-872 335,-660 565,-1390 807,-2563 29,-143 46,-202 65,-230 27,-42 101,-97 113,-85 14,14 21,1444 15,2969 z m 1168,-10 c -275,-4 -550,-8 -611,-9 l -110,-1 -24,-75 c -13,-41 -21,-77 -19,-80 3,-3 116,-9 251,-14 365,-15 429,-32 539,-148 90,-94 146,-220 219,-492 40,-148 202,-867 1320,-5841 606,-2695 1186,-5276 1197,-5317 l 5,-23 432,0 432,0 183,778 c 240,1022 711,2997 1116,4687 681,2841 859,3585 1230,5140 183,766 302,1036 503,1143 96,51 150,61 372,70 173,7 209,11 233,27 55,35 79,125 35,125 -13,0 -63,5 -113,10 -253,26 -542,31 -1376,24 l -857,-7 -7,-79 c -3,-44 -4,-83 0,-86 4,-4 131,-10 283,-13 305,-6 357,-14 465,-71 154,-82 234,-261 244,-548 9,-255 -33,-492 -251,-1395 -79,-330 -214,-897 -300,-1260 -427,-1806 -586,-2476 -706,-2975 -179,-745 -521,-2122 -526,-2117 -3,2 -67,296 -144,653 -242,1132 -371,1715 -870,3954 -203,910 -426,1914 -495,2230 -69,316 -143,652 -165,745 -60,257 -72,354 -68,516 4,161 0,154 113,208 124,60 213,68 650,62 127,-2 242,1 256,5 l 26,9 -23,76 -24,76 -197,6 c -310,10 -2662,16 -3218,7 z m 15384,3 -735,-3 -39,-80 c -21,-44 -37,-81 -34,-84 6,-6 709,-26 906,-26 l 161,0 6,-37 c 26,-168 28,-453 26,-5883 -1,-3088 -2,-5616 -4,-5617 -1,-2 -61,-10 -132,-18 -165,-19 -574,-37 -774,-33 l -155,3 -3,-86 -3,-86 1337,-6 c 1341,-7 2849,0 2914,12 31,6 35,11 51,64 l 17,57 -38,10 c -99,27 -160,31 -505,40 -328,8 -453,17 -530,36 l -23,6 -7,1521 c -9,2141 1,9641 14,9836 5,84 12,155 14,158 13,12 220,24 586,32 321,7 417,12 427,23 7,7 26,43 43,79 l 29,67 -61,6 c -78,7 -2506,14 -3488,9 z m 5945,0 -2081,-3 -7,-46 c -3,-26 -6,-64 -6,-84 l 0,-38 163,-6 c 89,-3 275,-8 412,-11 138,-3 301,-8 363,-12 l 112,-6 -2,-5766 -3,-5766 -46,-6 c -121,-18 -394,-31 -675,-32 l -312,-2 -6,-59 c -3,-32 -6,-72 -6,-87 l 0,-29 2119,0 2119,0 6,27 c 3,16 6,55 8,88 l 3,60 -135,-3 c -163,-4 -622,15 -775,31 l -110,12 0,2858 0,2859 275,3 c 554,6 870,-22 1027,-91 253,-110 430,-369 512,-746 47,-217 60,-423 86,-1368 32,-1158 77,-1695 190,-2256 186,-923 593,-1488 1189,-1649 422,-114 900,-73 1281,110 329,158 566,415 741,805 178,395 258,833 271,1483 l 6,297 -65,0 -65,0 -7,-218 c -13,-427 -43,-688 -106,-938 -65,-257 -135,-413 -232,-520 -98,-107 -182,-139 -324,-125 -111,11 -175,43 -250,124 -76,82 -123,185 -168,367 -88,359 -130,684 -176,1360 -71,1050 -147,1478 -345,1945 -120,283 -260,499 -449,693 -279,287 -636,496 -1120,657 -175,58 -536,155 -578,155 -10,0 -18,4 -18,8 0,4 52,13 116,20 541,57 1079,264 1487,570 511,384 849,1005 956,1757 87,609 27,1407 -145,1925 -170,510 -469,923 -859,1185 -381,256 -841,402 -1435,455 -172,15 -539,17 -2936,13 z m -52644,-3 -2145,0 -2145,0 0,-83 0,-84 238,-6 c 130,-4 368,-10 528,-13 l 291,-7 5,-3566 c 6,-3878 -2,-7995 -15,-8007 -5,-5 -242,-10 -528,-12 l -519,-4 0,-84 0,-84 3665,0 3665,0 2,2373 c 2,1304 2,2458 0,2562 -3,193 -18,423 -31,471 -7,25 -7,25 -34,-23 -78,-144 -145,-352 -241,-743 -329,-1353 -746,-2454 -1249,-3295 -213,-357 -362,-558 -539,-731 -178,-174 -344,-281 -535,-343 -124,-41 -205,-51 -478,-60 -232,-8 -971,2 -982,13 -3,3 -8,2597 -11,5764 l -5,5759 99,6 c 54,4 234,9 399,12 165,3 360,8 433,11 l 132,6 0,84 z M 6485,12828 c -384,-180 -652,-351 -985,-627 C 4925,11724 4299,11027 3970,10500 3664,10008 3374,9201 3255,8512 3140,7842 3132,7249 3231,6590 3415,5367 3998,4228 4904,3325 5869,2363 6925,1806 8135,1620 c 336,-51 519,-64 935,-64 420,0 523,7 890,60 905,130 1763,481 2515,1029 669,488 1287,1164 1720,1880 112,186 322,607 390,780 281,719 402,1378 402,2185 0,611 -68,1124 -221,1656 -97,337 -186,565 -351,899 -264,533 -554,952 -1001,1445 -774,853 -1732,1447 -2854,1768 -315,91 -715,153 -1105,172 -982,48 -2044,-168 -2970,-602 z"
       id="path8"
       style="fill:#000000"
       inkscape:connector-curvature="0"
       sodipodi:nodetypes="cccccccccccccccccccccccccccccccccscccccccccccccccccccccscccscccccsccccccsccccscccccccscccscccccccccccccccccccccccsccccsccccccccccccccsccccccccsccccccccccccscccccccccscccccccccccccccccccccsccccccccccccccscccccccccccccsscccccccccccccccccccccccccccccscccccccccccsccccccccccccccccsccccccccccccccccssccccccccccccccccccccccccccccccccscccscccccccccccsccccscccccc" />
    <path
       d="m 63740,13445 c 171,-3 264,-22 377,-75 223,-104 449,-352 606,-666 329,-657 547,-2010 596,-3699 6,-192 16,-532 23,-755 17,-541 15,-1248 -6,-1840 -9,-267 -21,-611 -26,-765 -24,-701 -98,-1513 -186,-2040 -175,-1047 -438,-1679 -817,-1966 -186,-141 -332,-183 -632,-183 -217,0 -305,18 -460,94 -256,126 -492,426 -648,826 -202,515 -363,1387 -442,2389 -57,733 -103,2396 -85,3120 37,1517 45,1724 91,2285 34,424 110,1014 174,1367 140,758 355,1291 642,1593 190,200 347,282 603,314 19,2 105,3 190,1 z"
       id="path10"
       inkscape:connector-curvature="0"
       sodipodi:nodetypes="cccccccccsccccccccc" />
    <path
       d="m 40938,13138 c 312,-103 530,-310 716,-678 108,-213 175,-400 256,-715 262,-1016 364,-2403 347,-4706 -6,-748 -11,-938 -42,-1424 -67,-1054 -222,-2010 -430,-2655 -136,-419 -287,-692 -505,-910 -90,-90 -119,-112 -205,-157 -129,-66 -248,-108 -399,-138 -247,-50 -456,-54 -1109,-24 l -268,13 3,5742 c 2,3158 5,5745 8,5748 3,3 154,9 335,15 681,19 978,-6 1293,-111 z"
       id="path12"
       inkscape:connector-curvature="0"
       sodipodi:nodetypes="ccccccscccccscc" />
    <path
       d="m 76616,13200 c 356,-28 506,-85 687,-259 179,-172 286,-374 386,-727 129,-458 181,-949 181,-1694 -2,-1143 -79,-1714 -295,-2167 -157,-329 -327,-497 -595,-588 -190,-65 -343,-77 -862,-69 l -418,7 0,2522 c 0,1387 3,2624 7,2748 l 6,227 171,3 c 427,7 612,6 732,-3 z"
       id="path14"
       inkscape:connector-curvature="0"
       sodipodi:nodetypes="ccccccccscccc" />
    <path
       d="m 8435,11264 c 740,-2 868,-8 1175,-49 615,-84 988,-303 1471,-865 198,-231 392,-562 503,-863 148,-400 253,-980 296,-1642 13,-197 13,-741 0,-925 -92,-1297 -593,-2333 -1375,-2846 -319,-209 -585,-296 -1040,-340 -337,-32 -1883,-29 -2419,6 -137,9 -166,13 -155,24 3,3 392,56 412,56 4,0 7,1652 7,3670 0,2019 -3,3670 -7,3670 -34,0 -410,54 -416,60 -5,4 13,10 40,13 57,7 472,27 658,31 72,1 454,2 850,0 z m 573,-97 -398,5 0,-3682 0,-3682 398,5 c 442,5 483,9 622,73 62,29 91,52 175,137 211,213 367,507 455,857 50,195 95,507 120,815 48,610 62,2075 30,3070 -38,1153 -144,1699 -399,2042 -147,199 -270,279 -516,335 -80,18 -133,21 -487,25 z"
       id="path16"
       inkscape:connector-curvature="0"
       sodipodi:nodetypes="cccccccccssssccccccccccccccccc" />
    <path
       style="opacity:0;fill:#000000"
       d="M 875.2156,1616.4649 C 637.03475,1512.9495 455.02535,1280.5152 414.70623,1028.3733 387.16519,856.14107 468.15113,605.80153 597.85421,462.23573 752.98619,290.52317 903.09783,222.53062 1130.3497,221.04371 c 231.6398,-1.51563 379.0576,67.78513 544.8459,256.1306 247.4669,281.13718 244.5685,648.01699 -7.4786,946.63529 -172.7084,204.6202 -552.5224,296.9521 -792.5014,192.6553 z m 427.4488,-231.9509 c 122.7791,-63.4916 190.8348,-227.9985 187.7792,-453.90747 -4.6262,-342.01941 -115.0971,-465.05667 -417.5584,-465.05667 l -190.16364,0 0,480.68996 0,480.68998 168.95994,0 c 92.9279,0 205.8702,-19.0871 250.9829,-42.4158 z"
       id="path3354"
       inkscape:connector-curvature="0"
       transform="matrix(8,0,0,-8,0,15000)" />
    <path
       style="opacity:0;fill:#000000"
       d="M 875.2156,1616.4649 C 637.03475,1512.9495 455.02535,1280.5152 414.70623,1028.3733 387.16519,856.14107 468.15113,605.80153 597.85421,462.23573 752.98619,290.52317 903.09783,222.53062 1130.3497,221.04371 c 231.6398,-1.51563 379.0576,67.78513 544.8459,256.1306 247.4669,281.13718 244.5685,648.01699 -7.4786,946.63529 -172.7084,204.6202 -552.5224,296.9521 -792.5014,192.6553 z m 427.4488,-231.9509 c 122.7791,-63.4916 190.8348,-227.9985 187.7792,-453.90747 -4.6262,-342.01941 -115.0971,-465.05667 -417.5584,-465.05667 l -190.16364,0 0,480.68996 0,480.68998 168.95994,0 c 92.9279,0 205.8702,-19.0871 250.9829,-42.4158 z"
       id="path3356"
       inkscape:connector-curvature="0"
       transform="matrix(8,0,0,-8,0,15000)" />
    <path
       style="opacity:0;fill:#000000"
       d="M 875.2156,1616.4649 C 637.03475,1512.9495 455.02535,1280.5152 414.70623,1028.3733 387.16519,856.14107 468.15113,605.80153 597.85421,462.23573 752.98619,290.52317 903.09783,222.53062 1130.3497,221.04371 c 231.6398,-1.51563 379.0576,67.78513 544.8459,256.1306 247.4669,281.13718 244.5685,648.01699 -7.4786,946.63529 -172.7084,204.6202 -552.5224,296.9521 -792.5014,192.6553 z m 427.4488,-231.9509 c 122.7791,-63.4916 190.8348,-227.9985 187.7792,-453.90747 -4.6262,-342.01941 -115.0971,-465.05667 -417.5584,-465.05667 l -190.16364,0 0,480.68996 0,480.68998 168.95994,0 c 92.9279,0 205.8702,-19.0871 250.9829,-42.4158 z"
       id="path3358"
       inkscape:connector-curvature="0"
       transform="matrix(8,0,0,-8,0,15000)" />
    <path
       style="opacity:0;fill:#000000"
       d="M 875.2156,1616.4649 C 637.03475,1512.9495 455.02535,1280.5152 414.70623,1028.3733 387.16519,856.14107 468.15113,605.80153 597.85421,462.23573 752.98619,290.52317 903.09783,222.53062 1130.3497,221.04371 c 231.6398,-1.51563 379.0576,67.78513 544.8459,256.1306 247.4669,281.13718 244.5685,648.01699 -7.4786,946.63529 -172.7084,204.6202 -552.5224,296.9521 -792.5014,192.6553 z m 427.4488,-231.9509 c 122.7791,-63.4916 190.8348,-227.9985 187.7792,-453.90747 -4.6262,-342.01941 -115.0971,-465.05667 -417.5584,-465.05667 l -190.16364,0 0,480.68996 0,480.68998 168.95994,0 c 92.9279,0 205.8702,-19.0871 250.9829,-42.4158 z"
       id="path3360"
       inkscape:connector-curvature="0"
       transform="matrix(8,0,0,-8,0,15000)" />
    <path
       style="opacity:0;fill:#000000"
       d="M 875.2156,1616.4649 C 637.03475,1512.9495 455.02535,1280.5152 414.70623,1028.3733 387.16519,856.14107 468.15113,605.80153 597.85421,462.23573 752.98619,290.52317 903.09783,222.53062 1130.3497,221.04371 c 231.6398,-1.51563 379.0576,67.78513 544.8459,256.1306 247.4669,281.13718 244.5685,648.01699 -7.4786,946.63529 -172.7084,204.6202 -552.5224,296.9521 -792.5014,192.6553 z m 427.4488,-231.9509 c 122.7791,-63.4916 190.8348,-227.9985 187.7792,-453.90747 -4.6262,-342.01941 -115.0971,-465.05667 -417.5584,-465.05667 l -190.16364,0 0,480.68996 0,480.68998 168.95994,0 c 92.9279,0 205.8702,-19.0871 250.9829,-42.4158 z"
       id="path3362"
       inkscape:connector-curvature="0"
       transform="matrix(8,0,0,-8,0,15000)" />
    <path
       style="opacity:0;fill:#000000"
       d="m 2353.9242,931.67346 0,-728.31812 116.5309,0 116.5309,0 0,728.31812 0,728.31814 -116.5309,0 -116.5309,0 0,-728.31814 z"
       id="path3364"
       inkscape:connector-curvature="0"
       transform="matrix(8,0,0,-8,0,15000)" />
    <path
       style="opacity:0;fill:#ff0000"
       d="m 23.30618,931.67346 0,-932.24719596 5171.05862,0 5171.0582,0 0,932.24719596 0,932.24714 -5171.0582,0 -5171.05862,0 0,-932.24714 z M 8273.0031,1577.5444 c 132.539,-141.8466 198.7932,-352.2496 198.7932,-631.30458 0,-517.71238 -275.116,-862.673335 -615.0127,-771.14866 -144.3906,38.88033 -302.6049,219.66353 -359.2893,410.54129 -58.2366,196.10309 -58.007,525.88445 0.504,722.90885 122.6724,413.0829 513.5954,548.7716 775.0057,269.0031 l -9e-4,0 z m -1160.3366,118.7935 c 7.4507,-12.0556 89.9927,-341.8394 183.4269,-732.85291 135.3567,-566.45609 180.3164,-713.66286 221.2345,-724.3631 106.9989,-27.98092 45.0642,-64.89928 -108.876,-64.89928 -88.1265,0 -160.23,13.10973 -160.23,29.13273 0,16.023 26.6308,29.13272 59.1796,29.13272 32.5492,0 64.9281,16.38716 71.9541,36.41591 7.0256,20.02875 -36.3128,239.61666 -96.3078,487.97314 l -109.082,451.55719 -103.8241,-480.68992 -103.8241,-480.68996 68.1202,-9.21824 c 37.4665,-5.07003 68.1205,-21.45719 68.1205,-36.41591 0,-14.95871 -124.5424,-27.19766 -276.7609,-27.19766 -165.0855,0 -276.7609,11.75531 -276.7609,29.13273 0,16.023 18.8908,29.13272 41.9797,29.13272 23.0888,0 50.0153,13.0018 59.8366,28.89288 15.433,24.97114 335.1746,1400.19016 335.1746,1441.59696 0,23.7965 111.4394,17.9534 126.6391,-6.64 z m 2988.4475,-54.8415 c 37.879,-48.1554 59.269,-116.0082 57.398,-182.0795 l -2.982,-105.3189 -22.773,96.1597 c -48.811,206.1006 -102.139,155.0407 -141.9734,-135.9355 -30.3097,-221.4035 -107.1266,-353.39081 -205.8096,-353.62492 -25.2473,-0.0612 -2.5083,-26.56639 50.5304,-58.90337 124.596,-75.96422 191.9666,-234.30576 169.4826,-398.33972 -37.4271,-273.06285 -141.9451,-329.23158 -612.6295,-329.23158 -205.8492,0 -337.9067,11.38537 -337.9067,29.13273 0,16.023 26.2195,29.13272 58.2655,29.13272 56.6754,0 58.2654,19.42182 58.2654,711.72555 l 0,711.72559 -65.5486,12.6252 c -36.0517,6.9438 65.5486,12.4462 225.7786,12.2275 160.23,-0.2185 255.2755,-5.859 211.2123,-12.534 l -80.115,-12.1365 0,-347.6576 0,-347.65762 85.6787,0 c 47.1234,0 95.3672,15.67591 107.2085,34.83534 11.841,19.15948 30.7525,156.78248 42.0254,305.82888 25.5983,338.457 68.7803,416.7866 229.768,416.7866 88.1814,0 127.3154,-17.2515 174.1244,-76.7606 z m -8732.0753,13.3673 c 145.1771,-43.4961 356.7654,-228.7022 439.1896,-384.4287 49.006,-92.5886 63.8108,-171.0755 64.3307,-341.04613 0.5978,-195.46156 -9.419,-237.107 -87.3473,-363.15308 C 1424.7702,-16.764709 604.18227,93.522873 412.95885,750.66752 250.31926,1309.583 796.7219,1826.334 1369.0387,1654.8637 Z m 1771.469,-317.0514 c 0,-362.83025 -26.0341,-419.27229 -85.1334,-184.5682 -75.8307,301.1513 -227.1252,506.7475 -372.906,506.7475 l -66.3496,0 0,-713.75178 0,-713.75176 72.8318,0 c 40.0575,0 72.8318,-13.10972 72.8318,-29.13272 0,-17.47964 -116.5309,-29.13273 -291.3272,-29.13273 -174.7964,0 -291.3273,11.65309 -291.3273,29.13273 0,16.023 32.7743,29.13272 72.8318,29.13272 l 72.8318,0 0,711.8167 0,711.81664 -80.115,12.1365 c -44.0632,6.675 139.473,14.1006 407.8582,16.5014 l 487.9731,4.365 0,-351.312 z m 990.5127,30.852 c 0,-176.253 -5.278,-320.4599 -11.7289,-320.4599 -6.4508,0 -39.3376,90.8958 -73.0814,201.9907 -69.8463,229.9532 -170.051,366.9004 -284.4662,388.7723 -147.566,28.209 -155.1126,11.3629 -155.1126,-346.2518 0,-332.60805 12.9958,-370.97069 104.8866,-309.61377 50.7128,33.86177 99.0425,142.04387 99.0425,221.69797 0,40.1652 13.1097,81.1299 29.1327,91.0327 18.8562,11.6539 29.1327,-116.8015 29.1327,-364.15904 0,-247.35758 -10.2765,-375.81291 -29.1327,-364.15906 -16.023,9.90276 -29.1327,50.86748 -29.1327,91.03271 0,79.65414 -48.3297,187.83616 -99.0425,221.69797 -92.0157,61.44048 -104.8866,23.06473 -104.8866,-312.73068 l 0,-335.02634 85.1628,0 c 48.4615,0 122.6701,31.55995 172.1943,73.23192 82.8249,69.69247 179.6338,284.2281 179.6338,398.08135 0,29.19166 13.1097,53.07578 29.1327,53.07578 17.4797,0 29.1327,-116.5309 29.1327,-291.32725 l 0,-291.32725 -466.1236,0 c -291.3272,0 -466.1236,10.92477 -466.1236,29.13273 0,16.023 26.2195,29.13272 58.2655,29.13272 56.6754,0 58.2654,19.42182 58.2654,711.72555 l 0,711.72559 -65.5486,12.6252 c -36.0517,6.9438 154.0393,14.4105 422.4245,16.5925 l 487.9732,3.9674 0,-320.46 z m 1238.7493,196.4205 C 5631.927,1302.9276 5668.3481,696.03825 5441.0779,376.86682 5332.3715,224.20259 5183.6405,175.59936 4822.9226,174.86243 c -189.7892,-0.38774 -313.1768,10.83809 -313.1768,28.49291 0,16.023 26.2194,29.13272 58.2654,29.13272 56.6754,0 58.2655,19.42182 58.2655,711.72555 l 0,711.72559 -65.5486,12.6252 c -36.0518,6.9438 103.3253,14.4105 309.7268,16.5925 l 375.2756,3.9674 124.0392,-124.0395 z m 1177.6365,-203.7037 -1.6299,-327.7431 -82.8232,229.4548 c -95.4542,264.4485 -177.6123,359.6714 -321.7747,372.9445 l -101.9646,9.3879 -8.2078,-342.3095 c -6.3154,-263.3919 0.402,-342.20668 29.1327,-341.86341 86.8257,1.03742 168.4378,119.04181 168.4378,243.54751 0,40.1652 13.1098,81.1299 29.1328,91.0327 18.8561,11.6539 29.1327,-116.8015 29.1327,-364.15904 0,-247.35758 -10.2766,-375.81291 -29.1327,-364.15906 -16.023,9.90276 -29.1328,50.86748 -29.1328,91.03271 0,79.65414 -48.3297,187.83616 -99.0425,221.69797 -92.0157,61.44048 -104.8865,23.06473 -104.8865,-312.73068 l 0,-335.02634 85.1628,0 c 132.4746,0 254.6984,123.14298 312.6451,314.99654 27.5252,91.13139 60.7112,178.14766 73.7469,193.36951 13.0357,15.22185 23.7015,-106.04312 23.7015,-269.47771 l 0,-297.15379 -466.1236,0 c -291.3273,0 -466.1236,10.92477 -466.1236,29.13273 0,16.023 26.2195,29.13272 58.2655,29.13272 56.6753,0 58.2654,19.42182 58.2654,711.72555 l 0,711.72559 -65.5486,12.6252 c -36.0518,6.9438 154.0393,14.4105 422.4245,16.5925 l 487.9731,3.9674 -1.6303,-327.7432 z m 2426.9296,307.1833 -65.5486,-12.6252 0,-711.72559 c 0,-692.30373 1.5901,-711.72555 58.2655,-711.72555 32.046,0 58.2654,-13.10972 58.2654,-29.13272 0,-17.37742 -111.6753,-29.13273 -276.7609,-29.13273 -165.0855,0 -276.7609,11.75531 -276.7609,29.13273 0,16.023 26.2195,29.13272 58.2655,29.13272 56.6754,0 58.2654,19.42182 58.2654,711.72555 l 0,711.72559 -65.5486,12.6252 c -36.0517,6.9438 65.5486,12.6252 225.7786,12.6252 160.23,0 261.8304,-5.6814 225.7786,-12.6252 z"
       id="path3366"
       inkscape:connector-curvature="0"
       transform="matrix(8,0,0,-8,0,15000)" />
    <path
       style="opacity:0;fill:#ff0000"
       d="m 23.30618,931.67346 0,-932.24719596 5171.05862,0 5171.0582,0 0,932.24719596 0,932.24714 -5171.0582,0 -5171.05862,0 0,-932.24714 z M 8273.0031,1577.5444 c 132.539,-141.8466 198.7932,-352.2496 198.7932,-631.30458 0,-517.71238 -275.116,-862.673335 -615.0127,-771.14866 -144.3906,38.88033 -302.6049,219.66353 -359.2893,410.54129 -58.2366,196.10309 -58.007,525.88445 0.504,722.90885 122.6724,413.0829 513.5954,548.7716 775.0057,269.0031 l -9e-4,0 z m -1160.3366,118.7935 c 7.4507,-12.0556 89.9927,-341.8394 183.4269,-732.85291 135.3567,-566.45609 180.3164,-713.66286 221.2345,-724.3631 106.9989,-27.98092 45.0642,-64.89928 -108.876,-64.89928 -88.1265,0 -160.23,13.10973 -160.23,29.13273 0,16.023 26.6308,29.13272 59.1796,29.13272 32.5492,0 64.9281,16.38716 71.9541,36.41591 7.0256,20.02875 -36.3128,239.61666 -96.3078,487.97314 l -109.082,451.55719 -103.8241,-480.68992 -103.8241,-480.68996 68.1202,-9.21824 c 37.4665,-5.07003 68.1205,-21.45719 68.1205,-36.41591 0,-14.95871 -124.5424,-27.19766 -276.7609,-27.19766 -165.0855,0 -276.7609,11.75531 -276.7609,29.13273 0,16.023 18.8908,29.13272 41.9797,29.13272 23.0888,0 50.0153,13.0018 59.8366,28.89288 15.433,24.97114 335.1746,1400.19016 335.1746,1441.59696 0,23.7965 111.4394,17.9534 126.6391,-6.64 z m 2988.4475,-54.8415 c 37.879,-48.1554 59.269,-116.0082 57.398,-182.0795 l -2.982,-105.3189 -22.773,96.1597 c -48.811,206.1006 -102.139,155.0407 -141.9734,-135.9355 -30.3097,-221.4035 -107.1266,-353.39081 -205.8096,-353.62492 -25.2473,-0.0612 -2.5083,-26.56639 50.5304,-58.90337 124.596,-75.96422 191.9666,-234.30576 169.4826,-398.33972 -37.4271,-273.06285 -141.9451,-329.23158 -612.6295,-329.23158 -205.8492,0 -337.9067,11.38537 -337.9067,29.13273 0,16.023 26.2195,29.13272 58.2655,29.13272 56.6754,0 58.2654,19.42182 58.2654,711.72555 l 0,711.72559 -65.5486,12.6252 c -36.0517,6.9438 65.5486,12.4462 225.7786,12.2275 160.23,-0.2185 255.2755,-5.859 211.2123,-12.534 l -80.115,-12.1365 0,-347.6576 0,-347.65762 85.6787,0 c 47.1234,0 95.3672,15.67591 107.2085,34.83534 11.841,19.15948 30.7525,156.78248 42.0254,305.82888 25.5983,338.457 68.7803,416.7866 229.768,416.7866 88.1814,0 127.3154,-17.2515 174.1244,-76.7606 z m -8732.0753,13.3673 c 145.1771,-43.4961 356.7654,-228.7022 439.1896,-384.4287 49.006,-92.5886 63.8108,-171.0755 64.3307,-341.04613 0.5978,-195.46156 -9.419,-237.107 -87.3473,-363.15308 C 1424.7702,-16.764709 604.18227,93.522873 412.95885,750.66752 250.31926,1309.583 796.7219,1826.334 1369.0387,1654.8637 Z m 1771.469,-317.0514 c 0,-362.83025 -26.0341,-419.27229 -85.1334,-184.5682 -75.8307,301.1513 -227.1252,506.7475 -372.906,506.7475 l -66.3496,0 0,-713.75178 0,-713.75176 72.8318,0 c 40.0575,0 72.8318,-13.10972 72.8318,-29.13272 0,-17.47964 -116.5309,-29.13273 -291.3272,-29.13273 -174.7964,0 -291.3273,11.65309 -291.3273,29.13273 0,16.023 32.7743,29.13272 72.8318,29.13272 l 72.8318,0 0,711.8167 0,711.81664 -80.115,12.1365 c -44.0632,6.675 139.473,14.1006 407.8582,16.5014 l 487.9731,4.365 0,-351.312 z m 990.5127,30.852 c 0,-176.253 -5.278,-320.4599 -11.7289,-320.4599 -6.4508,0 -39.3376,90.8958 -73.0814,201.9907 -69.8463,229.9532 -170.051,366.9004 -284.4662,388.7723 -147.566,28.209 -155.1126,11.3629 -155.1126,-346.2518 0,-332.60805 12.9958,-370.97069 104.8866,-309.61377 50.7128,33.86177 99.0425,142.04387 99.0425,221.69797 0,40.1652 13.1097,81.1299 29.1327,91.0327 18.8562,11.6539 29.1327,-116.8015 29.1327,-364.15904 0,-247.35758 -10.2765,-375.81291 -29.1327,-364.15906 -16.023,9.90276 -29.1327,50.86748 -29.1327,91.03271 0,79.65414 -48.3297,187.83616 -99.0425,221.69797 -92.0157,61.44048 -104.8866,23.06473 -104.8866,-312.73068 l 0,-335.02634 85.1628,0 c 48.4615,0 122.6701,31.55995 172.1943,73.23192 82.8249,69.69247 179.6338,284.2281 179.6338,398.08135 0,29.19166 13.1097,53.07578 29.1327,53.07578 17.4797,0 29.1327,-116.5309 29.1327,-291.32725 l 0,-291.32725 -466.1236,0 c -291.3272,0 -466.1236,10.92477 -466.1236,29.13273 0,16.023 26.2195,29.13272 58.2655,29.13272 56.6754,0 58.2654,19.42182 58.2654,711.72555 l 0,711.72559 -65.5486,12.6252 c -36.0517,6.9438 154.0393,14.4105 422.4245,16.5925 l 487.9732,3.9674 0,-320.46 z m 1238.7493,196.4205 C 5631.927,1302.9276 5668.3481,696.03825 5441.0779,376.86682 5332.3715,224.20259 5183.6405,175.59936 4822.9226,174.86243 c -189.7892,-0.38774 -313.1768,10.83809 -313.1768,28.49291 0,16.023 26.2194,29.13272 58.2654,29.13272 56.6754,0 58.2655,19.42182 58.2655,711.72555 l 0,711.72559 -65.5486,12.6252 c -36.0518,6.9438 103.3253,14.4105 309.7268,16.5925 l 375.2756,3.9674 124.0392,-124.0395 z m 1177.6365,-203.7037 -1.6299,-327.7431 -82.8232,229.4548 c -95.4542,264.4485 -177.6123,359.6714 -321.7747,372.9445 l -101.9646,9.3879 -8.2078,-342.3095 c -6.3154,-263.3919 0.402,-342.20668 29.1327,-341.86341 86.8257,1.03742 168.4378,119.04181 168.4378,243.54751 0,40.1652 13.1098,81.1299 29.1328,91.0327 18.8561,11.6539 29.1327,-116.8015 29.1327,-364.15904 0,-247.35758 -10.2766,-375.81291 -29.1327,-364.15906 -16.023,9.90276 -29.1328,50.86748 -29.1328,91.03271 0,79.65414 -48.3297,187.83616 -99.0425,221.69797 -92.0157,61.44048 -104.8865,23.06473 -104.8865,-312.73068 l 0,-335.02634 85.1628,0 c 132.4746,0 254.6984,123.14298 312.6451,314.99654 27.5252,91.13139 60.7112,178.14766 73.7469,193.36951 13.0357,15.22185 23.7015,-106.04312 23.7015,-269.47771 l 0,-297.15379 -466.1236,0 c -291.3273,0 -466.1236,10.92477 -466.1236,29.13273 0,16.023 26.2195,29.13272 58.2655,29.13272 56.6753,0 58.2654,19.42182 58.2654,711.72555 l 0,711.72559 -65.5486,12.6252 c -36.0518,6.9438 154.0393,14.4105 422.4245,16.5925 l 487.9731,3.9674 -1.6303,-327.7432 z m 2426.9296,307.1833 -65.5486,-12.6252 0,-711.72559 c 0,-692.30373 1.5901,-711.72555 58.2655,-711.72555 32.046,0 58.2654,-13.10972 58.2654,-29.13272 0,-17.37742 -111.6753,-29.13273 -276.7609,-29.13273 -165.0855,0 -276.7609,11.75531 -276.7609,29.13273 0,16.023 26.2195,29.13272 58.2655,29.13272 56.6754,0 58.2654,19.42182 58.2654,711.72555 l 0,711.72559 -65.5486,12.6252 c -36.0517,6.9438 65.5486,12.6252 225.7786,12.6252 160.23,0 261.8304,-5.6814 225.7786,-12.6252 z"
       id="path3368"
       inkscape:connector-curvature="0"
       transform="matrix(8,0,0,-8,0,15000)" />
    <path
       style="opacity:0;fill:#ff0000"
       d="m 23.30618,931.67346 0,-932.24719596 5171.05862,0 5171.0582,0 0,932.24719596 0,932.24714 -5171.0582,0 -5171.05862,0 0,-932.24714 z M 8273.0031,1577.5444 c 132.539,-141.8466 198.7932,-352.2496 198.7932,-631.30458 0,-517.71238 -275.116,-862.673335 -615.0127,-771.14866 -144.3906,38.88033 -302.6049,219.66353 -359.2893,410.54129 -58.2366,196.10309 -58.007,525.88445 0.504,722.90885 122.6724,413.0829 513.5954,548.7716 775.0057,269.0031 l -9e-4,0 z m -1160.3366,118.7935 c 7.4507,-12.0556 89.9927,-341.8394 183.4269,-732.85291 135.3567,-566.45609 180.3164,-713.66286 221.2345,-724.3631 106.9989,-27.98092 45.0642,-64.89928 -108.876,-64.89928 -88.1265,0 -160.23,13.10973 -160.23,29.13273 0,16.023 26.6308,29.13272 59.1796,29.13272 32.5492,0 64.9281,16.38716 71.9541,36.41591 7.0256,20.02875 -36.3128,239.61666 -96.3078,487.97314 l -109.082,451.55719 -103.8241,-480.68992 -103.8241,-480.68996 68.1202,-9.21824 c 37.4665,-5.07003 68.1205,-21.45719 68.1205,-36.41591 0,-14.95871 -124.5424,-27.19766 -276.7609,-27.19766 -165.0855,0 -276.7609,11.75531 -276.7609,29.13273 0,16.023 18.8908,29.13272 41.9797,29.13272 23.0888,0 50.0153,13.0018 59.8366,28.89288 15.433,24.97114 335.1746,1400.19016 335.1746,1441.59696 0,23.7965 111.4394,17.9534 126.6391,-6.64 z m 2988.4475,-54.8415 c 37.879,-48.1554 59.269,-116.0082 57.398,-182.0795 l -2.982,-105.3189 -22.773,96.1597 c -48.811,206.1006 -102.139,155.0407 -141.9734,-135.9355 -30.3097,-221.4035 -107.1266,-353.39081 -205.8096,-353.62492 -25.2473,-0.0612 -2.5083,-26.56639 50.5304,-58.90337 124.596,-75.96422 191.9666,-234.30576 169.4826,-398.33972 -37.4271,-273.06285 -141.9451,-329.23158 -612.6295,-329.23158 -205.8492,0 -337.9067,11.38537 -337.9067,29.13273 0,16.023 26.2195,29.13272 58.2655,29.13272 56.6754,0 58.2654,19.42182 58.2654,711.72555 l 0,711.72559 -65.5486,12.6252 c -36.0517,6.9438 65.5486,12.4462 225.7786,12.2275 160.23,-0.2185 255.2755,-5.859 211.2123,-12.534 l -80.115,-12.1365 0,-347.6576 0,-347.65762 85.6787,0 c 47.1234,0 95.3672,15.67591 107.2085,34.83534 11.841,19.15948 30.7525,156.78248 42.0254,305.82888 25.5983,338.457 68.7803,416.7866 229.768,416.7866 88.1814,0 127.3154,-17.2515 174.1244,-76.7606 z m -8732.0753,13.3673 c 145.1771,-43.4961 356.7654,-228.7022 439.1896,-384.4287 49.006,-92.5886 63.8108,-171.0755 64.3307,-341.04613 0.5978,-195.46156 -9.419,-237.107 -87.3473,-363.15308 C 1424.7702,-16.764709 604.18227,93.522873 412.95885,750.66752 250.31926,1309.583 796.7219,1826.334 1369.0387,1654.8637 Z m 1771.469,-317.0514 c 0,-362.83025 -26.0341,-419.27229 -85.1334,-184.5682 -75.8307,301.1513 -227.1252,506.7475 -372.906,506.7475 l -66.3496,0 0,-713.75178 0,-713.75176 72.8318,0 c 40.0575,0 72.8318,-13.10972 72.8318,-29.13272 0,-17.47964 -116.5309,-29.13273 -291.3272,-29.13273 -174.7964,0 -291.3273,11.65309 -291.3273,29.13273 0,16.023 32.7743,29.13272 72.8318,29.13272 l 72.8318,0 0,711.8167 0,711.81664 -80.115,12.1365 c -44.0632,6.675 139.473,14.1006 407.8582,16.5014 l 487.9731,4.365 0,-351.312 z m 990.5127,30.852 c 0,-176.253 -5.278,-320.4599 -11.7289,-320.4599 -6.4508,0 -39.3376,90.8958 -73.0814,201.9907 -69.8463,229.9532 -170.051,366.9004 -284.4662,388.7723 -147.566,28.209 -155.1126,11.3629 -155.1126,-346.2518 0,-332.60805 12.9958,-370.97069 104.8866,-309.61377 50.7128,33.86177 99.0425,142.04387 99.0425,221.69797 0,40.1652 13.1097,81.1299 29.1327,91.0327 18.8562,11.6539 29.1327,-116.8015 29.1327,-364.15904 0,-247.35758 -10.2765,-375.81291 -29.1327,-364.15906 -16.023,9.90276 -29.1327,50.86748 -29.1327,91.03271 0,79.65414 -48.3297,187.83616 -99.0425,221.69797 -92.0157,61.44048 -104.8866,23.06473 -104.8866,-312.73068 l 0,-335.02634 85.1628,0 c 48.4615,0 122.6701,31.55995 172.1943,73.23192 82.8249,69.69247 179.6338,284.2281 179.6338,398.08135 0,29.19166 13.1097,53.07578 29.1327,53.07578 17.4797,0 29.1327,-116.5309 29.1327,-291.32725 l 0,-291.32725 -466.1236,0 c -291.3272,0 -466.1236,10.92477 -466.1236,29.13273 0,16.023 26.2195,29.13272 58.2655,29.13272 56.6754,0 58.2654,19.42182 58.2654,711.72555 l 0,711.72559 -65.5486,12.6252 c -36.0517,6.9438 154.0393,14.4105 422.4245,16.5925 l 487.9732,3.9674 0,-320.46 z m 1238.7493,196.4205 C 5631.927,1302.9276 5668.3481,696.03825 5441.0779,376.86682 5332.3715,224.20259 5183.6405,175.59936 4822.9226,174.86243 c -189.7892,-0.38774 -313.1768,10.83809 -313.1768,28.49291 0,16.023 26.2194,29.13272 58.2654,29.13272 56.6754,0 58.2655,19.42182 58.2655,711.72555 l 0,711.72559 -65.5486,12.6252 c -36.0518,6.9438 103.3253,14.4105 309.7268,16.5925 l 375.2756,3.9674 124.0392,-124.0395 z m 1177.6365,-203.7037 -1.6299,-327.7431 -82.8232,229.4548 c -95.4542,264.4485 -177.6123,359.6714 -321.7747,372.9445 l -101.9646,9.3879 -8.2078,-342.3095 c -6.3154,-263.3919 0.402,-342.20668 29.1327,-341.86341 86.8257,1.03742 168.4378,119.04181 168.4378,243.54751 0,40.1652 13.1098,81.1299 29.1328,91.0327 18.8561,11.6539 29.1327,-116.8015 29.1327,-364.15904 0,-247.35758 -10.2766,-375.81291 -29.1327,-364.15906 -16.023,9.90276 -29.1328,50.86748 -29.1328,91.03271 0,79.65414 -48.3297,187.83616 -99.0425,221.69797 -92.0157,61.44048 -104.8865,23.06473 -104.8865,-312.73068 l 0,-335.02634 85.1628,0 c 132.4746,0 254.6984,123.14298 312.6451,314.99654 27.5252,91.13139 60.7112,178.14766 73.7469,193.36951 13.0357,15.22185 23.7015,-106.04312 23.7015,-269.47771 l 0,-297.15379 -466.1236,0 c -291.3273,0 -466.1236,10.92477 -466.1236,29.13273 0,16.023 26.2195,29.13272 58.2655,29.13272 56.6753,0 58.2654,19.42182 58.2654,711.72555 l 0,711.72559 -65.5486,12.6252 c -36.0518,6.9438 154.0393,14.4105 422.4245,16.5925 l 487.9731,3.9674 -1.6303,-327.7432 z m 2426.9296,307.1833 -65.5486,-12.6252 0,-711.72559 c 0,-692.30373 1.5901,-711.72555 58.2655,-711.72555 32.046,0 58.2654,-13.10972 58.2654,-29.13272 0,-17.37742 -111.6753,-29.13273 -276.7609,-29.13273 -165.0855,0 -276.7609,11.75531 -276.7609,29.13273 0,16.023 26.2195,29.13272 58.2655,29.13272 56.6754,0 58.2654,19.42182 58.2654,711.72555 l 0,711.72559 -65.5486,12.6252 c -36.0517,6.9438 65.5486,12.6252 225.7786,12.6252 160.23,0 261.8304,-5.6814 225.7786,-12.6252 z"
       id="path3370"
       inkscape:connector-curvature="0"
       transform="matrix(8,0,0,-8,0,15000)" />
    <path
       style="opacity:0;fill:#ff0000"
       d="m 23.30618,931.67346 0,-932.24719596 5171.05862,0 5171.0582,0 0,932.24719596 0,932.24714 -5171.0582,0 -5171.05862,0 0,-932.24714 z M 8273.0031,1577.5444 c 132.539,-141.8466 198.7932,-352.2496 198.7932,-631.30458 0,-517.71238 -275.116,-862.673335 -615.0127,-771.14866 -144.3906,38.88033 -302.6049,219.66353 -359.2893,410.54129 -58.2366,196.10309 -58.007,525.88445 0.504,722.90885 122.6724,413.0829 513.5954,548.7716 775.0057,269.0031 l -9e-4,0 z m -1160.3366,118.7935 c 7.4507,-12.0556 89.9927,-341.8394 183.4269,-732.85291 135.3567,-566.45609 180.3164,-713.66286 221.2345,-724.3631 106.9989,-27.98092 45.0642,-64.89928 -108.876,-64.89928 -88.1265,0 -160.23,13.10973 -160.23,29.13273 0,16.023 26.6308,29.13272 59.1796,29.13272 32.5492,0 64.9281,16.38716 71.9541,36.41591 7.0256,20.02875 -36.3128,239.61666 -96.3078,487.97314 l -109.082,451.55719 -103.8241,-480.68992 -103.8241,-480.68996 68.1202,-9.21824 c 37.4665,-5.07003 68.1205,-21.45719 68.1205,-36.41591 0,-14.95871 -124.5424,-27.19766 -276.7609,-27.19766 -165.0855,0 -276.7609,11.75531 -276.7609,29.13273 0,16.023 18.8908,29.13272 41.9797,29.13272 23.0888,0 50.0153,13.0018 59.8366,28.89288 15.433,24.97114 335.1746,1400.19016 335.1746,1441.59696 0,23.7965 111.4394,17.9534 126.6391,-6.64 z m 2988.4475,-54.8415 c 37.879,-48.1554 59.269,-116.0082 57.398,-182.0795 l -2.982,-105.3189 -22.773,96.1597 c -48.811,206.1006 -102.139,155.0407 -141.9734,-135.9355 -30.3097,-221.4035 -107.1266,-353.39081 -205.8096,-353.62492 -25.2473,-0.0612 -2.5083,-26.56639 50.5304,-58.90337 124.596,-75.96422 191.9666,-234.30576 169.4826,-398.33972 -37.4271,-273.06285 -141.9451,-329.23158 -612.6295,-329.23158 -205.8492,0 -337.9067,11.38537 -337.9067,29.13273 0,16.023 26.2195,29.13272 58.2655,29.13272 56.6754,0 58.2654,19.42182 58.2654,711.72555 l 0,711.72559 -65.5486,12.6252 c -36.0517,6.9438 65.5486,12.4462 225.7786,12.2275 160.23,-0.2185 255.2755,-5.859 211.2123,-12.534 l -80.115,-12.1365 0,-347.6576 0,-347.65762 85.6787,0 c 47.1234,0 95.3672,15.67591 107.2085,34.83534 11.841,19.15948 30.7525,156.78248 42.0254,305.82888 25.5983,338.457 68.7803,416.7866 229.768,416.7866 88.1814,0 127.3154,-17.2515 174.1244,-76.7606 z m -8732.0753,13.3673 c 145.1771,-43.4961 356.7654,-228.7022 439.1896,-384.4287 49.006,-92.5886 63.8108,-171.0755 64.3307,-341.04613 0.5978,-195.46156 -9.419,-237.107 -87.3473,-363.15308 C 1424.7702,-16.764709 604.18227,93.522873 412.95885,750.66752 250.31926,1309.583 796.7219,1826.334 1369.0387,1654.8637 Z m 1771.469,-317.0514 c 0,-362.83025 -26.0341,-419.27229 -85.1334,-184.5682 -75.8307,301.1513 -227.1252,506.7475 -372.906,506.7475 l -66.3496,0 0,-713.75178 0,-713.75176 72.8318,0 c 40.0575,0 72.8318,-13.10972 72.8318,-29.13272 0,-17.47964 -116.5309,-29.13273 -291.3272,-29.13273 -174.7964,0 -291.3273,11.65309 -291.3273,29.13273 0,16.023 32.7743,29.13272 72.8318,29.13272 l 72.8318,0 0,711.8167 0,711.81664 -80.115,12.1365 c -44.0632,6.675 139.473,14.1006 407.8582,16.5014 l 487.9731,4.365 0,-351.312 z m 990.5127,30.852 c 0,-176.253 -5.278,-320.4599 -11.7289,-320.4599 -6.4508,0 -39.3376,90.8958 -73.0814,201.9907 -69.8463,229.9532 -170.051,366.9004 -284.4662,388.7723 -147.566,28.209 -155.1126,11.3629 -155.1126,-346.2518 0,-332.60805 12.9958,-370.97069 104.8866,-309.61377 50.7128,33.86177 99.0425,142.04387 99.0425,221.69797 0,40.1652 13.1097,81.1299 29.1327,91.0327 18.8562,11.6539 29.1327,-116.8015 29.1327,-364.15904 0,-247.35758 -10.2765,-375.81291 -29.1327,-364.15906 -16.023,9.90276 -29.1327,50.86748 -29.1327,91.03271 0,79.65414 -48.3297,187.83616 -99.0425,221.69797 -92.0157,61.44048 -104.8866,23.06473 -104.8866,-312.73068 l 0,-335.02634 85.1628,0 c 48.4615,0 122.6701,31.55995 172.1943,73.23192 82.8249,69.69247 179.6338,284.2281 179.6338,398.08135 0,29.19166 13.1097,53.07578 29.1327,53.07578 17.4797,0 29.1327,-116.5309 29.1327,-291.32725 l 0,-291.32725 -466.1236,0 c -291.3272,0 -466.1236,10.92477 -466.1236,29.13273 0,16.023 26.2195,29.13272 58.2655,29.13272 56.6754,0 58.2654,19.42182 58.2654,711.72555 l 0,711.72559 -65.5486,12.6252 c -36.0517,6.9438 154.0393,14.4105 422.4245,16.5925 l 487.9732,3.9674 0,-320.46 z m 1238.7493,196.4205 C 5631.927,1302.9276 5668.3481,696.03825 5441.0779,376.86682 5332.3715,224.20259 5183.6405,175.59936 4822.9226,174.86243 c -189.7892,-0.38774 -313.1768,10.83809 -313.1768,28.49291 0,16.023 26.2194,29.13272 58.2654,29.13272 56.6754,0 58.2655,19.42182 58.2655,711.72555 l 0,711.72559 -65.5486,12.6252 c -36.0518,6.9438 103.3253,14.4105 309.7268,16.5925 l 375.2756,3.9674 124.0392,-124.0395 z m 1177.6365,-203.7037 -1.6299,-327.7431 -82.8232,229.4548 c -95.4542,264.4485 -177.6123,359.6714 -321.7747,372.9445 l -101.9646,9.3879 -8.2078,-342.3095 c -6.3154,-263.3919 0.402,-342.20668 29.1327,-341.86341 86.8257,1.03742 168.4378,119.04181 168.4378,243.54751 0,40.1652 13.1098,81.1299 29.1328,91.0327 18.8561,11.6539 29.1327,-116.8015 29.1327,-364.15904 0,-247.35758 -10.2766,-375.81291 -29.1327,-364.15906 -16.023,9.90276 -29.1328,50.86748 -29.1328,91.03271 0,79.65414 -48.3297,187.83616 -99.0425,221.69797 -92.0157,61.44048 -104.8865,23.06473 -104.8865,-312.73068 l 0,-335.02634 85.1628,0 c 132.4746,0 254.6984,123.14298 312.6451,314.99654 27.5252,91.13139 60.7112,178.14766 73.7469,193.36951 13.0357,15.22185 23.7015,-106.04312 23.7015,-269.47771 l 0,-297.15379 -466.1236,0 c -291.3273,0 -466.1236,10.92477 -466.1236,29.13273 0,16.023 26.2195,29.13272 58.2655,29.13272 56.6753,0 58.2654,19.42182 58.2654,711.72555 l 0,711.72559 -65.5486,12.6252 c -36.0518,6.9438 154.0393,14.4105 422.4245,16.5925 l 487.9731,3.9674 -1.6303,-327.7432 z m 2426.9296,307.1833 -65.5486,-12.6252 0,-711.72559 c 0,-692.30373 1.5901,-711.72555 58.2655,-711.72555 32.046,0 58.2654,-13.10972 58.2654,-29.13272 0,-17.37742 -111.6753,-29.13273 -276.7609,-29.13273 -165.0855,0 -276.7609,11.75531 -276.7609,29.13273 0,16.023 26.2195,29.13272 58.2655,29.13272 56.6754,0 58.2654,19.42182 58.2654,711.72555 l 0,711.72559 -65.5486,12.6252 c -36.0517,6.9438 65.5486,12.6252 225.7786,12.6252 160.23,0 261.8304,-5.6814 225.7786,-12.6252 z"
       id="path3372"
       inkscape:connector-curvature="0"
       transform="matrix(8,0,0,-8,0,15000)" />
    <path
       style="opacity:0;fill:#ff0000"
       d="m 23.30618,931.67346 0,-932.24719596 5171.05862,0 5171.0582,0 0,932.24719596 0,932.24714 -5171.0582,0 -5171.05862,0 0,-932.24714 z M 8273.0031,1577.5444 c 132.539,-141.8466 198.7932,-352.2496 198.7932,-631.30458 0,-517.71238 -275.116,-862.673335 -615.0127,-771.14866 -144.3906,38.88033 -302.6049,219.66353 -359.2893,410.54129 -58.2366,196.10309 -58.007,525.88445 0.504,722.90885 122.6724,413.0829 513.5954,548.7716 775.0057,269.0031 l -9e-4,0 z m -1160.3366,118.7935 c 7.4507,-12.0556 89.9927,-341.8394 183.4269,-732.85291 135.3567,-566.45609 180.3164,-713.66286 221.2345,-724.3631 106.9989,-27.98092 45.0642,-64.89928 -108.876,-64.89928 -88.1265,0 -160.23,13.10973 -160.23,29.13273 0,16.023 26.6308,29.13272 59.1796,29.13272 32.5492,0 64.9281,16.38716 71.9541,36.41591 7.0256,20.02875 -36.3128,239.61666 -96.3078,487.97314 l -109.082,451.55719 -103.8241,-480.68992 -103.8241,-480.68996 68.1202,-9.21824 c 37.4665,-5.07003 68.1205,-21.45719 68.1205,-36.41591 0,-14.95871 -124.5424,-27.19766 -276.7609,-27.19766 -165.0855,0 -276.7609,11.75531 -276.7609,29.13273 0,16.023 18.8908,29.13272 41.9797,29.13272 23.0888,0 50.0153,13.0018 59.8366,28.89288 15.433,24.97114 335.1746,1400.19016 335.1746,1441.59696 0,23.7965 111.4394,17.9534 126.6391,-6.64 z m 2988.4475,-54.8415 c 37.879,-48.1554 59.269,-116.0082 57.398,-182.0795 l -2.982,-105.3189 -22.773,96.1597 c -48.811,206.1006 -102.139,155.0407 -141.9734,-135.9355 -30.3097,-221.4035 -107.1266,-353.39081 -205.8096,-353.62492 -25.2473,-0.0612 -2.5083,-26.56639 50.5304,-58.90337 124.596,-75.96422 191.9666,-234.30576 169.4826,-398.33972 -37.4271,-273.06285 -141.9451,-329.23158 -612.6295,-329.23158 -205.8492,0 -337.9067,11.38537 -337.9067,29.13273 0,16.023 26.2195,29.13272 58.2655,29.13272 56.6754,0 58.2654,19.42182 58.2654,711.72555 l 0,711.72559 -65.5486,12.6252 c -36.0517,6.9438 65.5486,12.4462 225.7786,12.2275 160.23,-0.2185 255.2755,-5.859 211.2123,-12.534 l -80.115,-12.1365 0,-347.6576 0,-347.65762 85.6787,0 c 47.1234,0 95.3672,15.67591 107.2085,34.83534 11.841,19.15948 30.7525,156.78248 42.0254,305.82888 25.5983,338.457 68.7803,416.7866 229.768,416.7866 88.1814,0 127.3154,-17.2515 174.1244,-76.7606 z m -8732.0753,13.3673 c 145.1771,-43.4961 356.7654,-228.7022 439.1896,-384.4287 49.006,-92.5886 63.8108,-171.0755 64.3307,-341.04613 0.5978,-195.46156 -9.419,-237.107 -87.3473,-363.15308 C 1424.7702,-16.764709 604.18227,93.522873 412.95885,750.66752 250.31926,1309.583 796.7219,1826.334 1369.0387,1654.8637 Z m 1771.469,-317.0514 c 0,-362.83025 -26.0341,-419.27229 -85.1334,-184.5682 -75.8307,301.1513 -227.1252,506.7475 -372.906,506.7475 l -66.3496,0 0,-713.75178 0,-713.75176 72.8318,0 c 40.0575,0 72.8318,-13.10972 72.8318,-29.13272 0,-17.47964 -116.5309,-29.13273 -291.3272,-29.13273 -174.7964,0 -291.3273,11.65309 -291.3273,29.13273 0,16.023 32.7743,29.13272 72.8318,29.13272 l 72.8318,0 0,711.8167 0,711.81664 -80.115,12.1365 c -44.0632,6.675 139.473,14.1006 407.8582,16.5014 l 487.9731,4.365 0,-351.312 z m 990.5127,30.852 c 0,-176.253 -5.278,-320.4599 -11.7289,-320.4599 -6.4508,0 -39.3376,90.8958 -73.0814,201.9907 -69.8463,229.9532 -170.051,366.9004 -284.4662,388.7723 -147.566,28.209 -155.1126,11.3629 -155.1126,-346.2518 0,-332.60805 12.9958,-370.97069 104.8866,-309.61377 50.7128,33.86177 99.0425,142.04387 99.0425,221.69797 0,40.1652 13.1097,81.1299 29.1327,91.0327 18.8562,11.6539 29.1327,-116.8015 29.1327,-364.15904 0,-247.35758 -10.2765,-375.81291 -29.1327,-364.15906 -16.023,9.90276 -29.1327,50.86748 -29.1327,91.03271 0,79.65414 -48.3297,187.83616 -99.0425,221.69797 -92.0157,61.44048 -104.8866,23.06473 -104.8866,-312.73068 l 0,-335.02634 85.1628,0 c 48.4615,0 122.6701,31.55995 172.1943,73.23192 82.8249,69.69247 179.6338,284.2281 179.6338,398.08135 0,29.19166 13.1097,53.07578 29.1327,53.07578 17.4797,0 29.1327,-116.5309 29.1327,-291.32725 l 0,-291.32725 -466.1236,0 c -291.3272,0 -466.1236,10.92477 -466.1236,29.13273 0,16.023 26.2195,29.13272 58.2655,29.13272 56.6754,0 58.2654,19.42182 58.2654,711.72555 l 0,711.72559 -65.5486,12.6252 c -36.0517,6.9438 154.0393,14.4105 422.4245,16.5925 l 487.9732,3.9674 0,-320.46 z m 1238.7493,196.4205 C 5631.927,1302.9276 5668.3481,696.03825 5441.0779,376.86682 5332.3715,224.20259 5183.6405,175.59936 4822.9226,174.86243 c -189.7892,-0.38774 -313.1768,10.83809 -313.1768,28.49291 0,16.023 26.2194,29.13272 58.2654,29.13272 56.6754,0 58.2655,19.42182 58.2655,711.72555 l 0,711.72559 -65.5486,12.6252 c -36.0518,6.9438 103.3253,14.4105 309.7268,16.5925 l 375.2756,3.9674 124.0392,-124.0395 z m 1177.6365,-203.7037 -1.6299,-327.7431 -82.8232,229.4548 c -95.4542,264.4485 -177.6123,359.6714 -321.7747,372.9445 l -101.9646,9.3879 -8.2078,-342.3095 c -6.3154,-263.3919 0.402,-342.20668 29.1327,-341.86341 86.8257,1.03742 168.4378,119.04181 168.4378,243.54751 0,40.1652 13.1098,81.1299 29.1328,91.0327 18.8561,11.6539 29.1327,-116.8015 29.1327,-364.15904 0,-247.35758 -10.2766,-375.81291 -29.1327,-364.15906 -16.023,9.90276 -29.1328,50.86748 -29.1328,91.03271 0,79.65414 -48.3297,187.83616 -99.0425,221.69797 -92.0157,61.44048 -104.8865,23.06473 -104.8865,-312.73068 l 0,-335.02634 85.1628,0 c 132.4746,0 254.6984,123.14298 312.6451,314.99654 27.5252,91.13139 60.7112,178.14766 73.7469,193.36951 13.0357,15.22185 23.7015,-106.04312 23.7015,-269.47771 l 0,-297.15379 -466.1236,0 c -291.3273,0 -466.1236,10.92477 -466.1236,29.13273 0,16.023 26.2195,29.13272 58.2655,29.13272 56.6753,0 58.2654,19.42182 58.2654,711.72555 l 0,711.72559 -65.5486,12.6252 c -36.0518,6.9438 154.0393,14.4105 422.4245,16.5925 l 487.9731,3.9674 -1.6303,-327.7432 z m 2426.9296,307.1833 -65.5486,-12.6252 0,-711.72559 c 0,-692.30373 1.5901,-711.72555 58.2655,-711.72555 32.046,0 58.2654,-13.10972 58.2654,-29.13272 0,-17.37742 -111.6753,-29.13273 -276.7609,-29.13273 -165.0855,0 -276.7609,11.75531 -276.7609,29.13273 0,16.023 26.2195,29.13272 58.2655,29.13272 56.6754,0 58.2654,19.42182 58.2654,711.72555 l 0,711.72559 -65.5486,12.6252 c -36.0517,6.9438 65.5486,12.6252 225.7786,12.6252 160.23,0 261.8304,-5.6814 225.7786,-12.6252 z"
       id="path3374"
       inkscape:connector-curvature="0"
       transform="matrix(8,0,0,-8,0,15000)" />
    <path
       style="opacity:0;fill:#ff0000"
       d="m 23.30618,931.67346 0,-932.24719596 5171.05862,0 5171.0582,0 0,932.24719596 0,932.24714 -5171.0582,0 -5171.05862,0 0,-932.24714 z M 8273.0031,1577.5444 c 132.539,-141.8466 198.7932,-352.2496 198.7932,-631.30458 0,-517.71238 -275.116,-862.673335 -615.0127,-771.14866 -144.3906,38.88033 -302.6049,219.66353 -359.2893,410.54129 -58.2366,196.10309 -58.007,525.88445 0.504,722.90885 122.6724,413.0829 513.5954,548.7716 775.0057,269.0031 l -9e-4,0 z m -1160.3366,118.7935 c 7.4507,-12.0556 89.9927,-341.8394 183.4269,-732.85291 135.3567,-566.45609 180.3164,-713.66286 221.2345,-724.3631 106.9989,-27.98092 45.0642,-64.89928 -108.876,-64.89928 -88.1265,0 -160.23,13.10973 -160.23,29.13273 0,16.023 26.6308,29.13272 59.1796,29.13272 32.5492,0 64.9281,16.38716 71.9541,36.41591 7.0256,20.02875 -36.3128,239.61666 -96.3078,487.97314 l -109.082,451.55719 -103.8241,-480.68992 -103.8241,-480.68996 68.1202,-9.21824 c 37.4665,-5.07003 68.1205,-21.45719 68.1205,-36.41591 0,-14.95871 -124.5424,-27.19766 -276.7609,-27.19766 -165.0855,0 -276.7609,11.75531 -276.7609,29.13273 0,16.023 18.8908,29.13272 41.9797,29.13272 23.0888,0 50.0153,13.0018 59.8366,28.89288 15.433,24.97114 335.1746,1400.19016 335.1746,1441.59696 0,23.7965 111.4394,17.9534 126.6391,-6.64 z m 2988.4475,-54.8415 c 37.879,-48.1554 59.269,-116.0082 57.398,-182.0795 l -2.982,-105.3189 -22.773,96.1597 c -48.811,206.1006 -102.139,155.0407 -141.9734,-135.9355 -30.3097,-221.4035 -107.1266,-353.39081 -205.8096,-353.62492 -25.2473,-0.0612 -2.5083,-26.56639 50.5304,-58.90337 124.596,-75.96422 191.9666,-234.30576 169.4826,-398.33972 -37.4271,-273.06285 -141.9451,-329.23158 -612.6295,-329.23158 -205.8492,0 -337.9067,11.38537 -337.9067,29.13273 0,16.023 26.2195,29.13272 58.2655,29.13272 56.6754,0 58.2654,19.42182 58.2654,711.72555 l 0,711.72559 -65.5486,12.6252 c -36.0517,6.9438 65.5486,12.4462 225.7786,12.2275 160.23,-0.2185 255.2755,-5.859 211.2123,-12.534 l -80.115,-12.1365 0,-347.6576 0,-347.65762 85.6787,0 c 47.1234,0 95.3672,15.67591 107.2085,34.83534 11.841,19.15948 30.7525,156.78248 42.0254,305.82888 25.5983,338.457 68.7803,416.7866 229.768,416.7866 88.1814,0 127.3154,-17.2515 174.1244,-76.7606 z m -8732.0753,13.3673 c 145.1771,-43.4961 356.7654,-228.7022 439.1896,-384.4287 49.006,-92.5886 63.8108,-171.0755 64.3307,-341.04613 0.5978,-195.46156 -9.419,-237.107 -87.3473,-363.15308 C 1424.7702,-16.764709 604.18227,93.522873 412.95885,750.66752 250.31926,1309.583 796.7219,1826.334 1369.0387,1654.8637 Z m 1771.469,-317.0514 c 0,-362.83025 -26.0341,-419.27229 -85.1334,-184.5682 -75.8307,301.1513 -227.1252,506.7475 -372.906,506.7475 l -66.3496,0 0,-713.75178 0,-713.75176 72.8318,0 c 40.0575,0 72.8318,-13.10972 72.8318,-29.13272 0,-17.47964 -116.5309,-29.13273 -291.3272,-29.13273 -174.7964,0 -291.3273,11.65309 -291.3273,29.13273 0,16.023 32.7743,29.13272 72.8318,29.13272 l 72.8318,0 0,711.8167 0,711.81664 -80.115,12.1365 c -44.0632,6.675 139.473,14.1006 407.8582,16.5014 l 487.9731,4.365 0,-351.312 z m 990.5127,30.852 c 0,-176.253 -5.278,-320.4599 -11.7289,-320.4599 -6.4508,0 -39.3376,90.8958 -73.0814,201.9907 -69.8463,229.9532 -170.051,366.9004 -284.4662,388.7723 -147.566,28.209 -155.1126,11.3629 -155.1126,-346.2518 0,-332.60805 12.9958,-370.97069 104.8866,-309.61377 50.7128,33.86177 99.0425,142.04387 99.0425,221.69797 0,40.1652 13.1097,81.1299 29.1327,91.0327 18.8562,11.6539 29.1327,-116.8015 29.1327,-364.15904 0,-247.35758 -10.2765,-375.81291 -29.1327,-364.15906 -16.023,9.90276 -29.1327,50.86748 -29.1327,91.03271 0,79.65414 -48.3297,187.83616 -99.0425,221.69797 -92.0157,61.44048 -104.8866,23.06473 -104.8866,-312.73068 l 0,-335.02634 85.1628,0 c 48.4615,0 122.6701,31.55995 172.1943,73.23192 82.8249,69.69247 179.6338,284.2281 179.6338,398.08135 0,29.19166 13.1097,53.07578 29.1327,53.07578 17.4797,0 29.1327,-116.5309 29.1327,-291.32725 l 0,-291.32725 -466.1236,0 c -291.3272,0 -466.1236,10.92477 -466.1236,29.13273 0,16.023 26.2195,29.13272 58.2655,29.13272 56.6754,0 58.2654,19.42182 58.2654,711.72555 l 0,711.72559 -65.5486,12.6252 c -36.0517,6.9438 154.0393,14.4105 422.4245,16.5925 l 487.9732,3.9674 0,-320.46 z m 1238.7493,196.4205 C 5631.927,1302.9276 5668.3481,696.03825 5441.0779,376.86682 5332.3715,224.20259 5183.6405,175.59936 4822.9226,174.86243 c -189.7892,-0.38774 -313.1768,10.83809 -313.1768,28.49291 0,16.023 26.2194,29.13272 58.2654,29.13272 56.6754,0 58.2655,19.42182 58.2655,711.72555 l 0,711.72559 -65.5486,12.6252 c -36.0518,6.9438 103.3253,14.4105 309.7268,16.5925 l 375.2756,3.9674 124.0392,-124.0395 z m 1177.6365,-203.7037 -1.6299,-327.7431 -82.8232,229.4548 c -95.4542,264.4485 -177.6123,359.6714 -321.7747,372.9445 l -101.9646,9.3879 -8.2078,-342.3095 c -6.3154,-263.3919 0.402,-342.20668 29.1327,-341.86341 86.8257,1.03742 168.4378,119.04181 168.4378,243.54751 0,40.1652 13.1098,81.1299 29.1328,91.0327 18.8561,11.6539 29.1327,-116.8015 29.1327,-364.15904 0,-247.35758 -10.2766,-375.81291 -29.1327,-364.15906 -16.023,9.90276 -29.1328,50.86748 -29.1328,91.03271 0,79.65414 -48.3297,187.83616 -99.0425,221.69797 -92.0157,61.44048 -104.8865,23.06473 -104.8865,-312.73068 l 0,-335.02634 85.1628,0 c 132.4746,0 254.6984,123.14298 312.6451,314.99654 27.5252,91.13139 60.7112,178.14766 73.7469,193.36951 13.0357,15.22185 23.7015,-106.04312 23.7015,-269.47771 l 0,-297.15379 -466.1236,0 c -291.3273,0 -466.1236,10.92477 -466.1236,29.13273 0,16.023 26.2195,29.13272 58.2655,29.13272 56.6753,0 58.2654,19.42182 58.2654,711.72555 l 0,711.72559 -65.5486,12.6252 c -36.0518,6.9438 154.0393,14.4105 422.4245,16.5925 l 487.9731,3.9674 -1.6303,-327.7432 z m 2426.9296,307.1833 -65.5486,-12.6252 0,-711.72559 c 0,-692.30373 1.5901,-711.72555 58.2655,-711.72555 32.046,0 58.2654,-13.10972 58.2654,-29.13272 0,-17.37742 -111.6753,-29.13273 -276.7609,-29.13273 -165.0855,0 -276.7609,11.75531 -276.7609,29.13273 0,16.023 26.2195,29.13272 58.2655,29.13272 56.6754,0 58.2654,19.42182 58.2654,711.72555 l 0,711.72559 -65.5486,12.6252 c -36.0517,6.9438 65.5486,12.6252 225.7786,12.6252 160.23,0 261.8304,-5.6814 225.7786,-12.6252 z"
       id="path3376"
       inkscape:connector-curvature="0"
       transform="matrix(8,0,0,-8,0,15000)" />
    <path
       style="opacity:0;fill:#ff0000"
       d="m 23.30618,931.67346 0,-932.24719596 5171.05862,0 5171.0582,0 0,932.24719596 0,932.24714 -5171.0582,0 -5171.05862,0 0,-932.24714 z M 8273.0031,1577.5444 c 132.539,-141.8466 198.7932,-352.2496 198.7932,-631.30458 0,-517.71238 -275.116,-862.673335 -615.0127,-771.14866 -144.3906,38.88033 -302.6049,219.66353 -359.2893,410.54129 -58.2366,196.10309 -58.007,525.88445 0.504,722.90885 122.6724,413.0829 513.5954,548.7716 775.0057,269.0031 l -9e-4,0 z m -1160.3366,118.7935 c 7.4507,-12.0556 89.9927,-341.8394 183.4269,-732.85291 135.3567,-566.45609 180.3164,-713.66286 221.2345,-724.3631 106.9989,-27.98092 45.0642,-64.89928 -108.876,-64.89928 -88.1265,0 -160.23,13.10973 -160.23,29.13273 0,16.023 26.6308,29.13272 59.1796,29.13272 32.5492,0 64.9281,16.38716 71.9541,36.41591 7.0256,20.02875 -36.3128,239.61666 -96.3078,487.97314 l -109.082,451.55719 -103.8241,-480.68992 -103.8241,-480.68996 68.1202,-9.21824 c 37.4665,-5.07003 68.1205,-21.45719 68.1205,-36.41591 0,-14.95871 -124.5424,-27.19766 -276.7609,-27.19766 -165.0855,0 -276.7609,11.75531 -276.7609,29.13273 0,16.023 18.8908,29.13272 41.9797,29.13272 23.0888,0 50.0153,13.0018 59.8366,28.89288 15.433,24.97114 335.1746,1400.19016 335.1746,1441.59696 0,23.7965 111.4394,17.9534 126.6391,-6.64 z m 2988.4475,-54.8415 c 37.879,-48.1554 59.269,-116.0082 57.398,-182.0795 l -2.982,-105.3189 -22.773,96.1597 c -48.811,206.1006 -102.139,155.0407 -141.9734,-135.9355 -30.3097,-221.4035 -107.1266,-353.39081 -205.8096,-353.62492 -25.2473,-0.0612 -2.5083,-26.56639 50.5304,-58.90337 124.596,-75.96422 191.9666,-234.30576 169.4826,-398.33972 -37.4271,-273.06285 -141.9451,-329.23158 -612.6295,-329.23158 -205.8492,0 -337.9067,11.38537 -337.9067,29.13273 0,16.023 26.2195,29.13272 58.2655,29.13272 56.6754,0 58.2654,19.42182 58.2654,711.72555 l 0,711.72559 -65.5486,12.6252 c -36.0517,6.9438 65.5486,12.4462 225.7786,12.2275 160.23,-0.2185 255.2755,-5.859 211.2123,-12.534 l -80.115,-12.1365 0,-347.6576 0,-347.65762 85.6787,0 c 47.1234,0 95.3672,15.67591 107.2085,34.83534 11.841,19.15948 30.7525,156.78248 42.0254,305.82888 25.5983,338.457 68.7803,416.7866 229.768,416.7866 88.1814,0 127.3154,-17.2515 174.1244,-76.7606 z m -8732.0753,13.3673 c 145.1771,-43.4961 356.7654,-228.7022 439.1896,-384.4287 49.006,-92.5886 63.8108,-171.0755 64.3307,-341.04613 0.5978,-195.46156 -9.419,-237.107 -87.3473,-363.15308 C 1424.7702,-16.764709 604.18227,93.522873 412.95885,750.66752 250.31926,1309.583 796.7219,1826.334 1369.0387,1654.8637 Z m 1771.469,-317.0514 c 0,-362.83025 -26.0341,-419.27229 -85.1334,-184.5682 -75.8307,301.1513 -227.1252,506.7475 -372.906,506.7475 l -66.3496,0 0,-713.75178 0,-713.75176 72.8318,0 c 40.0575,0 72.8318,-13.10972 72.8318,-29.13272 0,-17.47964 -116.5309,-29.13273 -291.3272,-29.13273 -174.7964,0 -291.3273,11.65309 -291.3273,29.13273 0,16.023 32.7743,29.13272 72.8318,29.13272 l 72.8318,0 0,711.8167 0,711.81664 -80.115,12.1365 c -44.0632,6.675 139.473,14.1006 407.8582,16.5014 l 487.9731,4.365 0,-351.312 z m 990.5127,30.852 c 0,-176.253 -5.278,-320.4599 -11.7289,-320.4599 -6.4508,0 -39.3376,90.8958 -73.0814,201.9907 -69.8463,229.9532 -170.051,366.9004 -284.4662,388.7723 -147.566,28.209 -155.1126,11.3629 -155.1126,-346.2518 0,-332.60805 12.9958,-370.97069 104.8866,-309.61377 50.7128,33.86177 99.0425,142.04387 99.0425,221.69797 0,40.1652 13.1097,81.1299 29.1327,91.0327 18.8562,11.6539 29.1327,-116.8015 29.1327,-364.15904 0,-247.35758 -10.2765,-375.81291 -29.1327,-364.15906 -16.023,9.90276 -29.1327,50.86748 -29.1327,91.03271 0,79.65414 -48.3297,187.83616 -99.0425,221.69797 -92.0157,61.44048 -104.8866,23.06473 -104.8866,-312.73068 l 0,-335.02634 85.1628,0 c 48.4615,0 122.6701,31.55995 172.1943,73.23192 82.8249,69.69247 179.6338,284.2281 179.6338,398.08135 0,29.19166 13.1097,53.07578 29.1327,53.07578 17.4797,0 29.1327,-116.5309 29.1327,-291.32725 l 0,-291.32725 -466.1236,0 c -291.3272,0 -466.1236,10.92477 -466.1236,29.13273 0,16.023 26.2195,29.13272 58.2655,29.13272 56.6754,0 58.2654,19.42182 58.2654,711.72555 l 0,711.72559 -65.5486,12.6252 c -36.0517,6.9438 154.0393,14.4105 422.4245,16.5925 l 487.9732,3.9674 0,-320.46 z m 1238.7493,196.4205 C 5631.927,1302.9276 5668.3481,696.03825 5441.0779,376.86682 5332.3715,224.20259 5183.6405,175.59936 4822.9226,174.86243 c -189.7892,-0.38774 -313.1768,10.83809 -313.1768,28.49291 0,16.023 26.2194,29.13272 58.2654,29.13272 56.6754,0 58.2655,19.42182 58.2655,711.72555 l 0,711.72559 -65.5486,12.6252 c -36.0518,6.9438 103.3253,14.4105 309.7268,16.5925 l 375.2756,3.9674 124.0392,-124.0395 z m 1177.6365,-203.7037 -1.6299,-327.7431 -82.8232,229.4548 c -95.4542,264.4485 -177.6123,359.6714 -321.7747,372.9445 l -101.9646,9.3879 -8.2078,-342.3095 c -6.3154,-263.3919 0.402,-342.20668 29.1327,-341.86341 86.8257,1.03742 168.4378,119.04181 168.4378,243.54751 0,40.1652 13.1098,81.1299 29.1328,91.0327 18.8561,11.6539 29.1327,-116.8015 29.1327,-364.15904 0,-247.35758 -10.2766,-375.81291 -29.1327,-364.15906 -16.023,9.90276 -29.1328,50.86748 -29.1328,91.03271 0,79.65414 -48.3297,187.83616 -99.0425,221.69797 -92.0157,61.44048 -104.8865,23.06473 -104.8865,-312.73068 l 0,-335.02634 85.1628,0 c 132.4746,0 254.6984,123.14298 312.6451,314.99654 27.5252,91.13139 60.7112,178.14766 73.7469,193.36951 13.0357,15.22185 23.7015,-106.04312 23.7015,-269.47771 l 0,-297.15379 -466.1236,0 c -291.3273,0 -466.1236,10.92477 -466.1236,29.13273 0,16.023 26.2195,29.13272 58.2655,29.13272 56.6753,0 58.2654,19.42182 58.2654,711.72555 l 0,711.72559 -65.5486,12.6252 c -36.0518,6.9438 154.0393,14.4105 422.4245,16.5925 l 487.9731,3.9674 -1.6303,-327.7432 z m 2426.9296,307.1833 -65.5486,-12.6252 0,-711.72559 c 0,-692.30373 1.5901,-711.72555 58.2655,-711.72555 32.046,0 58.2654,-13.10972 58.2654,-29.13272 0,-17.37742 -111.6753,-29.13273 -276.7609,-29.13273 -165.0855,0 -276.7609,11.75531 -276.7609,29.13273 0,16.023 26.2195,29.13272 58.2655,29.13272 56.6754,0 58.2654,19.42182 58.2654,711.72555 l 0,711.72559 -65.5486,12.6252 c -36.0517,6.9438 65.5486,12.6252 225.7786,12.6252 160.23,0 261.8304,-5.6814 225.7786,-12.6252 z"
       id="path3378"
       inkscape:connector-curvature="0"
       transform="matrix(8,0,0,-8,0,15000)" />
    <path
       style="opacity:0;fill:#ff0000"
       d="m 23.30618,931.67346 0,-932.24719596 5171.05862,0 5171.0582,0 0,932.24719596 0,932.24714 -5171.0582,0 -5171.05862,0 0,-932.24714 z M 8273.0031,1577.5444 c 132.539,-141.8466 198.7932,-352.2496 198.7932,-631.30458 0,-517.71238 -275.116,-862.673335 -615.0127,-771.14866 -144.3906,38.88033 -302.6049,219.66353 -359.2893,410.54129 -58.2366,196.10309 -58.007,525.88445 0.504,722.90885 122.6724,413.0829 513.5954,548.7716 775.0057,269.0031 l -9e-4,0 z m -1160.3366,118.7935 c 7.4507,-12.0556 89.9927,-341.8394 183.4269,-732.85291 135.3567,-566.45609 180.3164,-713.66286 221.2345,-724.3631 106.9989,-27.98092 45.0642,-64.89928 -108.876,-64.89928 -88.1265,0 -160.23,13.10973 -160.23,29.13273 0,16.023 26.6308,29.13272 59.1796,29.13272 32.5492,0 64.9281,16.38716 71.9541,36.41591 7.0256,20.02875 -36.3128,239.61666 -96.3078,487.97314 l -109.082,451.55719 -103.8241,-480.68992 -103.8241,-480.68996 68.1202,-9.21824 c 37.4665,-5.07003 68.1205,-21.45719 68.1205,-36.41591 0,-14.95871 -124.5424,-27.19766 -276.7609,-27.19766 -165.0855,0 -276.7609,11.75531 -276.7609,29.13273 0,16.023 18.8908,29.13272 41.9797,29.13272 23.0888,0 50.0153,13.0018 59.8366,28.89288 15.433,24.97114 335.1746,1400.19016 335.1746,1441.59696 0,23.7965 111.4394,17.9534 126.6391,-6.64 z m 2988.4475,-54.8415 c 37.879,-48.1554 59.269,-116.0082 57.398,-182.0795 l -2.982,-105.3189 -22.773,96.1597 c -48.811,206.1006 -102.139,155.0407 -141.9734,-135.9355 -30.3097,-221.4035 -107.1266,-353.39081 -205.8096,-353.62492 -25.2473,-0.0612 -2.5083,-26.56639 50.5304,-58.90337 124.596,-75.96422 191.9666,-234.30576 169.4826,-398.33972 -37.4271,-273.06285 -141.9451,-329.23158 -612.6295,-329.23158 -205.8492,0 -337.9067,11.38537 -337.9067,29.13273 0,16.023 26.2195,29.13272 58.2655,29.13272 56.6754,0 58.2654,19.42182 58.2654,711.72555 l 0,711.72559 -65.5486,12.6252 c -36.0517,6.9438 65.5486,12.4462 225.7786,12.2275 160.23,-0.2185 255.2755,-5.859 211.2123,-12.534 l -80.115,-12.1365 0,-347.6576 0,-347.65762 85.6787,0 c 47.1234,0 95.3672,15.67591 107.2085,34.83534 11.841,19.15948 30.7525,156.78248 42.0254,305.82888 25.5983,338.457 68.7803,416.7866 229.768,416.7866 88.1814,0 127.3154,-17.2515 174.1244,-76.7606 z m -8732.0753,13.3673 c 145.1771,-43.4961 356.7654,-228.7022 439.1896,-384.4287 49.006,-92.5886 63.8108,-171.0755 64.3307,-341.04613 0.5978,-195.46156 -9.419,-237.107 -87.3473,-363.15308 C 1424.7702,-16.764709 604.18227,93.522873 412.95885,750.66752 250.31926,1309.583 796.7219,1826.334 1369.0387,1654.8637 Z m 1771.469,-317.0514 c 0,-362.83025 -26.0341,-419.27229 -85.1334,-184.5682 -75.8307,301.1513 -227.1252,506.7475 -372.906,506.7475 l -66.3496,0 0,-713.75178 0,-713.75176 72.8318,0 c 40.0575,0 72.8318,-13.10972 72.8318,-29.13272 0,-17.47964 -116.5309,-29.13273 -291.3272,-29.13273 -174.7964,0 -291.3273,11.65309 -291.3273,29.13273 0,16.023 32.7743,29.13272 72.8318,29.13272 l 72.8318,0 0,711.8167 0,711.81664 -80.115,12.1365 c -44.0632,6.675 139.473,14.1006 407.8582,16.5014 l 487.9731,4.365 0,-351.312 z m 990.5127,30.852 c 0,-176.253 -5.278,-320.4599 -11.7289,-320.4599 -6.4508,0 -39.3376,90.8958 -73.0814,201.9907 -69.8463,229.9532 -170.051,366.9004 -284.4662,388.7723 -147.566,28.209 -155.1126,11.3629 -155.1126,-346.2518 0,-332.60805 12.9958,-370.97069 104.8866,-309.61377 50.7128,33.86177 99.0425,142.04387 99.0425,221.69797 0,40.1652 13.1097,81.1299 29.1327,91.0327 18.8562,11.6539 29.1327,-116.8015 29.1327,-364.15904 0,-247.35758 -10.2765,-375.81291 -29.1327,-364.15906 -16.023,9.90276 -29.1327,50.86748 -29.1327,91.03271 0,79.65414 -48.3297,187.83616 -99.0425,221.69797 -92.0157,61.44048 -104.8866,23.06473 -104.8866,-312.73068 l 0,-335.02634 85.1628,0 c 48.4615,0 122.6701,31.55995 172.1943,73.23192 82.8249,69.69247 179.6338,284.2281 179.6338,398.08135 0,29.19166 13.1097,53.07578 29.1327,53.07578 17.4797,0 29.1327,-116.5309 29.1327,-291.32725 l 0,-291.32725 -466.1236,0 c -291.3272,0 -466.1236,10.92477 -466.1236,29.13273 0,16.023 26.2195,29.13272 58.2655,29.13272 56.6754,0 58.2654,19.42182 58.2654,711.72555 l 0,711.72559 -65.5486,12.6252 c -36.0517,6.9438 154.0393,14.4105 422.4245,16.5925 l 487.9732,3.9674 0,-320.46 z m 1238.7493,196.4205 C 5631.927,1302.9276 5668.3481,696.03825 5441.0779,376.86682 5332.3715,224.20259 5183.6405,175.59936 4822.9226,174.86243 c -189.7892,-0.38774 -313.1768,10.83809 -313.1768,28.49291 0,16.023 26.2194,29.13272 58.2654,29.13272 56.6754,0 58.2655,19.42182 58.2655,711.72555 l 0,711.72559 -65.5486,12.6252 c -36.0518,6.9438 103.3253,14.4105 309.7268,16.5925 l 375.2756,3.9674 124.0392,-124.0395 z m 1177.6365,-203.7037 -1.6299,-327.7431 -82.8232,229.4548 c -95.4542,264.4485 -177.6123,359.6714 -321.7747,372.9445 l -101.9646,9.3879 -8.2078,-342.3095 c -6.3154,-263.3919 0.402,-342.20668 29.1327,-341.86341 86.8257,1.03742 168.4378,119.04181 168.4378,243.54751 0,40.1652 13.1098,81.1299 29.1328,91.0327 18.8561,11.6539 29.1327,-116.8015 29.1327,-364.15904 0,-247.35758 -10.2766,-375.81291 -29.1327,-364.15906 -16.023,9.90276 -29.1328,50.86748 -29.1328,91.03271 0,79.65414 -48.3297,187.83616 -99.0425,221.69797 -92.0157,61.44048 -104.8865,23.06473 -104.8865,-312.73068 l 0,-335.02634 85.1628,0 c 132.4746,0 254.6984,123.14298 312.6451,314.99654 27.5252,91.13139 60.7112,178.14766 73.7469,193.36951 13.0357,15.22185 23.7015,-106.04312 23.7015,-269.47771 l 0,-297.15379 -466.1236,0 c -291.3273,0 -466.1236,10.92477 -466.1236,29.13273 0,16.023 26.2195,29.13272 58.2655,29.13272 56.6753,0 58.2654,19.42182 58.2654,711.72555 l 0,711.72559 -65.5486,12.6252 c -36.0518,6.9438 154.0393,14.4105 422.4245,16.5925 l 487.9731,3.9674 -1.6303,-327.7432 z m 2426.9296,307.1833 -65.5486,-12.6252 0,-711.72559 c 0,-692.30373 1.5901,-711.72555 58.2655,-711.72555 32.046,0 58.2654,-13.10972 58.2654,-29.13272 0,-17.37742 -111.6753,-29.13273 -276.7609,-29.13273 -165.0855,0 -276.7609,11.75531 -276.7609,29.13273 0,16.023 26.2195,29.13272 58.2655,29.13272 56.6754,0 58.2654,19.42182 58.2654,711.72555 l 0,711.72559 -65.5486,12.6252 c -36.0517,6.9438 65.5486,12.6252 225.7786,12.6252 160.23,0 261.8304,-5.6814 225.7786,-12.6252 z"
       id="path3380"
       inkscape:connector-curvature="0"
       transform="matrix(8,0,0,-8,0,15000)" />
    <rect
       style="opacity:0;fill:#ff0000"
       id="rect3382"
       width="136574.22"
       height="89961.852"
       x="-10021.657"
       y="-32861.711"
       transform="scale(1,-1)" />
    <rect
       style="opacity:0;fill:#ff0000"
       id="rect3384"
       width="44747.863"
       height="17013.512"
       x="23772.303"
       y="-37989.07"
       transform="scale(1,-1)" />
    <rect
       style="opacity:0;fill:#ff0000"
       id="rect3386"
       width="106509.24"
       height="80406.32"
       x="-24238.428"
       y="-43815.617"
       transform="scale(1,-1)" />
    <rect
       style="opacity:0;fill:#ff0000"
       id="rect3388"
       width="116064.77"
       height="57333.203"
       x="-14449.831"
       y="-34959.27"
       transform="scale(1,-1)" />
    <use
       id="use3390"
       xlink:href="#rect3388"
       x="0"
       y="0"
       width="100%"
       height="100%"
       transform="translate(-41134.819,-4803.5739)" />
    <use
       id="use3392"
       xlink:href="#rect3388"
       x="0"
       y="0"
       width="100%"
       height="100%"
       transform="translate(-45474.264,-7801.4087)" />
    <use
       id="use3394"
       xlink:href="#rect3388"
       x="0"
       y="0"
       width="100%"
       height="100%"
       transform="translate(-39601.743,6881.5769)" />
    <use
       id="use3396"
       xlink:href="#rect3388"
       x="0"
       y="0"
       width="100%"
       height="100%"
       transform="translate(-29992.871,5270.5764)" />
    <use
       id="use3398"
       xlink:href="#rect3388"
       x="0"
       y="0"
       width="100%"
       height="100%"
       transform="translate(-24112.949,-5156.87)" />
    <use
       id="use3400"
       xlink:href="#rect3388"
       x="0"
       y="0"
       width="100%"
       height="100%"
       transform="translate(-19071.087,603.34708)" />
    <use
       id="use3402"
       xlink:href="#rect3388"
       x="0"
       y="0"
       width="100%"
       height="100%"
       transform="translate(-9534.5077,-7360.6282)" />
    <use
       id="use3404"
       xlink:href="#rect3388"
       x="0"
       y="0"
       width="100%"
       height="100%"
       transform="translate(-5164.9249,2466.2435)" />
    <use
       id="use3406"
       xlink:href="#rect3388"
       x="0"
       y="0"
       width="100%"
       height="100%"
       transform="translate(-2319.1013,6121.9755)" />
    <use
       id="use3408"
       xlink:href="#rect3388"
       x="0"
       y="0"
       width="100%"
       height="100%"
       transform="translate(-10639.883,-71.511421)" />
    <use
       id="use3410"
       xlink:href="#rect3388"
       x="0"
       y="0"
       width="100%"
       height="100%"
       transform="translate(-8274.5026,1829.1508)" />
    <use
       id="use3412"
       xlink:href="#rect3388"
       x="0"
       y="0"
       width="100%"
       height="100%"
       transform="translate(-17643.479,-7493.117)" />
    <use
       id="use3414"
       xlink:href="#rect3388"
       x="0"
       y="0"
       width="100%"
       height="100%"
       transform="translate(-11338.974,-725.91324)" />
    <use
       id="use3416"
       xlink:href="#rect3388"
       x="0"
       y="0"
       width="100%"
       height="100%"
       transform="translate(-22442.549,-5158.5861)" />
    <use
       id="use3418"
       xlink:href="#rect3388"
       x="0"
       y="0"
       width="100%"
       height="100%"
       transform="translate(-14278.799,-1604.8315)" />
    <use
       id="use3420"
       xlink:href="#rect3388"
       x="0"
       y="0"
       width="100%"
       height="100%"
       transform="translate(-21598.2,-10458.974)" />
    <use
       id="use3422"
       xlink:href="#rect3388"
       x="0"
       y="0"
       width="100%"
       height="100%"
       transform="translate(-25527.115,-2576.8897)" />
    <rect
       style="opacity:0;fill:#ff0000"
       id="rect3447"
       width="122590.51"
       height="44980.926"
       x="-14915.955"
       y="-37522.949"
       transform="scale(1,-1)" />
  </g>
</svg>
