<?xml version="1.0" encoding="utf-8"?>
<!-- Generator: Adobe Illustrator 19.0.0, SVG Export Plug-In . SVG Version: 6.00 Build 0)  -->
<svg version="1.1" id="Calque_1" xmlns="http://www.w3.org/2000/svg" xmlns:xlink="http://www.w3.org/1999/xlink" x="0px" y="0px"
	 width="247.2px" height="530.8px" viewBox="-515 135.2 247.2 530.8" style="enable-background:new -515 135.2 247.2 530.8;"
	 xml:space="preserve">
<style type="text/css">
	
		.st0{opacity:0.15;fill:#C3C3C3;stroke:#000000;stroke-width:0.5;stroke-linecap:square;stroke-linejoin:bevel;enable-background:new    ;}
	.st1{opacity:0.15;fill:#C3C3C3;stroke:#000000;stroke-width:0.5;stroke-miterlimit:10;enable-background:new    ;}
	.st2{fill:none;stroke:#9D9D9D;stroke-width:3.0709;stroke-linecap:square;stroke-linejoin:bevel;}
	.st3{fill:none;}
	.st4{fill:#5B5B5B;}
	.st5{font-family:'Roboto-Bold';}
	.st6{font-size:14px;}
	.st7{opacity:0.5;fill:#5B5B5B;enable-background:new    ;}
	.st8{fill:#4C7D95;}
	.st9{fill:#FFFFFF;}
	.st10{fill:#000333;}
</style>
<g id="Calque_1_1_" xmlns:inkscape="http://www.inkscape.org/namespaces/inkscape">
	<polygon class="st0" points="-406.2,135.2 -404.9,142 -404.6,147.5 -405.5,150.8 -409.3,158.4 -410,163.6 -408.7,168.2 
		-400.9,179.5 -395.5,191.5 -385.8,205.6 -381.9,209.1 -372.1,213 -369.2,214.7 -365.9,218.1 -364.2,222.1 -365.7,235 -367.3,240.4 
		-369,243.3 -372.7,245.7 -380.2,246.8 -383.1,247.7 -385.5,249.7 -387.2,252.5 -387.7,255.9 -387.5,259.6 -386.1,265.1 
		-384.5,268.4 -380,273.4 -370.1,280.4 -364.3,283.1 -361.1,283.9 -358,283.8 -354.8,282.6 -351.1,279.1 -349.4,276 -346.5,266.9 
		-343.1,261.9 -340.9,259.9 -338.3,258.5 -335,259.1 -332.4,261.5 -330.9,264.2 -329.9,267.3 -329.7,270.3 -331.1,276.5 -332,283.9 
		-335.3,292.8 -335.6,296.3 -335,308.9 -338.2,320.8 -337.2,327 -335.5,329.9 -333.7,332.2 -331.1,332.3 -329.2,330.1 -327.7,328 
		-325,328 -322.6,329.6 -318.1,335.5 -314.4,338.6 -311.5,339.8 -304.2,340.1 -300.9,341 -289.5,345.5 -285.1,347.9 -281.7,351.4 
		-270.8,365.1 -270.8,135.2 	"/>
	<polygon class="st1" points="-281.7,351.4 -285.1,347.9 -289.5,345.5 -300.9,341 -304.2,340.1 -311.5,339.8 -314.4,338.6 
		-318.1,335.5 -322.6,329.6 -325,328 -327.7,328 -329.2,330.1 -331.1,332.3 -333.7,332.2 -335.5,329.9 -337.2,327 -338.2,320.8 
		-335,308.9 -335.6,296.3 -335.3,292.8 -332,283.9 -331.1,276.5 -329.7,270.3 -329.9,267.3 -330.9,264.2 -332.4,261.5 -335,259.1 
		-338.3,258.5 -340.9,259.9 -343.1,261.9 -346.5,266.9 -349.4,276 -351.1,279.1 -354.8,282.6 -358,283.8 -361.1,283.9 -364.3,283.1 
		-370.1,280.4 -380,273.4 -384.5,268.4 -386.1,265.1 -387.5,259.6 -387.7,255.9 -387.2,252.5 -385.5,249.7 -383.1,247.7 
		-380.2,246.8 -372.7,245.7 -369,243.3 -367.3,240.4 -365.7,235 -364.2,222.1 -365.9,218.1 -369.2,214.7 -372.1,213 -381.9,209.1 
		-385.8,205.6 -395.5,191.5 -400.9,179.5 -408.7,168.2 -410,163.6 -409.3,158.4 -405.5,150.8 -404.6,147.5 -404.9,142 -406.2,135.2 
		-517.9,135.2 -517.9,666 -507.6,666 -495.7,650.5 -478.3,624.3 -472,617.6 -461.4,608.7 -449.9,599.5 -439.3,593.9 -433.1,587.4 
		-430.6,584.2 -427.4,582.2 -421.5,580.4 -404.5,578.2 -399,577 -392.5,574.2 -388.5,571.2 -385.2,567.1 -383.4,563.5 -378.1,544.7 
		-375.8,539.2 -360.7,516.6 -356.9,513 -347.4,506.6 -333.9,503 -331,502.6 -318.8,500.3 -300,496.3 -289.7,495.1 -270.8,495.6 
		-270.8,365.1 	"/>
	<polygon class="st1" points="-285.7,581.2 -298,581.9 -315.8,585.1 -331.9,589.2 -351.7,595.7 -374.1,604.6 -396.5,614.7 
		-398.7,615.8 -431.6,633.1 -458.5,650.3 -474.1,661.9 -478.6,666 -270.8,666 -270.8,582.7 -272.5,582.4 	"/>
	<g id="Layer_4" inkscape:groupmode="layer" inkscape:label="Layer 4">
		<g transform="matrix(1,0,0,1,0,0)">
		</g>
		<g transform="matrix(11.8081,0,0,11.8081,0,0)">
		</g>
		<g transform="matrix(11.8081,0,0,11.8081,0,0)">
		</g>
		<g transform="matrix(0.999751,0,0,0.999751,0,0)">
			<path vector-effect="none" class="st2" d="M-458.4,456.7l-0.3-0.1l-0.3,0.1v0.4l0.2,0.3l0.1,0.5l0.1,0.3l0.1,0.3l0.3,0.2l0.2,0.4
				v0.3v0.3l-0.5,0.9l-0.1,0.4v0.3v0.5v0.6v0.3l-0.1,0.3l-0.2,0.9l0.2,0.4l0.2,0.2l0.2,0.3v0.3l-0.1,0.3l-0.1,0.5l-0.3,0.3l-0.4,0.2
				h-0.3l-0.2-0.1l-0.3,0.1l-0.3-0.4l-0.9-0.3h-0.4"/>
			<path vector-effect="none" class="st2" d="M-435.6,579.3l0.1,0.4l0.2,0.4l0.1,0.3l-0.1,0.3v0.2l-0.1,0.2l0.2,0.3l-0.1,0.3
				l0.1,0.4l0.1,0.2l0.1,0.2l0.1,0.3l0.1,0.3h0.3l0.3,0.1h0.3h0.4l0.3,0.1l0.3,0.1l0.3,0.2l0.2,0.3l0.2,0.5"/>
			<path vector-effect="none" class="st2" d="M-427.6,348.5l0.1,0.5l0.1,0.3l-0.1,0.3l-0.3,0.4l-0.9,1l-0.1,0.4v0.6l-0.2,1.1
				l-0.3,1.3l-0.1,0.3l-0.3,0.6l-0.2,0.4l-0.3,0.6l-0.1,0.5l-0.1,0.3l-0.2,0.5l-0.1,0.5v0.4l0.3,0.4l0.4,0.2h0.5l0.7,0.3l0.7,0.4
				l0.4,0.3v0.5l0.1,1.3v0.3v0.4v0.4l-0.1,0.3l-0.1,0.6v0.4v0.4l0.1,0.9l0.1,0.7v0.4l0.1,0.5l0.1,0.3l0.3,0.3l0.6,0.5l0.7,0.5l1,0.8
				l0.6,0.5l0.3,0.3l0.1,0.5l0.1,0.4v0.3l-0.2,0.5l-0.2,0.3l-0.3,0.4l-0.6,0.4l-0.2,0.3l-0.3,0.3l-0.5,0.5l-0.5,0.5l-0.3,0.3
				l-0.2,0.3l-0.2,0.3l-0.3,0.4l-0.6,0.5l-0.9,0.6l-1.2,0.7l-1,0.5l-1.1,0.5l-0.9,0.4l-0.7,0.6l-0.3,0.6l-0.1,0.6v0.3l-0.1,0.7v0.5
				l0.2,0.9l0.1,0.9v1.1l-0.1,1.1v0.7l-0.1,0.5l-0.2,0.5l-0.1,0.3l-0.1,0.3l-0.1,0.3l-0.1,0.3l-0.1,0.6l-0.1,0.3l0.1,0.6l0.2,0.6
				l0.3,0.6l0.4,0.4l0.1,0.3v0.4l0.1,0.5l0.2,0.3l0.2,0.5l0.1,0.3l0.2,0.5l0.1,0.3v0.7v0.5v0.6l-0.2,0.7v0.3v0.3v0.4l-0.1,0.4
				l-0.1,0.5l0.1,0.5l0.2,0.4l0.4,1.1l0.2,0.4l0.4,0.3l0.6,0.4l0.9,0.7l0.7,0.5l0.6,0.5l0.3,0.5l0.2,0.4l0.2,0.6l0.1,0.5l0.2,0.3
				l0.3,0.5l0.1,0.3l0.2,0.6v0.3v0.4l-0.1,0.3l-0.3,0.2h-0.3l-0.4,0.2l-0.3,0.2l-0.3,0.3l-0.2,0.3l-0.2,0.4l-0.2,0.3l-0.2,0.4
				l-0.2,0.3l-0.2,0.3l-0.4,0.4l-0.3,0.4l-0.5,0.6l-0.5,0.6l-0.4,0.4l-0.3,0.3l-0.5,0.6l-0.2,0.4l-0.7,0.6l-0.2,0.3l-0.2,0.5
				l-0.2,0.4l-0.1,0.4l-0.2,0.6l-0.2,0.4l-0.3,0.6l-0.3,0.6l-0.2,0.6l-0.2,0.7l-0.1,0.3l-0.2,0.4l-0.5,0.4l-0.4,0.1l-0.4,0.2
				l-0.3,0.3l-0.2,0.3l-0.2,0.4l-0.2,0.4l-0.3,0.3l-0.2,0.4l-0.4,0.7l-0.3,0.5l-0.2,0.3l-0.3,0.4l-0.3,0.5l-0.6,0.9l-0.5,0.6
				l-0.5,0.6l-0.4,0.4l-0.4,0.5l-0.4,0.5l-0.5,0.4l-0.5,0.1l-0.4,0.1l-0.6,0.2l-0.3,0.2l-0.4,0.3l-0.3,0.2l-0.3,0.2l-0.3,0.2
				l-0.6,0.5l-0.8,0.7l-0.5,0.4l-0.5,0.4l-0.3,0.3l-0.2,0.4l-0.4,0.4l-0.3,0.2l-0.3,0.2l-0.5,0.1l-0.3,0.2l-0.2,0.3l-0.3,0.5
				l-0.6,0.9l-0.3,0.3l-0.3,0.3l-0.4,0.5l-0.3,0.3l-0.4,0.5l-0.2,0.3l-0.2,0.3l-0.1,0.4v0.3l0.1,0.5l0.1,0.4v0.3v0.5l-0.2,0.4
				l-0.3,0.6l-0.3,0.5l-0.1,0.4v0.7l0.3,0.2l0.1,0.4l0.1,0.9v0.3v0.3l0.2,0.3v0.4l0.2,0.5l0.1,0.4l-0.2,0.7v0.2l-0.1,0.3l-0.1,0.3
				l0.2,0.3v0.3l-0.3,0.3l0.1,0.3l-0.2,0.3l-0.2,0.3l-0.2,0.4l-0.2,0.3l-0.2,0.3l-0.2,0.3v0.4l-0.1,0.4v0.3l-0.2,0.4l-0.2,0.3
				l-0.1,0.5l-0.1,0.3l-0.5,0.1"/>
			<path vector-effect="none" class="st2" d="M-373.5,271.6l-0.1,0.1l-0.1,0.4v0.7l0.2,0.4l0.2,0.4l0.1,0.3v0.4l-0.1,0.9v0.6
				l-0.3,0.3l-0.2,0.1l-2,0.9h-0.5l-1.3-1l-0.5-0.1l-1.9,0.8l-0.4,0.3l-0.4,0.5l-0.5,0.7l-0.3,0.4l-0.3,0.1h-0.5l-0.3,0.1l-1.5,1.2
				l-0.4,0.2h-0.7l-0.4-0.2l-0.4-0.3l-0.3-0.2l-0.4-0.4l-1.2-0.4l-0.4-0.2l-0.5-0.1l-0.3,0.2l-0.3,0.2l-0.3,0.4l-0.2,0.3l-0.2,0.5
				l-0.4,0.3l-0.3,0.2l-0.4,0.3l-0.5,0.2l0.1,0.4l0.3,0.2h0.3h0.4l0.1,0.3v0.4v0.3l0.3,0.1v0.3l0.3,0.3l0.2,0.3l-0.2,0.3l0,0.2
				l0.3,0.3l0.3,0.1l0.3,0.2l0.2,0.3v0.4l0.2,0.4l0.2,0.3l-0.1,0.4l0.1,0.3l0.1,0.3l-0.3,0.2l-0.3,0.5l0.1,0.3l-0.2,0.5l-0.2,0.3
				l-0.5,0.7l-0.1,0.3l-0.3,0.3l-0.4,0.4l-0.2,0.3l-0.1,0.3l-0.3,0.4v0.3l0.3,0.3l0.1,0.3l0.4,0.4l0.1,0.3l0.1,0.3l-0.1,0.3v0.3
				l-0.1,0.3l-0.3,0.1l-0.1,0.4v0.3l0.2,0.4v0.3l-0.1,0.5v0.3l-0.1,0.4l-0.1,0.3l0.1,0.3l0.2,0.6v0.4v0.6l0.1,0.3l-0.1,0.4l-0.1,0.3
				v0.3l0.1,0.3l-0.1,0.5v0.5v0.3v0.3v0.6l0.1,0.3l-0.1,0.3l-0.1,0.5v0.3l-0.1,1l0.2,0.6l0.1,0.3l0.2,0.6l0.1,0.3l0.2,0.7l0.2,0.7
				l0.2,0.6l0.1,0.3l0.1,0.3l0.2,0.5l0.2,0.3l0.2,0.3l0.2,0.5l0.1,0.5v0.3l0.1,0.3l0.1,0.3l0.1,0.3l0.1,0.3l0.1,0.2l0.1,0.1v0.4
				l0.2,0.1h0.3l0.3,0.6l0.3,0.8l-0.4,0.2l-0.7,0.2l-0.3,0.2l-0.1,0.4l0.3,1l0.1,0.6l-0.8-0.1h-0.5l-0.3-0.3l-0.4,0.2l-0.4,0.3
				l-0.4,0.4l-0.3,0.3l-0.5,0.2l-0.3,0.1l-0.4,0.1h-0.4h-0.4h-0.5l-0.5-0.3l-0.3-0.1l-0.2-0.1l-0.5-0.3l-0.4-0.1l-0.5-0.2l-0.7-0.1
				l-0.5,0.1h-0.3l-0.3,0.1l-0.4,0.3l-0.3,0.3l-0.3,0.3l-0.3,0.6l-0.2,0.5l-0.2,0.5l-0.1,0.6l-0.5,0.6l-0.2,0.4l-0.2,0.2l-0.1,0.4
				l-0.2,0.4l-0.2,0.1l-0.4,0.3l-0.4,0.3l-0.4,0.3l-0.4,0.2l-0.2,0.3l-0.3,0.2l-0.2,0.4l-0.6,0.1l-0.5,0.1l-0.6,0.2l-0.4,0.1
				l-0.6,0.4h-0.4l-0.5,0.1l-0.5,0.2l-0.5,0.4l-0.2,0.3l-0.4,0.4l-0.2,0.3l-0.3,0.5l-0.1,0.3l-0.2,0.3l-0.2,0.2l-0.2,0.1l-0.4,0.3
				l-0.3,0.4l-0.3,0.3l-0.5,0.2l-0.4-0.1l-0.3-0.1l-0.4-0.2l-0.4-0.2l-0.5,0.1l-0.4,0.1l-0.5,0.1l-0.2,0.2l-0.5,0.2l-0.8,0.1
				l-0.4,0.2l-0.2,0.2l-0.1,0.3l-0.1,0.6l-0.3,0.4l-0.2,0.3l-0.3,0.3l-0.2,0.4l-0.2,0.3l-0.2,0.3l-0.3,0.4l-0.3,0.4l-0.5,0.4
				l-0.5,0.4l-0.3,0.4l-0.2,0.4l-0.3,0.3l-0.2,0.6l-0.1,0.4l-0.2,0.2l-0.1,0.1l-0.2,0.1l-0.4,0.3l-0.7,0.6l-0.3,0.2l-0.5,0.3
				l-0.4,0.2l-0.3,0.2l-0.5,0.3l-0.5,0.2l-0.3,0.2l-0.2,0.2l-0.2,0.4l-0.3,0.4l-0.2,0.5l-0.1,0.3l-0.2,0.5l-0.2,0.6l-0.3,0.3
				l-0.2,0.3l-0.5,0.7l-0.1,0.4l-0.1,0.6v0.5v0.4v0.4l0.1,0.4v0.5"/>
			<path vector-effect="none" class="st2" d="M-461.8,465.2l0.3,0.2h0.3l-0.1,0.6l-0.1,0.3l0.1,0.3l0.2,0.2"/>
			<path vector-effect="none" class="st2" d="M-461,466.8l0.2,0.1l0.4,0.1l0.3,0.2l-0.3,0.2l-0.5,0.3l-0.3,0.2l-0.2,0.3v0.3
				l-0.1,0.3l-0.1,0.4v0.3l-0.2,0.3v0.3l-0.1,0.3l-0.2,0.3l-0.5,0.4l0.1,0.3v0.5v0.6v0.3l-0.3,0.2v0.1"/>
			<path vector-effect="none" class="st2" d="M-462.9,472.8l-0.2,0.2l-0.4,0.5l-0.5,0.4l-0.4,0.9v0.8l-0.3,0.4l0.1,0.5l-0.7,1.3v0.3
				v2l-0.4,1l0.1,0.5l-0.1,0.8l-0.1,1.8l-0.3,0.8l-0.5,3.4"/>
			<path vector-effect="none" class="st2" d="M-466.6,488.3l0.1,1.3l0.3,0.1l0.3,0.4l0.1,0.4l0.2,0.4v0.3l-0.1,0.2v0.3v0.3l0.5,0.4
				l0.3,0.2l0.2,0.3v0.3v0.4v0.3l0.2,0.3l0.4,0.4l0.1,0.4l0.1,0.4l0.2,0.4l0.2,0.4l0.1,0.3l-0.2,0.3l-0.1,0.3l0.4,0.7l0.2,0.3
				l0.1,0.3l-0.3,0.3l-0.2,0.3l-0.2,0.4l-0.1,0.3l-0.2,0.3l-0.2,0.3v0.3l-0.1,0.4l-0.4,0.7l-0.2,0.4l-0.1,0.3l-0.1,0.5l-0.1,0.5v0.3
				l-0.1,0.3v0.3v0.4l-0.1,0.4l-0.1,0.2l-0.2,0.4l-0.1,0.4l-0.1,0.3l-0.1,0.5v0.5l-0.1,0.3l-0.3,0.5v0.4l0.1,0.6l0.1,0.3l0.2,0.4
				l0.4,0.4l0.1,0.3l0.1,0.3l0.1,0.3v0.4l-0.2,0.3l-0.3,0.3l-0.1,0.2v0.5l-0.2,0.3v0.3v0.3v0.2l0.3,0.4l0.1,0.3l0.3,0.3h0.4l0.4-0.1
				l0.3-0.1l0.3,0.1l0.3,0.1l0.4,0.1l0.2-0.5l0.3-0.2h0.3h0.3l0.4,0.1l0.3,0.2l0.3,0.7l0.2,0.5v0.5v0.3v0.5l0.1,0.9v0.3l-0.2,0.4
				v0.3l0.1,0.4l0.1,0.5v0.3l-0.1,0.4l-0.2,0.1l-0.3,0.3l-0.6,0.1l-0.1,0.3l-0.1,0.4v0.3v0.3l-0.3,0.4l-0.2,0.3v0.6l0.2,0.5l0.3,0.1
				l0.3,0.3l0.2,0.3l0.1,0.6v0.3l-0.1,0.3l-0.1,0.3l-0.1,0.3v0.3v0.3v0.4v0.4l-0.1,0.3l-0.1,0.3l0.2,0.3l0.5,0.6l0.1,0.3l0.2,0.3
				l0.3,0.3l0.1,0.3l-0.2,0.1l-0.2,0.3l-0.2,0.4l-0.1,0.3l-0.5,0.2l-0.1,0.4l-0.1,0.4l-0.2,0.3l0.1,0.4l0.3,0.2l0.3,0.2l-0.1,0.5
				l-0.1,0.4l-0.1,0.3l-0.2,0.3l0.1,0.4l0.1,0.3l0.2,0.2l0.3,0.3l0.3,0.2l0.1,0.3l-0.1,0.4v0.3l-0.2,0.2l-0.1,0.4l-0.2,0.3v0.3
				l0.1,0.3l0.3,0.2l0.3,0.2l0.5,0.2h0.3l0.5,0.2l0.3,0.2l0.3,0.4l0.3,0.2l0.2,0.1l0.2,0.3l0.3,0.5l-0.1,0.3l-0.1,0.4h-0.4l-0.2,0.3
				l0.1,0.4l0.1,0.4v0.4l0.3,0.2l0.3,0.2l0.1,0.2l0.1,0.5l0.1,0.3l0.3,0.5l0.2,0.3l0.3,0.3l0.1,0.3"/>
			<path vector-effect="none" class="st2" d="M-456.8,547l-0.1,0.3l-0.1,0.4l-0.2,0.3l-0.2,0.3l-0.2,0.4l0.1,0.5l0.1,0.3v0.3
				l0.3,0.3l0.1,0.5l0.1,0.3l0.3,0.4l0.1,0.2l0.3,0.1h0.3l0.8,0.4l0.3,0.4v0.3l0.3,0.6l0.4,0.3l0.2,0.1l0.4,0.2l0.3,0.2l0.4,0.1
				l0.3,0.1l0.4,0.3l0.2,0.3v0.3l0.2,0.3l0.3,0.4v0.3l-0.2,0.4l0.3,0.2l0.2,0.3l0.2,0.3l-0.1,0.2l0.1,0.5l0.1,0.3v0.3v0.3l-0.2,0.3
				l-0.1,0.2l-0.1,0.2v0.3l0.2,0.5l0.2,0.3l0.2,0.3l0.1,0.2l0.4,0.2l0.1,0.5v0.4l-0.1,0.4v0.3l-0.1,0.4l-0.2,0.3l-0.3,0.4l-0.1,0.3
				l0.2,0.4l0.2,0.3l0.2,0.4l-0.1,0.3l-0.1,0.4l0.1,0.3v0.4l0.1,0.3l0.1,0.3l0.4,0.1l0.1,0.4l0.2,0.3l0.4-0.2l0.4-0.1l0.4-0.2
				l0.5-0.1l0.3,0.2h0.3l0.3,0.3l0.2,0.4v0.4l-0.1,0.3v0.3l-0.1,0.2l0.1,0.6l0.1,0.4l0.1,0.4v0.3l0.1,0.3l0.1,0.3l0.1,0.3l0.1,0.4
				l0.1,0.3l0.1,0.8l0.2,0.3l0.2,0.4l0.3,0.2l0.5,0.1l0.4-0.1l0.2,0.1l-0.2,0.3l-0.1,0.3l0.1,0.3l0.1,0.4l0.3,0.4l0.3,0.1l0.3,0.1
				l0.3-0.1l0.5-0.3l0.2-0.2l0.4,0.1l0.4,0.1l0.3,0.3l0.5,0.4h0.3l0.3,0.1v0.3l-0.1,0.3v0.3l0.3,0.1l0.2-0.2l0.1-0.2l0.3-0.1h0.3
				l0.3,0.1h0.3l0.5,0.1l0.3,0.2l0.3-0.1l0.3-0.2l0.1,0.6l0.2,0.2l0.1,0.3l0.3,0.2l0.4,0.1l0.3,0.3h0.3l0.3,0.1l0.2,0.3"/>
		</g>
		<g transform="matrix(11.8081,0,0,11.8081,0,0)">
		</g>
		<g transform="matrix(11.8081,0,0,11.8081,0,0)">
		</g>
		<g transform="matrix(11.8081,0,0,11.8081,0,0)">
		</g>
		<g transform="matrix(1,0,0,1,0,0)">
		</g>
		<g transform="matrix(11.8081,0,0,11.8081,0,0)">
		</g>
		<g transform="matrix(11.8081,0,0,11.8081,0,0)">
		</g>
		<g transform="matrix(11.8081,0,0,11.8081,0,0)">
		</g>
		<g transform="matrix(11.8081,0,0,11.8081,0,0)">
		</g>
		<g transform="matrix(1,0,0,1,0,0)">
		</g>
	</g>
	<rect x="-377.8" y="151" class="st3" width="107" height="37"/>
	<text transform="matrix(1 0 0 1 -377.7325 161.6689)" class="st4 st5 st6">TERRE-NEUVE-</text>
	<text transform="matrix(1 0 0 1 -377.7325 178.4689)" class="st4 st5 st6">ET-LABRADOR</text>
	<polygon class="st3" points="-282.7,188 -258.6,188 -258.6,188 	"/>
	<rect x="-473.7" y="206" class="st3" width="65.3" height="18.5"/>
	<text transform="matrix(1 0 0 1 -473.6865 216.6689)" class="st7 st5 st6">QUÉBEC</text>
</g>
<g id="Calque_2">
	<circle class="st8" cx="-429.2" cy="587.2" r="3.5"/>
	<circle class="st8" cx="-332.7" cy="505" r="3.5"/>
	<rect x="-429.7" y="557.7" class="st9" width="91.3" height="24.1"/>
	<circle class="st8" cx="-384.7" cy="279.4" r="3.5"/>
	<rect x="-387" y="283.6" class="st9" width="72" height="19.6"/>
	<rect x="-355.5" y="478.4" class="st9" width="70" height="19.6"/>
	<polygon class="st3" points="-275.9,482.2 -346.9,482.2 -350,494.7 -279,494.7 	"/>
	<text transform="matrix(1 0 0 1 -347.1544 492.8526)" class="st10 st5 st6">Sept-Îles</text>
	<rect x="-426.7" y="562.7" class="st3" width="91" height="27"/>
	<text transform="matrix(1 0 0 1 -426.6776 573.3761)" class="st10 st5 st6">Baie-Comeau</text>
	<rect x="-376.7" y="287.4" class="st3" width="89" height="23"/>
	<text transform="matrix(1 0 0 1 -376.6961 298.0464)" class="st10 st5 st6">Fermont</text>
</g>
<rect x="-420.7" y="392.7" class="st9" width="91.5" height="19.6"/>
<text transform="matrix(1 0 0 1 -418.6961 407.0066)" class="st10 st5 st6">Relais Gabriel</text>
<circle class="st8" cx="-430.3" cy="403.5" r="3.5"/>
</svg>
